/* XPM */
static char *result[] = {
/* columns rows colors chars-per-pixel */
"64 64 189 2 ",
"   c None",
".  c black",
"X  c #17134C",
"o  c #010056",
"O  c #0C0060",
"+  c #080174",
"@  c #1D0B7B",
"#  c #180777",
"$  c #1C117F",
"%  c #170760",
"&  c #251478",
"*  c #2A166D",
"=  c #31217D",
"-  c #674D56",
";  c #5E4373",
":  c #70556E",
">  c #707267",
",  c #9C8379",
"<  c #A89277",
"1  c #CDAC7F",
"2  c #D8B97D",
"3  c #0E008A",
"4  c #1D0887",
"5  c #1C0688",
"6  c #1F0B8E",
"7  c #130183",
"8  c #1E1480",
"9  c #1A0394",
"0  c #16009C",
"q  c #1B029B",
"w  c #1B0D97",
"e  c #080094",
"r  c #230C9C",
"t  c #200993",
"y  c #2C169B",
"u  c #30148E",
"i  c #1A229D",
"p  c #2E2489",
"a  c #33268C",
"s  c #2C2191",
"d  c #372797",
"f  c #1C02A4",
"g  c #1C02AA",
"h  c #1604A4",
"j  c #1D01B6",
"k  c #1400BD",
"l  c #1C00BB",
"z  c #1E14AB",
"x  c #2A11A1",
"c  c #2102BD",
"v  c #2009B2",
"b  c #3927A9",
"n  c #3528BA",
"m  c #2C2FA8",
"M  c #4C2E81",
"N  c #403C9A",
"B  c #563A99",
"V  c #422EAC",
"C  c #402DA2",
"Z  c #4B37B0",
"A  c #4C31BD",
"S  c #513DB6",
"D  c #523AAC",
"F  c #534B87",
"G  c #514991",
"H  c #5B5494",
"J  c #585088",
"K  c #71689D",
"L  c #5050A6",
"P  c #695FB2",
"I  c #746DA6",
"U  c #0F00C0",
"Y  c #1500C2",
"T  c #1C00C5",
"R  c #1C00CB",
"E  c #1700CE",
"W  c #1C00D6",
"Q  c #2202C4",
"!  c #2100CA",
"~  c #2008C8",
"^  c #2C13C9",
"/  c #2314C4",
"(  c #3112C1",
")  c #2302D4",
"_  c #2200DD",
"`  c #2811D8",
"'  c #361FDA",
"]  c #2726C5",
"[  c #3D25C7",
"{  c #2A35CD",
"}  c #333DD1",
"|  c #3E25D9",
" . c #1A01E5",
".. c #0E00F3",
"X. c #2401E4",
"o. c #2401EB",
"O. c #2800EF",
"+. c #2E09ED",
"@. c #341AEB",
"#. c #2800F4",
"$. c #2700FE",
"%. c #2A00FE",
"&. c #2700F2",
"*. c #3007FF",
"=. c #2912F1",
"-. c #3C14FF",
";. c #3E18FF",
":. c #4629D7",
">. c #4F37D1",
",. c #4F36D8",
"<. c #432FC4",
"1. c #421AFE",
"2. c #4B29EE",
"3. c #4621FF",
"4. c #4D28F9",
"5. c #5736FF",
"6. c #5938FF",
"7. c #5A3AF5",
"8. c #3647CA",
"9. c #2F45D3",
"0. c #3447EC",
"q. c #3658E9",
"w. c #5D48C7",
"e. c #5B4BCF",
"r. c #5D44DF",
"t. c #6753CE",
"y. c #654FD1",
"u. c #6F5AD7",
"i. c #6F59DA",
"p. c #6A54D8",
"a. c #715CDD",
"s. c #4D61D9",
"d. c #5D6DD3",
"f. c #5B6CCF",
"g. c #616BD1",
"h. c #6974D2",
"j. c #7865C4",
"k. c #415CE3",
"l. c #6243EE",
"z. c #755EE4",
"x. c #6545FF",
"c. c #6B4EFF",
"v. c #6D51FF",
"b. c #7155FF",
"n. c #785DFF",
"m. c #775CF9",
"M. c #4074FC",
"N. c #557CF2",
"B. c #637CE6",
"V. c #7D63FE",
"C. c #8C75FF",
"Z. c #8F79FC",
"A. c #8B75F4",
"S. c #9177FF",
"D. c #937DFF",
"F. c #6E85DF",
"G. c #578DFF",
"H. c #5F8EFC",
"J. c #6799FF",
"K. c #6F9CFF",
"L. c #79AAFF",
"P. c #7BA1FE",
"I. c #7FB5FF",
"U. c #8D87AD",
"Y. c #B6B8AD",
"T. c #BFC2AB",
"R. c #C7CAB1",
"E. c #FFFDA7",
"W. c #9E98D7",
"Q. c #928CD1",
"!. c #ACA7D8",
"~. c #B4AFDD",
"^. c #BCB8D8",
"/. c #B6B2CC",
"(. c #859BE5",
"). c #9782FF",
"_. c #9B86FF",
"`. c #9E89FF",
"'. c #A18BFF",
"]. c #94BEFF",
"[. c #9BC4FF",
"{. c #B4D8FF",
"}. c #DEDED9",
"|. c #C8C4E7",
" X c #D1CDEC",
".X c #D4D1EF",
"XX c #EDEBF8",
"oX c #FEFEFE",
"OX c #FDFEF5",
/* pixels */
"                                                                                                                                ",
"                                                                                                                                ",
"                                                                                                                                ",
"                                                                                                                                ",
"                                                                                                                                ",
"                                                                                                                                ",
"                                                                                                                                ",
"                                                                                                                                ",
"                                                                                                                                ",
"                                                                                                                                ",
"                                                                                                                                ",
"                                                                                                                                ",
"                                                                                                                                ",
"                                                                                                                                ",
"                                                                                                                                ",
"                                                                                                                                ",
"                                                                                                                                ",
"                                                                                                                                ",
"                                              d                                 d                                               ",
"                                              >.                                >.                                              ",
"                                            b ,.        . . .     . . .         ,.b                                             ",
"                                    Z t.z.7.1.^         .           . .         ^ 1.7.z.t.Z                                     ",
"                              C u.Z.`._.m.2.%.q       .               . .       q %.2.m._.`.Z.u.C                               ",
"                            u._.'._.C.l.n ` X.        .                 .         X.` n l.C._.'._.u.                            ",
"                        V A.'._.D.n.4.^ 9.=.j             @ G K K H @             j =.9.^ 4.n.D._.'.A.V                         ",
"                      Z D.`.).S.v.1._ { q.o.q         O $ G H I U.K G 8           q o.q.{ _ 1.v.S.).`.D.Z                       ",
"                    V D._.).S.c.-.$.~ q.0.X.9         s ^.XX~.p p !.XX|.d         9 X.0.q.~ $.-.c.S.)._.D.V                     ",
"                  = C.`.).D.b.-.%.o.] M.0.X.9       + Q.oXoXOXP P OXoXoXW.+       9 X.0.M.] o.%.-.b.D.).`.C.=                   ",
"                  i.'.).).V.3.%.%._ } G.k._ g     % f |.oXoXY.J F Y.OXoX X6       g _ k.G.} _ %.%.3.V.).).'.i.                  ",
"                a S._.).C.6.%.%.%.W s.L.N./ R     0 v |.oXoX> X X > OXoX.Xr 3     R / N.L.s.) %.%.%.6.C.)._.S.a                 ",
"                S _.).).n.-.$.%.%.) F.[.K.8.T c 5 l Y W.oXoXR.d s T.oXoX!.h 0 @ c T 8.K.[.F.) %.%.$.-.n.).)._.S                 ",
"                y.`.).Z.5.%.%.%.$.) (.{.].H.] R ! !  .[ /.}.~.@.@.!.}.^.<.Y g ! W ] H.].{.(.) $.%.%.%.5.Z.).`.y.                ",
"                i.`.).V.;.%.%.%.%.) N L h.P.H.{ l c o... .| X.$.$.o.' W  .) j T { H.P.h.L N ) %.%.%.%.;.V.).`.i.                ",
"              y a.'.D.x.*.%._ j ) )       a B.J.q.w M j.A Y R Q Q T ( e.D 7 z k.J.B.a       ) ) j _ %.*.x.D.'.a.y               ",
"                i.`.V.3.%.X.5     g @         d.L.i - E., 3 0 f 0 e ; E.< o 8.I.f.        @ g     5 X.%.3.V.`.i.                ",
"                y.).x.+.o.c         @           g.m * 2 B k ! ! ! k x 1 : + d.h.          @         c o.+.x.).y.                ",
"                w.S.:.9 9 q                       6 # u Q _ X.X.X._ R y 4 7 b                       q 9 9 :.S.w.                ",
"                S V.&                             # 0 k _ O.#.#.&.O.X.E h 9                               & V.S                 ",
"                d r.                                g ! o.$.$.$.$.#.&.X.Q 9                                 r.d                 ",
"                  [                                 f X.&.$.%.%.%.$.$.O._ @                                 [                   ",
"                  r                                   X.%.%.%.%.%.%.%.%.!                                   r                   ",
"                    4                                 t $.%.%.%.%.%.%.&.@                                 4                     ",
"                                                        6 ) O.#.&.X.Q                                                           ",
"                                                            g Q j                                                               ",
"                                                                                                                                ",
"                                                                                                                                ",
"                                                                                                                                ",
"                                                                                                                                ",
"                                                                                                                                ",
"                                                                                                                                ",
"                                                                                                                                ",
"                                                                                                                                ",
"                                                                                                                                ",
"                                                                                                                                ",
"                                                                                                                                ",
"                                                                                                                                ",
"                                                                                                                                ",
"                                                                                                                                ",
"                                                                                                                                ",
"                                                                                                                                ",
"                                                                                                                                ",
"                                                                                                                                ",
"                                                                                                                                ",
"                                                                                                                                "
};
