/* XPM */
static char *result[] = {
/* columns rows colors chars-per-pixel */
"64 64 192 2 ",
"   c None",
".  c black",
"X  c #19144D",
"o  c #070058",
"O  c #090078",
"+  c #1B0A78",
"@  c #1C107C",
"#  c #0E036D",
"$  c #210D78",
"%  c #302079",
"&  c #3A256A",
"*  c #6A5057",
"=  c #5E4373",
"-  c #71566E",
";  c #717268",
":  c #9B8279",
">  c #A89377",
",  c #CDAC7F",
"<  c #D8B87D",
"1  c #0E038A",
"2  c #140183",
"3  c #1C0689",
"4  c #1D1380",
"5  c #140194",
"6  c #19009F",
"7  c #1C0493",
"8  c #0E0C99",
"9  c #220C85",
"0  c #250C8E",
"q  c #2B1989",
"w  c #220697",
"e  c #261398",
"r  c #31199F",
"t  c #37179C",
"y  c #3A1A8C",
"u  c #2E238A",
"i  c #34228F",
"p  c #3D378F",
"a  c #373388",
"s  c #2A2198",
"d  c #332794",
"f  c #1A09A0",
"g  c #1D01AC",
"h  c #1902A4",
"j  c #1D01B5",
"k  c #1500BD",
"l  c #1D00BC",
"z  c #1D09B4",
"x  c #280BA0",
"c  c #2A0AAD",
"v  c #2306AB",
"b  c #2D13A4",
"n  c #2512A3",
"m  c #2307B8",
"M  c #2F10B8",
"N  c #3616BF",
"B  c #2D21A6",
"V  c #3F38A9",
"C  c #3A37A5",
"Z  c #2E23B6",
"A  c #3B23B4",
"S  c #4D3083",
"D  c #423E94",
"F  c #563A99",
"G  c #423FA5",
"H  c #4C31BD",
"J  c #513AAB",
"K  c #585186",
"L  c #514991",
"P  c #5A5493",
"I  c #52498E",
"U  c #71689D",
"Y  c #4D4FAC",
"T  c #4641AC",
"R  c #4F53AB",
"E  c #5050A7",
"W  c #726AA9",
"Q  c #0F00C0",
"!  c #1500C2",
"~  c #1C00C6",
"^  c #1A00CC",
"/  c #1A00DA",
"(  c #2201C4",
")  c #2200CC",
"_  c #2511C1",
"`  c #2C15C6",
"'  c #3216C8",
"]  c #2602D3",
"[  c #2401DD",
"{  c #2901DB",
"}  c #2808DB",
"|  c #2815D7",
" . c #361FDA",
".. c #2F27C4",
"X. c #3F22C8",
"o. c #3328CE",
"O. c #303AC2",
"+. c #3D25D5",
"@. c #2F35D6",
"#. c #3330D2",
"$. c #3738D7",
"%. c #393CD9",
"&. c #1A01E5",
"*. c #0E00F3",
"=. c #2500E3",
"-. c #2501EA",
";. c #2800EF",
":. c #2806E6",
">. c #381BE8",
",. c #2800F4",
"<. c #2600FF",
"1. c #2A00FD",
"2. c #2700F2",
"3. c #2F2BE4",
"4. c #302CE6",
"5. c #3339E7",
"6. c #401DDF",
"7. c #4830C5",
"8. c #4220D9",
"9. c #432FC4",
"0. c #411EE2",
"q. c #4624EF",
"w. c #3649D9",
"e. c #3A56DC",
"r. c #3B58DD",
"t. c #3A54EC",
"y. c #5B4ACF",
"u. c #6166C0",
"i. c #6368CB",
"p. c #6870C8",
"a. c #717CC9",
"s. c #6C78D0",
"d. c #7765C4",
"f. c #425CE6",
"g. c #4563ED",
"h. c #4D70EF",
"j. c #4D73F2",
"k. c #4E76F8",
"l. c #517EFA",
"z. c #5471EB",
"x. c #7582CE",
"c. c #7387DE",
"v. c #5484FE",
"b. c #5C8CFF",
"n. c #6C85ED",
"m. c #628FFB",
"M. c #6692FE",
"N. c #6C96FF",
"B. c #6D99FF",
"V. c #719BFF",
"C. c #77A3FF",
"Z. c #7BA2FF",
"A. c #8D87AC",
"S. c #B8BAAF",
"D. c #BEC0AC",
"F. c #C6C8B1",
"G. c #FFFDA7",
"H. c #9F98D7",
"J. c #948DD2",
"K. c #ACA6D8",
"L. c #B3AFDA",
"P. c #BEBBD8",
"I. c #B5B2CC",
"U. c #8295E3",
"Y. c #8FA4ED",
"T. c #97AFEF",
"R. c #80A6FF",
"E. c #85ABFF",
"W. c #8CAFFF",
"Q. c #93AAF4",
"!. c #8DB3FF",
"~. c #9AB4F5",
"^. c #9FBAF7",
"/. c #93B6FF",
"(. c #97B9FF",
"). c #9DBDFF",
"_. c #A0BBF7",
"`. c #A0BEFE",
"'. c #A5C3FF",
"]. c #A9C7FF",
"[. c #ABCBFF",
"{. c #AED2FF",
"}. c #B2D3FF",
"|. c #B7DCFF",
" X c #B8DCFF",
".X c #DEDED9",
"XX c #C8C4E7",
"oX c #D2CEED",
"OX c #D6D2EF",
"+X c #EDEBF8",
"@X c #FEFEFE",
"#X c #FCFDF5",
/* pixels */
"                                                                                                                                ",
"                                                                                                                                ",
"                                                                                                                                ",
"                                                                                                                                ",
"                                                                                                                                ",
"                                                                                                                                ",
"                                                                                                                                ",
"                                                                                                                                ",
"                                                                                                                                ",
"                                                                                                                                ",
"                                                                                                                                ",
"                                                                                                                                ",
"                                                                                                                                ",
"                                                                                                                                ",
"                                                                                                                                ",
"              w w c c x 0                                                                             0 x c c w w               ",
"    3 n Z ..#.$.%.%.%.#.o.` M b                                                                 b M ` o.#.%.%.%.$.#...Z n 3     ",
"      B n.Z.B.N.M.b.b.v.k.g.w.o.' N r                                                     r N ' o.w.g.k.v.b.b.M.N.B.Z.n.B       ",
"        R '.).(./.W.E.Z.V.N.b.l.f.#.' X.                                                X.' #.f.l.b.N.V.Z.E.W./.(.).'.R         ",
"        p ].].'.'.'.'.).(.W.Z.B.b.l.w.` 6.q     e                             e     q 6.` w.l.b.B.Z.W.(.).'.'.'.'.].].p         ",
"        a.|.'.'.'.'.'.'.'.'.).!.Z.M.b.e._ 0.%   A       . .       . .         A   % 0._ e.b.M.Z.!.).'.'.'.'.'.'.'.'.|.a.        ",
"      q s.T.[.'.'.'.'.'.'.'.'.'.(.E.B.b.r._ 8.i 7.b   . .           . .     b 7.i 8._ r.b.B.E.(.'.'.'.'.'.'.'.'.'.[.T.s.q       ",
"            x.[.'.'.'.'.'.'.'.'.'.).W.V.b.e._ q.0.    .               . .     >.q._ e.b.V.W.).'.'.'.'.'.'.'.'.'.[.x.            ",
"              T.[.'.'.'.'.'.'.'.'.'.`.W.B.v.w.[ ]                       .     ] [ w.v.B.W.`.'.'.'.'.'.'.'.'.'.[.T.              ",
"              Y.|.'.'.'.'.'.'.'.'.'.'.).R.b.t.=.v         + I U U P @         v =.t.b.R.).'.'.'.'.'.'.'.'.'.'.|.Y.              ",
"            a Q.~.].[.'.'.'.'.'.'.'.'.'.!.b.5.=.9     o @ L P W A.U L 4       9 =.5.b.!.'.'.'.'.'.'.'.'.'.[.].~.Q.a             ",
"            u     Y ~.[.'.'.'.'.'.'.'.'.(.m.3.{       s P.+XL.u u K.+XXXd       { 3.m.(.'.'.'.'.'.'.'.'.[.~.Y     u             ",
"                    D '.}.}.].'.'.'.'.'.(.M.4.{     O J.@X@X#XW u.#X@X@XH.#     { 4.M.(.'.'.'.'.'.].}.}.'.D                     ",
"                      U.^.U.`.].'.'.'.'.(.B.5.[     f XX@X@XS.K K S.#X@XoX0     { 5.B.(.'.'.'.'.].`.U.^.U.                      ",
"                      V     G _.[.].'.'.).C.t.} 0 5 m XX@X@X; X X ; #X@XOXe O 0 } t.C.).'.'.].[._.G     V                       ",
"                              a. X'.].[.'.E.j.| ( j ! H.@X@XF.d d D.@X@XK.h 5 m | j.E.'.[.].'. Xa.                              ",
"                              T u.a Y ~.[.(.M.@.l ) &.+.I..XL.>.>.K..XP.9.! g l @.M.(.[.~.Y a u.T                               ",
"                                      E }.{.!.h.z l -.*.&.+.:.<.<.:. ./ &.] j z j.!.{.}.E                                       ",
"                                        i.p.c.V.f.5 S d.H ! ^ ( ( ~ ` y.J 2 f f.V.c.p.i.                                        ",
"                                              C z.8 * G.: 1 6 h 6 5 = G.> o O.z.C                                               ",
"                                                  1 & < F Q ) ) ( k b , - O s                                                   ",
"                                                  + 2 y ( [ =.=.=.{ ^ t 9 2                                                     ",
"                                                  + 5 k [ ;.,.,.2.;.=.^ h 7                                                     ",
"                                                    g ) -.1.1.1.1.,.2.=.~ 7                                                     ",
"                                                    h =.2.1.1.1.1.1.1.;.[ +                                                     ",
"                                                      =.1.1.1.1.1.1.1.1.)                                                       ",
"                                                      w 1.1.1.1.1.1.1.2.$                                                       ",
"                                                        3 ] ;.,.2.=.(                                                           ",
"                                                            g ( j                                                               ",
"                                                                                                                                ",
"                                                                                                                                ",
"                                                                                                                                ",
"                                                                                                                                ",
"                                                                                                                                ",
"                                                                                                                                ",
"                                                                                                                                ",
"                                                                                                                                ",
"                                                                                                                                ",
"                                                                                                                                ",
"                                                                                                                                ",
"                                                                                                                                ",
"                                                                                                                                ",
"                                                                                                                                ",
"                                                                                                                                ",
"                                                                                                                                ",
"                                                                                                                                ",
"                                                                                                                                ",
"                                                                                                                                ",
"                                                                                                                                "
};
