/* XPM */
static char *result[] = {
/* columns rows colors chars-per-pixel */
"64 64 178 2 ",
"   c None",
".  c #000000",
"X  c #2A283F",
"o  c #38373C",
"O  c #150B5E",
"+  c #0D0168",
"@  c #1E0E6F",
"#  c #0E0274",
"$  c #06007E",
"%  c #130474",
"&  c #1E0A7D",
"*  c #190B78",
"=  c #260C7A",
"-  c #2D127A",
";  c #2F277E",
":  c #06008F",
">  c #1A0583",
",  c #1D0984",
"<  c #1C068E",
"1  c #1E088D",
"2  c #13008B",
"3  c #0C009E",
"4  c #1C0594",
"5  c #10009A",
"6  c #1E059C",
"7  c #210C8A",
"8  c #26128C",
"9  c #230B94",
"0  c #20079E",
"q  c #291493",
"w  c #271098",
"e  c #301C91",
"r  c #2F248B",
"t  c #302683",
"y  c #3D3382",
"u  c #372495",
"i  c #0900A1",
"p  c #0F00AF",
"a  c #1C03A1",
"s  c #1D02AC",
"d  c #1600A6",
"f  c #0F00B7",
"g  c #1500B3",
"h  c #1F01BE",
"j  c #1A01B7",
"k  c #260CAA",
"l  c #2A0FAC",
"z  c #2207A8",
"x  c #2B13A7",
"c  c #3018AB",
"v  c #2205B6",
"b  c #2103BC",
"n  c #260ABC",
"m  c #2E13B7",
"M  c #3B16BC",
"N  c #361AB7",
"B  c #3825A5",
"V  c #3C24B9",
"C  c #41388C",
"Z  c #412BAD",
"A  c #493DA7",
"S  c #452DBB",
"D  c #4D37B7",
"F  c #474086",
"G  c #5D5698",
"H  c #66618A",
"J  c #6A639B",
"K  c #736B9F",
"L  c #7F7E91",
"P  c #4B42AC",
"I  c #5750A7",
"U  c #5D55AC",
"Y  c #624CB7",
"T  c #7861AA",
"R  c #7873A5",
"E  c #6760B3",
"W  c #7C74BB",
"Q  c #1C00C3",
"!  c #1300CA",
"~  c #1F00C8",
"^  c #1300C0",
"/  c #1D00D3",
"(  c #2202C4",
")  c #2100CC",
"_  c #391EC6",
"`  c #3112C9",
"'  c #361BC4",
"]  c #2301D3",
"[  c #2300DC",
"{  c #320CD4",
"}  c #2612D8",
"|  c #3415DB",
" . c #351CDC",
".. c #0D00E2",
"X. c #1201ED",
"o. c #1B00F1",
"O. c #2500E3",
"+. c #2800E7",
"@. c #2600EA",
"#. c #2A02EC",
"$. c #3B1AE0",
"%. c #2500F3",
"&. c #2800F4",
"*. c #2300FF",
"=. c #2A00FE",
"-. c #3007FE",
";. c #350DFF",
":. c #3912FF",
">. c #3F19FE",
",. c #3710F4",
"<. c #4026C2",
"1. c #5039CB",
"2. c #4628DB",
"3. c #583FD0",
"4. c #543BD0",
"5. c #421EF9",
"6. c #4929E9",
"7. c #4F31E7",
"8. c #4F32E9",
"9. c #5539E4",
"0. c #4925FF",
"q. c #4B27FF",
"w. c #5534FE",
"e. c #5F3FFF",
"r. c #594AC9",
"t. c #5E44DA",
"y. c #644BC5",
"u. c #7267C7",
"i. c #5D42E6",
"p. c #5D42EA",
"a. c #664CE4",
"s. c #6A53E5",
"d. c #7057ED",
"f. c #6142FF",
"g. c #6A4CFF",
"h. c #684EF3",
"j. c #6C51F6",
"k. c #7254FF",
"l. c #755AFF",
"z. c #7B5DFF",
"x. c #7E64FE",
"c. c #7F66F6",
"v. c #977886",
"b. c #967989",
"n. c #836FA4",
"m. c #827AC7",
"M. c #8476D7",
"N. c #8065FF",
"B. c #856CFE",
"V. c #8C74FF",
"C. c #9177FF",
"Z. c #927BFF",
"A. c #82808D",
"S. c gray57",
"D. c #A68A8B",
"F. c #908AAD",
"G. c #B3B3AC",
"H. c #DAC88C",
"J. c #E5D189",
"K. c #EDDB95",
"L. c #DACBA8",
"P. c #8980C7",
"I. c #B2AED0",
"U. c #9782FF",
"Y. c #9A84FF",
"T. c #9E89FF",
"R. c #CFCFCD",
"E. c #D1CFDC",
"W. c #D7D7D0",
"Q. c #DCDCD7",
"!. c #D8D7D9",
"~. c #EEF1DE",
"^. c #DDDAF3",
"/. c #E5E4E9",
"(. c #EBE8F8",
"). c #FAFBF2",
"_. c #F6F4FD",
"`. c #FFFFFF",
/* pixels */
"                                                                                                                                ",
"                                                                                                                                ",
"                                                                                                                                ",
"                                                                                                                                ",
"                                                                                                                                ",
"                                                                                                                                ",
"                                                                                                                                ",
"                                                                                                                                ",
"                                                                                                                                ",
"                                                                                                                                ",
"                                                                                                                                ",
"                                                                                                                                ",
"                                                                                                                                ",
"                                                                                                                                ",
"                                                                                                                                ",
"                                                                                                                                ",
"                                                                                                                                ",
"                                                                                                                                ",
"                                                                                                                                ",
"                                                  8 8                       w                                                   ",
"                                                  B m     . .       . .   q V                                                   ",
"                                                  8.7   . .           . .   6.u                                                 ",
"                                              N w.$.    .               .   ` w.<.                                              ",
"                                            D V.z.M                         x k.C.t.                                            ",
"                                          u C.T.B.B       % y J K J ;         x.T.U.D                                           ",
"                                          s.T.U.N.q     # C G J F.R G t #     d.U.T.c.                                          ",
"                                        e B.U.Z.j.    % m._.^.U * W (.(.E +   i.C.U.C.Z                                         ",
"                                        S V.Z.B.w.    P _.`.`.I.A E.`.`.^.r # 6.N.Z.Z.3.                                        ",
"                                        4.C.C.k.>.6 $ m.`.`.W.L F S./.`.`.I : ,.g.V.Z.a.                                        ",
"                                        t.C.V.f.;.Q 3 M.`.`.G.X O o R.`.`.U i -.w.B.C.h.c                                       ",
"                                        i.V.x.w.=.] f r.).`.~.H a A.).`./.B ^ =.0.l.V.j.N                                       ",
"                                      x p.B.l.0.=.+./ [ P.Q.E.s.o.M.Q.Q.u.j [ =.>.g.B.h._                                       ",
"                                      l i.x.g.>.=.&.] X.X. .| %.=.%. .} ../ @.=.:.f.x.h._                                       ",
"                                      k 9.l.e.:.=.*.M T y.n ! ( ( ~ ( 1.Y m *.=.;.w.l.p.'                                       ",
"                                      9 2.f.q.;.=.*.{ L.J.- 3 a a 5 = H.K.M *.=.-.0.f.7.m                                       ",
"                                        ` 5.:.=.=.[ ! n.b.g ~ ) ) ~ p v.D.^ [ =.=.;.5.| z                                       ",
"                                        v #.=.=.) > 2 4 k [ O.+.+.[ / l 9 2 > b =.=.#.(                                         ",
"                                        6 [ &.=.z   > d / @.&.&.&.&.+./ g 4   9 =.&.O.s                                         ",
"                                        & ] +.=.v   4 Q O.&.=.=.=.=.&.@.) s   9 =.@.[ 4                                         ",
"                                          h [ &.@.    ] @.=.=.=.=.=.=.&.@.6   ] =.[ )                                           ",
"                                          4 [ O.+.a   b =.=.=.=.=.=.=.=.@.& 1 O.O.[ s                                           ",
"                                            ) ] 4 4 > , [ =.=.=.=.=.=.=.b > < < ( [ *                                           ",
"                                            6 h           ( @.&.&.@.] 0         s j                                             ",
"                                              s                                 s @                                             ",
"                                              & 1                             1 ,                                               ",
"                                                1 4                         4 6                                                 ",
"                                                  4 ,                     & 1                                                   ",
"                                                                                                                                ",
"                                                                                                                                ",
"                                                                                                                                ",
"                                                                                                                                ",
"                                                                                                                                ",
"                                                                                                                                ",
"                                                                                                                                ",
"                                                                                                                                ",
"                                                                                                                                ",
"                                                                                                                                ",
"                                                                                                                                ",
"                                                                                                                                ",
"                                                                                                                                ",
"                                                                                                                                ",
"                                                                                                                                ",
"                                                                                                                                ",
"                                                                                                                                "
};
