/* XPM */
static char *result[] = {
/* columns rows colors chars-per-pixel */
"64 64 66 1 ",
"  c #B5ED75",
". c #BBEC77",
"X c #B6E77C",
"o c #BCE77C",
"O c #B3EC7A",
"+ c #BBEF7C",
"@ c #B7F175",
"# c #B8F175",
"$ c #BEF17C",
"% c #DDEE4C",
"& c #DCED54",
"* c #D6E95E",
"= c #E3F344",
"- c #E1F14B",
"; c #D2E661",
": c #D5E96C",
"> c #D0E477",
", c #D2E77C",
"< c #C1F375",
"1 c #C2F47C",
"2 c #BBDF8E",
"3 c #BAE685",
"4 c #BDEA82",
"5 c #BEE489",
"6 c #BDE88B",
"7 c #C5DD94",
"8 c #C1ED83",
"9 c #C1E78F",
"0 c #C3EA8C",
"q c #D0E580",
"w c #C3F582",
"e c #C3E595",
"r c #CBE396",
"t c #C7E992",
"y c #C9EB96",
"u c #C4E49A",
"i c #CCE699",
"p c #C7E89B",
"a c #C9EA9B",
"s c #D3E89C",
"d c #C4DEA2",
"f c #C5E3A2",
"g c #CAE5A5",
"h c #CCEAA4",
"j c #C7E1A8",
"k c #CCE5AB",
"l c #CEE9A9",
"z c #D2ECA5",
"x c #D0E7AF",
"c c #D2EDAD",
"v c #D1F1A8",
"b c #CEE7B2",
"n c #D3ECB3",
"m c #D5EEBB",
"M c #D8EFB8",
"N c #D7F1B2",
"B c #D9F2B6",
"V c #D7F0BA",
"C c #DBF4BC",
"Z c #DEF8BD",
"A c #E1F7BF",
"S c #E1FABD",
"D c #DEF5C1",
"F c #E0F6C2",
"G c #E3FBC2",
"H c #E6FBC9",
/* pixels */
"111111111111111111www1111111111111$$$$$$$$$$$$$$$$$$$$$$$$111111",
"11111111111111111111w111111111111$$$$$$$$$$$$$$$$$$$$$$$$$111111",
"11111111111111111111111111111111$$$$$$$$$$$$$$$$$$$$$$$$11111111",
"11111111111111111111111111111111$$$$$$$$$$$$$$$$$$$$$$$$11111111",
"11111111111111111111111111111111$$$$$$$$$$$$$$$$$$$$$$$$11111111",
"1111111111111111111111111111111$$$$$$$$$$$$$$$$$$$$$$11111111111",
"111111111111111111111111111111$$###$$$$$$$$$$$$$$$$$$+$1$$$11111",
"1111111111111111111111111$$1##$$####$$#$$$$$$$$$$1+++OO+$OO1$$11",
"1111111111111111111111111##$###########$##$$$1$++++OOOOOOOOOO$+$",
"1111111111111111111111111##################$$++OOOOOOOOOOOOOOOO$",
"1$1111111111111111111$$$###################OOOOOOOOOOOOOOOOOOOOO",
"++++11111111111111111#####################@@OOOOOOOOOOOOOOOOOOOO",
"OOOO+$11111111111111$#@####################OOOOOOOOOOOOOOOOOOOOO",
"OOOOO$$11111111111$$##################### @OOOOOOOOOOOOOOOOOOOOO",
"OOOOOOO$1111111111$#####################@OOOOOOOOOOOOOOOOOOOOOOO",
"OOOOOOOO+111111111$#####################@OOO+$1$1O+$OOOOOOOOOOOO",
"OOOOOOOO$1111111$####################@#@OO++$1111$11OO$$OOOOOOOO",
"$+O$$$Oww1111111$########$1$$$$#@#######O$11111111111111$$+OOOOO",
"ww$wwwwww1111111$#@##@@$$$ww$ww$$$$$##$$$$1111111111111111$$$+$$",
"wwwwwwwwww11w1111$@$$$$111wwwwwww$$$@#1111111111111111111111$$ww",
"wwwwwwwwwwwww111$$$$www49981wwwwww11##11111111111111111111111www",
"wwwwwwwwwwwwwwww$$w$1w8hDDc0wwwwww1111111111111111111111111wwwww",
"wwwwwwwwwwwwwww1www++10CHGHp+wwwww111111111111111111111w11wwwwww",
"wwwwwwwwwwwwwwwwww4hc00ZDGC644ww111<<111111111111111111wwwwwwwww",
"wwwwwwwwwwwwwwwww1pFHVaCDFkhCc84ept8<<11111111111111111wwwwwwwww",
"wwwwwwwwwwwwwwwww$cHGGngzxnGHFegFGABy1111111111111111wwwwwwwwwww",
"wwwwwwwwwwwwwwwww1aZFDs&%>mGHVdDGSSGZ0<111111$11111111wwwwwwwwww",
"wwww111wwww1wwwwwwwpnmr&-qbnzegGSSSSGy<111111$11111111wwwwwwwwww",
"wwww111w11111wwwwwwcGSZi7knj5.cGSCSGV8<<<$$+$+$$1$111wwwwwwwwwww",
"1w11111111111111ww1hHGGkbGSCfovGBBSSpota9+$+$$$$$$$$1wwwwwwwwww1",
"1111111111111111w118cGVgSSSGZehGnSGkuNDGC9+$$$$$$$$$$$$$1wwwww11",
"111111111111111111w18aelGSSSSBjVkDngZGSSGh+$$+$$$$$$$$$$$ww11111",
"111111111111111111ww11.lGSSSCnr::,7nVZZZGh+$$+$$$$$$$$$$$$111111",
"1111111111111111111111#9MGSSGz&=-=*kDGGGDe+$$$$$$$$$$$$$$$111111",
"11111111111111111111111$4elnnr%=-=;jnnBVg3$$$$$$$$$$$$$$11111111",
"111111111111111111111111+aNBBk,&%*znkd23o$$++$$$$$$$$$$$11111111",
"11111111111111111111111#yGGSSGC7icCGGZl4$$$$$$$$$$$$$$$$11111111",
"11111111111111111111111$0ZGSSSZfCGCZZGGp+$+$$$$$$$$$$11111111111",
"111111111111111111111111+hGSSGB3vGZZZGDu+$+++$$$$$$$$+$1$$$11111",
"111111111111111111111111$ohFGGh 6CSZGDf3$$$$$+$$$1+++OO+$O+1$$11",
"1111111111111111111111111@ ecl3@ uVVne ##@$$$++++++OOOOOOOO+O$+$",
"11111111111111111111$1111#@   @#@ 33X @@##@#$++OOOOOOOOOOOOOOOO$",
"1$1111111111111$1111$$$$$@@@@@@@@@@@@@#@@@#OOOOOOOOOOOOOOOOOOOOO",
"OO++1111111111111111$##.@#######@######@##@ OOOOOOOOOOOOOOOOOOOO",
"OOOO+111111111111111$#@##@@@#@@@@@@@@#@@@#@OOOOOOOOOOOOOOOOOOOOO",
"OOOOO+$111111111111$#####@###@@@@@@@@@### @OOOOOOOOOOOOOOOOOOOOO",
"OOOOO+++1111111111$$##########@@#########OOOOOOOOOOOOOOOOOOOOOOO",
"OOOOOOOO+111111111$###########@#########@OOO+$$$1O++OOOOOOOOOOOO",
"OOOOOOOO$1111111$$$##################@@@ O++$1111$11OO+$OOOOOOOO",
"$OO$$+O$11111111$#@######$$$$$$#@####@#@O$111111111111111$+OOOOO",
"ww$wwwww11111111$####@#$$$ww$ww$$$$$##$$$$1111111111111111$$OO$$",
"wwwwwwwwww11w1111$#$$$$wwwwwwwwww1$$##1111111111111111111111$$ww",
"wwwwwwwwwwwww111$$$$wwwww88w888www11##11111111111111111111111www",
"wwwwwwwwwwwwwwww$$w$wwwwww88w88www1<11111111111111111111111wwwww",
"wwwwwwwwwwwwwwwwwwwwwwwwwwwwwwwwww1111111111111111111111w1wwwwww",
"wwwwwwwwwwwwwwwwwwwwwwwwwwwwwwwwww1111111111111111111<1wwwwwwwww",
"wwwwwwwwwwwwwwwwwwwwwwwwwwwwwwwww1111111111111111111111wwwwwwwww",
"wwwwwwwwwwwwwwwwwwwwwwwwwwwwwwww111111111111111111111wwwwwwwwwww",
"wwwwwwwwwwwwwwwwwwwwwwww88w8wwww111111111111111111111wwwwwwwwwww",
"wwww11wwww11wwwwwwwwwww1w8111ww11111111111111$11111111wwwwwwwwww",
"ww11111w1111wwwwwwwww111111111w11111111111$$1+$$1111wwwwwwwwwww1",
"1111111111111111wwwww11111111111111111111$$$$$$$$$$$11wwwwwwwww1",
"1111111111111111w11www1111111111111111111$$$$$$$$$$$$$$$1wwwww11",
"111111111111111111wwww11111111111111$1$$$$$$$$$$$$$$$$$$$ww11111"
};
