/* XPM */
static char *result[] = {
/* columns rows colors chars-per-pixel */
"64 64 212 2 ",
"   c None",
".  c #020201",
"X  c #060E05",
"o  c #190A08",
"O  c #061405",
"+  c #1E100F",
"@  c #1C1A1A",
"#  c #2B1814",
"$  c #0A2A07",
"%  c #102C0B",
"&  c #0A3408",
"*  c #153A0E",
"=  c #132211",
"-  c #1C3A18",
";  c #2D2D16",
":  c #272826",
">  c #362926",
",  c #312F31",
"<  c #373534",
"1  c #273126",
"2  c #581E07",
"3  c #523011",
"4  c #7B3716",
"5  c #6D320F",
"6  c #4D2F22",
"7  c #4E3F38",
"8  c #6A3921",
"9  c #603E2F",
"0  c #044501",
"q  c #064906",
"w  c #0A5703",
"e  c #1A4313",
"r  c #1D5C11",
"t  c #214919",
"y  c #0B6602",
"u  c #0A6603",
"i  c #146804",
"p  c #147505",
"a  c #137900",
"s  c #1E6A11",
"d  c #25651A",
"f  c #227313",
"g  c #2B4A25",
"h  c #294225",
"j  c #31442D",
"k  c #2E5F25",
"l  c #374534",
"z  c #3A4737",
"x  c #3C5B38",
"c  c #2A4531",
"v  c #346D29",
"b  c #5D4227",
"n  c #414F3F",
"m  c #5A453E",
"M  c #704030",
"N  c #764A26",
"B  c #436B3D",
"V  c #3D3740",
"C  c #424045",
"Z  c #574C4A",
"A  c #485847",
"S  c #414A50",
"D  c #575959",
"F  c #654B45",
"G  c #764F41",
"H  c #775948",
"J  c #785B53",
"K  c #695958",
"L  c #567151",
"P  c #4C674B",
"I  c #7D6759",
"U  c #6C6A6B",
"Y  c #6B6A6A",
"T  c #776966",
"R  c #6D6F74",
"E  c #767875",
"W  c #9C3300",
"Q  c #9C3A0D",
"!  c #873A15",
"~  c #9E3D10",
"^  c #8C3309",
"/  c #A33500",
"(  c #A93D02",
")  c #9C4002",
"_  c #985906",
"`  c #914B19",
"'  c #B6440B",
"]  c #A0500D",
"[  c #A94818",
"{  c #A75717",
"}  c #A44208",
"|  c #B96800",
" . c #BB7000",
".. c #AC6E09",
"X. c #964C26",
"o. c #855E2F",
"O. c #93522E",
"+. c #884621",
"@. c #A14F21",
"#. c #AC5222",
"$. c #C84C08",
"%. c #DA4D00",
"&. c #D34C00",
"*. c #C7510D",
"=. c #D75308",
"-. c #EE5906",
";. c #F45A02",
":. c #FE5D06",
">. c #E55611",
",. c #CD6901",
"<. c #C96009",
"1. c #D96E05",
"2. c #E76C00",
"3. c #FD6606",
"4. c #FD6A07",
"5. c #FC640A",
"6. c #FD6B09",
"7. c #F56807",
"8. c #EF7503",
"9. c #FD7506",
"0. c #F17D06",
"q. c #FC7C06",
"w. c #FF7409",
"e. c #F27F08",
"r. c #FC7D09",
"t. c #F4730A",
"y. c #8B704D",
"u. c #84685D",
"i. c #867E78",
"p. c #0F8205",
"a. c #168A00",
"s. c #1C8D05",
"d. c #1A8606",
"f. c #159301",
"g. c #1B9204",
"h. c #199E00",
"j. c #22940C",
"k. c #239A0B",
"l. c #268811",
"z. c #1AA501",
"x. c #1DAB01",
"c. c #17AC00",
"v. c #1EB300",
"b. c #22A705",
"n. c #22B303",
"m. c #23BA04",
"M. c #2DBE0A",
"N. c #27B40C",
"B. c #30BF0B",
"V. c #31A81A",
"C. c #348324",
"Z. c #3CB824",
"A. c #2DC309",
"S. c #27C307",
"D. c #31C20B",
"F. c #72D161",
"G. c #CE850F",
"H. c #E78800",
"J. c #F58503",
"K. c #FD8305",
"L. c #F78B05",
"P. c #FC8C04",
"I. c #F98E09",
"U. c #F3820A",
"Y. c #F49400",
"T. c #FD9402",
"R. c #FF9B01",
"E. c #FA9409",
"W. c #FF9E0A",
"Q. c #FB9E11",
"!. c #FFA201",
"~. c #FDA00D",
"^. c #F9A31A",
"/. c #EA8A2B",
"(. c #F8A929",
"). c #F9AD33",
"_. c #FBB63F",
"`. c #95847C",
"'. c #E79D5C",
"]. c #F8B54A",
"[. c #F4B955",
"{. c #85CC76",
"}. c #F8C05A",
"|. c #FAC46A",
" X c #FAC973",
".X c #858886",
"XX c #908F90",
"oX c #8F8D8F",
"OX c #96BC8C",
"+X c #9E9EA3",
"@X c #9194A2",
"#X c #9CA2A6",
"$X c #A5A7AA",
"%X c #AAAFB1",
"&X c #B4B3B8",
"*X c #E8BDA5",
"=X c #AFE3A1",
"-X c #B5E1AD",
";X c #F3CF91",
":X c #F8D698",
">X c #F6DCAF",
",X c #C5EFBC",
"<X c #C8F2BE",
"1X c #FAE3B8",
"2X c #F2DBCE",
"3X c #DAF4D3",
"4X c #D5F5CE",
"5X c #F1E0DD",
"6X c #EEF7DD",
"7X c #FEFFFE",
"8X c #F9FCF4",
"9X c #FAF6EB",
/* pixels */
"                                                                                                                                ",
"                                                                                                                                ",
"                                                                                                                                ",
"                                                                                                                                ",
"                                                                                                                                ",
"                                                                                                                                ",
"                                                          = % $ - E E                                                           ",
"                                                          e d.j.C.v t               O l XX                                      ",
"                                                          z y Z.6X<Xg.x           j a.f.p v :                                   ",
"                                                            h l.4X-Xx.w V         s v.v.v.m.y A                                 ",
"                                                              0 V.{.{.k.B       n f.v.x.n.A.A.a.P                               ",
"                                                              1 f 3X7XF.y &X    k x.x.x.m.M.D.S.w                               ",
"                                                                g OX7X,Xs.z     f v.x.b.M.D.S.f.L                               ",
"                                                                oXB 3X=Xn.0   A a.v.x.m.D.M.z.$                                 ",
"                                                                  < s N.v.g.D x h.x.x.M.A.c.d U                                 ",
"                                                                    A i b.n.e r n.x.n.M.m.i .X                                  ",
"                                                                    oXS 0 z.s.j.v.x.n.m.i :                                     ",
"                                                              J 4 ^ X.M o & p.v.n.x.x.p .     E . X   l A                       ",
"                                                            I ,.K.r.6.-.=.Q 3 q f.m.g.& * r d f l.j.k.g.p.g                     ",
"                                                          m | !.!.R.T.K.w.5.>.! ; u s.b.N.n.c.c.n.n.n.v.m.a.D                   ",
"                                                          _ !.R.R.R.R.!.R.K.7.5.>.5 % u g.z.v.v.v.n.n.v.v.n.y <                 ",
"                                                        y.Y.R.R.R.R.R.R.R.R.T.9.5.5.~ + c d y a a d.a.s.g.b.f.-                 ",
"                                                      . ..!.T.T.R.R.R.R.R.R.R.R.q.7.6.$.F @XE .XY l = O % * e g :               ",
"                                                      5 !.W.|. X~.R.R.R.R.R.R.R.R.J.3.3.$.J                                     ",
"                                                    i. .!.^.6X8X).T.R.R.R.R.R.R.R.R.q.5.4.W                                     ",
"                                                    o.Y.R.R.}.|.W.R.R.R.R.R.R.R.R.R.T.7.5.&.`.                                  ",
"                                                  # G.!.8.8.J.T.R.R.R.R.R.R.R.R.R.R.R.q.5.&.oX                                  ",
"                                                  3 T.R.E.e.0.0.J.R.R.R.R.E.E.R.R.R.R.t.5.} U                                   ",
"                                                +X..!.T.T.R.R.L.e.L.E.R.R.R.E.L.E.!.T.3.5.8                                     ",
"                                                b H.R.^.|.(.R.R.R.T.L.L.T.R.R.T.e.L.K.3.( E                                     ",
"                                              +X_ !.T. X7X;XT.R.R.R.R.T.T.R.R.R.E.t.7.-.3                                       ",
"                                              H H.!.T.).:X[.T.R.R.R.R.R.R.R.R.R.!.r.:.~ D                                       ",
"                                              +.R.R.T._.].T.R.R.R.R.R.R.R.R.R.R.T.6.=.F                                         ",
"                                            U | R.P._.7X9X(.T.R.R.E.E.T.R.R.R.R.r.5.4                                           ",
"                                            b H.T.2.'.5X1X~.R.R.R.R.R.L.L.R.!.P.6.( Z                                           ",
"                                          D { !.T.].2X*X/.J.R.R.R.R.R.R.L.U.L.w.=.6                                             ",
"                                          7 1.!.R.:X7X1XE.J.L.R.R.R.R.R.R.L.7.5.4                                               ",
"                                          N T.R.R.;X8X].T.R.R.R.R.R.R.R.R.T.4.W Y                                               ",
"                                        +X] R.R.R.Q.^.R.R.R.R.R.R.R.R.R.T.9.=.m                                                 ",
"                                        K ,.!.R.R.T.T.R.R.R.R.R.R.R.R.R.K.;.5                                                   ",
"                                        8 0.!.R.R.R.R.R.R.R.R.R.R.R.R.K.4.@.U                                                   ",
"                                      R { T.R.R.R.R.R.T.R.R.R.R.R.R.T.4./ ,                                                     ",
"                                      < <.R.R.R.R.R.R.E.I.T.R.R.R.T.9.*.#                                                       ",
"                                      G 2.R.T.R.R.R.R.R.E.U.L.R.R.q.%.9                                                         ",
"                                      +.P.T.U.J.E.R.R.R.R.E.e.J.K.-.2                                                           ",
"                                    C ) R.R.R.L.I.E.R.R.R.R.R.6.;.! #X                                                          ",
"                                    J 1.R.R.R.R.R.R.R.R.R.R.P.3.[ $X                                                            ",
"                                    4 r.R.R.R.R.R.R.R.R.R.P.6.^ <                                                               ",
"                                    [ K.R.R.R.R.R.R.R.!.P.4.#.R                                                                 ",
"                                  Z *.P.R.R.R.R.R.R.R.P.w.~ :                                                                   ",
"                                  u.%.T.R.R.R.R.R.R.T.w.[ @                                                                     ",
"                                  8 7.P.R.R.R.R.R.T.9./ o                                                                       ",
"                                &XO.:.q.R.R.R.R.T.9.' #                                                                         ",
"                                +XX.:.7.P.R.T.K.w./ Z                                                                           ",
"                                %XO.3.5.7.7.4.3.' .                                                                             ",
"                                  H %.6.5.5.;.#.>                                                                               ",
"                                  $X! &.%.*.8 XX                                                                                ",
"                                    .XT I >                                                                                     ",
"                                                                                                                                ",
"                                                                                                                                ",
"                                                                                                                                ",
"                                                                                                                                ",
"                                                                                                                                ",
"                                                                                                                                "
};
