/* XPM */
static char *result[] = {
/* columns rows colors chars-per-pixel */
"64 64 204 2 ",
"   c None",
".  c #040F02",
"X  c #19191A",
"o  c #3E1400",
"O  c #391714",
"+  c #0A3B01",
"@  c #053B07",
"#  c #15390D",
"$  c #17251B",
"%  c #0E2E0E",
"&  c #302F0D",
"*  c #3C2410",
"=  c #23381E",
"-  c #2C2024",
";  c #2D322C",
":  c #263523",
">  c #333433",
",  c #3A3839",
"<  c #441507",
"1  c #51260F",
"2  c #5F3A0F",
"3  c #4B2217",
"4  c #5D3514",
"5  c #5B2C16",
"6  c #663306",
"7  c #6B3213",
"8  c #763B18",
"9  c #76320A",
"0  c #41342F",
"q  c #463535",
"w  c #683B26",
"e  c #743E27",
"r  c #174C0C",
"t  c #12410B",
"y  c #0C5A01",
"u  c #065D07",
"i  c #1C4615",
"p  c #1F5E11",
"a  c #205D14",
"s  c #0D6B00",
"d  c #146D03",
"f  c #1F6F0E",
"g  c #0C7807",
"h  c #137202",
"j  c #147D02",
"k  c #167609",
"l  c #1E6C13",
"z  c #27681B",
"x  c #257416",
"c  c #284824",
"v  c #334F2D",
"b  c #2C5624",
"n  c #33582F",
"m  c #384735",
"M  c #375731",
"N  c #7B4614",
"B  c #7F4D31",
"V  c #724B2F",
"C  c #44693D",
"Z  c #333443",
"A  c #3F424A",
"S  c #4B4649",
"D  c #5A504E",
"F  c #575956",
"G  c #4D5E4A",
"H  c #6B534A",
"J  c #755649",
"K  c #675A55",
"L  c #745D57",
"P  c #6B4B44",
"I  c #556C50",
"U  c #5F6F5D",
"Y  c #686A68",
"T  c #716A69",
"R  c #6E7C6D",
"E  c #70766F",
"W  c #6B707C",
"Q  c #77797A",
"!  c #676E72",
"~  c #892E04",
"^  c #84390F",
"/  c #9B3201",
"(  c #963906",
")  c #853B18",
"_  c #A43804",
"`  c #97441A",
"'  c #924314",
"]  c #B64104",
"[  c #B64811",
"{  c #AA4A09",
"}  c #AC711E",
"|  c #BC6D02",
" . c #C54803",
".. c #CA570E",
"X. c #DB5002",
"o. c #D45409",
"O. c #D14F11",
"+. c #D24F08",
"@. c #EB5400",
"#. c #E65806",
"$. c #F35D03",
"%. c #FA5E04",
"&. c #F95F09",
"*. c #E85A12",
"=. c #D46602",
"-. c #CE7705",
";. c #E96705",
":. c #F46205",
">. c #FE6305",
",. c #FE6B06",
"<. c #F76309",
"1. c #FE6509",
"2. c #FE6A0A",
"3. c #F56908",
"4. c #EF7A04",
"5. c #ED7607",
"6. c #F57305",
"7. c #FD7506",
"8. c #FD7C05",
"9. c #FC7308",
"0. c #FD7C08",
"q. c #F17B03",
"w. c #FF6910",
"e. c #805F52",
"r. c #87704D",
"t. c #0E8E00",
"y. c #108300",
"u. c #168C03",
"i. c #1A8D03",
"p. c #198509",
"a. c #0A9000",
"s. c #159200",
"d. c #1A9502",
"f. c #1B9B01",
"g. c #179B00",
"h. c #299614",
"j. c #1DAB01",
"k. c #1BA301",
"l. c #1EB301",
"z. c #1DB800",
"x. c #21AE03",
"c. c #24A60B",
"v. c #22B304",
"b. c #23BA03",
"n. c #2EBE0A",
"m. c #2BB60F",
"M. c #3CBA25",
"N. c #49B530",
"B. c #2DC309",
"V. c #29C307",
"C. c #30C10B",
"Z. c #5A9E4B",
"A. c #5FB94C",
"S. c #749D6A",
"D. c #E98B03",
"F. c #F48405",
"G. c #FB8305",
"H. c #F78A05",
"J. c #FD8D05",
"K. c #F48308",
"L. c #F68A09",
"P. c #F88E0A",
"I. c #E89107",
"U. c #F39200",
"Y. c #FC9503",
"T. c #FF9B01",
"R. c #F89109",
"E. c #FA9B16",
"W. c #FFA201",
"Q. c #FDA10F",
"!. c #FAA41C",
"~. c #FBA315",
"^. c #FDA621",
"/. c #8D827F",
"(. c #91827C",
"). c #E28B58",
"_. c #F8B747",
"`. c #FABA53",
"'. c #EEA857",
"]. c #F9BE60",
"[. c #88D377",
"{. c #FBC15A",
"}. c #FBC569",
"|. c #F9CB79",
" X c #747983",
".X c #7A838C",
"XX c #8C8C8B",
"oX c #86868C",
"OX c #8B8B96",
"+X c #969498",
"@X c #958F96",
"#X c #8DB285",
"$X c #979BA3",
"%X c #A89BAB",
"&X c #A6A7AD",
"*X c #EBBCA7",
"=X c #96D789",
"-X c #BCE7B2",
";X c #FACC83",
":X c #F9D896",
">X c #F4D0B1",
",X c #F7E5B6",
"<X c #FDF0CF",
"1X c #FDFEFE",
/* pixels */
"                                                                                                                                ",
"                                                                                                                                ",
"                                                                                                                                ",
"                                                                                                                                ",
"                                                                                                                                ",
"                                                              XX                                                                ",
"                                                      , m M r = S                                                               ",
"                                                    c p.d.k.u.v                                                                 ",
"                                    .             Q y.z.l.x.y @X                                                                ",
"                                m f f.b           M k.j.l.s.b                                                                   ",
"                            %Xi f.B.V.y.F         x j.j.x.y Y                                                                   ",
"                          oXa j.B.C.n.v.y +X    F j l.x.d.c                                                                     ",
"                          i g.l.v.n.C.B.s.I     m s.l.l.d Y                                                                     ",
"                        X h b.j.j.v.n.C.b.l     t j.l.k.r                                                                       ",
"                          C f.l.j.j.v.n.B.t.G %Xx l.v.h F                                                                       ",
"                            # s.l.j.j.x.n.b.z ; i.b.i.c OX                                                                      ",
"                              I g l.j.j.x.b.d.+ f.d.% Z J 6 9 w $X                                                              ",
"                                R k j.j.j.j.x.c.u.% O ` X.2.2.#.) +X                                                            ",
"                                  Y z g.j.j.v.p.% ^ *.1.1.&.%.1.%.^ oX                                                          ",
"                        @XF >     > ; r c.v.g & [ w.1.3.9.G.G.6.1.$.8 Q                                                         ",
"                  XX+ z x h j j p.u.i.h.c.u * O.1.3.G.Y.T.T.W.T.0.2.@.o                                                         ",
"                  b A.M.M.[.=X[.m.z.l.u.@ 1 *.1.7.Y.T.T.T.T.T.T.T.8.%.+.P                                                       ",
"                U Z.1X-X=X1X1X1XN.a.z $ < *.,.0.T.T.T.T.T.T.T.T.Y.4.;.1._ >                                                     ",
"                z M.-X[.N.#X#XS.z n  XP o.,.J.T.T.T.T.T.T.T.Y.L.K.Y.T.7.1.` Q                                                   ",
"              E s s.h d p # : ; F   Q { ,.J.W.T.T.T.T.T.T.T.R.Y.T.T.T.Y.9.@.5                                                   ",
"              $ i v Y X @X          e <.J.T.T.T.T.T.T.T.T.Y.T.T.T.T.T.T.J.2. .K                                                 ",
"                                    ` 8.T.T.T.T.T.T.T.T.T.T.T.T.T.T.T.T.T.G.1.~                                                 ",
"                                    7 J.T.T.T.T.Y.T.T.T.T.T.Y.Y.T.T.T.T.T.H.:.@.w                                               ",
"                                    D | W.T.T.T.Q.T.T.T.T.J.H.Y.T.T.T.T.L.K.F.,.] S                                             ",
"                                      B U.T.Y.`.<X].Y.T.H.K.Y.T.T.T.Y.L.Y.T.W.J.>.^ &X                                          ",
"                                      +X} W.Y.|.1X;XY.F.4.Y.T.T.T.Y.Y.T.T.T.T.T.0.X.J                                           ",
"                                        T -.W.~._.!.q.5.T.T.T.T.T.T.T.T.T.T.T.T.Y.,.( oX                                        ",
"                                          V I.W.Y.4.;.Y.T.Y.T.T.T.T.T.T.T.T.T.T.T.G.#.w                                         ",
"                                            r.I.T.4.Y.T.^.{.!.Y.T.T.T.T.T.T.T.T.T.T.7.] T                                       ",
"                                              2 D.W.T.Y.;X1X|.Y.Y.T.T.Y.Y.T.T.T.T.T.J.:.7                                       ",
"                                                2 I.W.Y.`.>X`.;X:XQ.H.P.T.T.T.T.T.T.T.G. .0                                     ",
"                                                 X6 U.W.Y.Y.!.1X1X'.q.T.T.T.T.T.T.T.W.J.%.'                                     ",
"                                                  $XN U.W.Y.T.:X>X*X}.Y.T.T.T.T.T.T.H.5.,. ./.                                  ",
"                                                    OX6 D.W.T.5.).1X1X_.Y.T.T.T.Y.F.K.Y.J.$.e                                   ",
"                                                      W 8 U.T.6.E.,X1X}.Y.T.T.Y.L.J.T.T.T.8./ Q                                 ",
"                                                        $X6 D.W.T.!._.E.T.T.T.Y.Y.T.T.T.T.Y.:.w                                 ",
"                                                           X4 D.W.T.Y.T.T.T.T.T.T.T.T.T.T.T.8._                                 ",
"                                                              < -.T.T.T.T.T.T.T.T.T.T.T.T.T.J.#.J                               ",
"                                                                J =.W.T.T.T.T.T.T.R.Y.T.T.T.T.0.~ A                             ",
"                                                                  L { Y.W.T.T.T.L.P.T.T.T.T.T.J.X.e.                            ",
"                                                                    - ' G.W.T.K.K.T.T.T.T.T.T.T.7.`                             ",
"                                                                      ! B =.Y.J.Y.T.T.T.T.T.T.T.G. .H                           ",
"                                                                        .X3 ..Y.T.T.T.T.T.T.T.T.J.$.B                           ",
"                                                                            q ( 8.T.T.T.T.T.T.T.J.2.( !                         ",
"                                                                              , ) ;.Y.T.T.T.T.W.J.2. .(.                        ",
"                                                                                  3 ..8.J.T.T.Y.6.1.#.V                         ",
"                                                                                    L / <.7.9.3.<.1.X.H                         ",
"                                                                                      , 8  .>.1.1.,./ XX                        ",
"                                                                                          K ) [ ..( H                           ",
"                                                                                              F ,                               ",
"                                                                                                                                ",
"                                                                                                                                ",
"                                                                                                                                ",
"                                                                                                                                ",
"                                                                                                                                ",
"                                                                                                                                ",
"                                                                                                                                ",
"                                                                                                                                ",
"                                                                                                                                "
};
