/* XPM */
static char *result[] = {
/* columns rows colors chars-per-pixel */
"64 64 215 2 ",
"   c None",
".  c #000100",
"X  c #0B0908",
"o  c #0A0907",
"O  c #171816",
"+  c #0E140B",
"@  c #053803",
"#  c #1B2C17",
"$  c #1B3A15",
"%  c #0F3507",
"&  c #373E10",
"*  c #28242A",
"=  c #2A3627",
"-  c #3A3B3A",
";  c #441C0A",
":  c #5E311B",
">  c #65280A",
",  c #6D310F",
"<  c #7F300F",
"1  c #7A3A15",
"2  c #7C3513",
"3  c #653D14",
"4  c #432E2A",
"5  c #583724",
"6  c #483127",
"7  c #673E29",
"8  c #0B5501",
"9  c #115E03",
"0  c #15550C",
"q  c #164F10",
"w  c #1D5913",
"e  c #0A4B05",
"r  c #234A18",
"t  c #24591A",
"y  c #066A02",
"u  c #0C7404",
"i  c #177905",
"p  c #1F6718",
"a  c #217D0F",
"s  c #277319",
"d  c #236916",
"f  c #294B24",
"g  c #2F452C",
"h  c #384635",
"j  c #3E5B38",
"k  c #295221",
"l  c #2A6221",
"z  c #54453E",
"x  c #684A29",
"c  c #68493B",
"v  c #744731",
"b  c #3F414C",
"n  c #434444",
"m  c #4D484D",
"M  c #5C4B44",
"N  c #49584A",
"B  c #524F52",
"V  c #545256",
"C  c #6F534E",
"Z  c #7B5949",
"A  c #635C5A",
"S  c #745A55",
"D  c #576156",
"F  c #597955",
"G  c #4F694A",
"H  c #6E635F",
"J  c #5F5B63",
"K  c #5E6F60",
"L  c #646864",
"P  c #6A6C73",
"I  c #797878",
"U  c #786D70",
"Y  c #872C08",
"T  c #983808",
"R  c #863E14",
"E  c #A43F13",
"W  c #89431D",
"Q  c #9B451C",
"!  c #935A17",
"~  c #AB440F",
"^  c #AF4207",
"/  c #BD400E",
"(  c #AB4A16",
")  c #BF5019",
"_  c #B3540F",
"`  c #9B6619",
"'  c #A46419",
"]  c #9A4A22",
"[  c #954E2C",
"{  c #A45327",
"}  c #88632F",
"|  c #CB4B03",
" . c #C74706",
".. c #C95D02",
"X. c #D75405",
"o. c #C04F12",
"O. c #C75416",
"+. c #E75504",
"@. c #FC5F02",
"#. c #F35B0B",
"$. c #F75C05",
"%. c #E15212",
"&. c #C46604",
"*. c #D16000",
"=. c #D27A01",
"-. c #C37706",
";. c #FD6404",
":. c #FE6A04",
">. c #FE650A",
",. c #FE6A0A",
"<. c #F76909",
"1. c #EC7E04",
"2. c #ED7205",
"3. c #FE7304",
"4. c #F27E05",
"5. c #FE7B05",
"6. c #FC7309",
"7. c #FA7C09",
"8. c #F37308",
"9. c #FF6B10",
"0. c #FD6011",
"q. c #FF7210",
"w. c #E96502",
"e. c #89776D",
"r. c #0D8A00",
"t. c #0D8604",
"y. c #128200",
"u. c #1A8B03",
"i. c #1D890A",
"p. c #178903",
"a. c #179200",
"s. c #149A02",
"d. c #1A9A00",
"f. c #1D9606",
"g. c #22880E",
"h. c #24960C",
"j. c #279011",
"k. c #16A100",
"l. c #19A200",
"z. c #1DAB01",
"x. c #17A800",
"c. c #1EB300",
"v. c #1AB900",
"b. c #21AD03",
"n. c #21A706",
"m. c #21B203",
"M. c #26BD06",
"N. c #2DBD0B",
"B. c #28B707",
"V. c #2DAE16",
"C. c #4AB832",
"Z. c #48A035",
"A. c #2BC208",
"S. c #30C40B",
"D. c #6AA45D",
"F. c #778574",
"G. c #5BCA48",
"H. c #72C95E",
"J. c #DD8000",
"K. c #CD8210",
"L. c #E88D08",
"P. c #F38403",
"I. c #FD8404",
"U. c #F58905",
"Y. c #FB8D03",
"T. c #F98F0C",
"R. c #F78509",
"E. c #FC9403",
"W. c #FF9B01",
"Q. c #FB9308",
"!. c #FE9D0A",
"~. c #F59905",
"^. c #FC9F11",
"/. c #ED9005",
"(. c #FFA101",
"). c #FEA00F",
"_. c #FAA218",
"`. c #D18A24",
"'. c #EA9936",
"]. c #F7A426",
"[. c #FAAE36",
"{. c #F9B13C",
"}. c #94887D",
"|. c #A58F7C",
" X c #E4955F",
".X c #FBBA51",
"XX c #83CD73",
"oX c #8EDA7D",
"OX c #FAC66C",
"+X c #F8C569",
"@X c #FAC976",
"#X c #888588",
"$X c #878491",
"%X c #9B999D",
"&X c #94959A",
"*X c #978D8D",
"=X c #979BA5",
"-X c #A39AA5",
";X c #9EA3A9",
":X c #AEADAE",
">X c #E1BCA9",
",X c #A8E39D",
"<X c #F8C882",
"1X c #F8DDAB",
"2X c #EFCAAC",
"3X c #B5BDC6",
"4X c #B9C1C8",
"5X c #C9D2D9",
"6X c #EED8CF",
"7X c #D1E9CC",
"8X c #FEF2D2",
"9X c #D5DEE5",
"0X c #FDFFFE",
"qX c #F8FEF5",
"wX c #F9F3E2",
/* pixels */
"                                                                                                                                ",
"                                                                                                                                ",
"                                                                                                                                ",
"                                                                                                                                ",
"                                                n h F $ r N                                                                     ",
"                                            L f a d.l.B.c.8 *                                                                   ",
"                                            w l.c.M.S.S.A.i .             -                                                     ",
"                                            s c.z.b.N.S.M.g.+         &Xw g.s $ h N                                             ",
"                                            f s.z.z.B.S.M.j.o       %Xd k.c.z.b.u.@ I                                           ",
"                                            #Xu c.z.b.N.M.h..     -Xq x.c.z.m.l.9 N                                             ",
"                                              l x.z.z.N.A.h.      w s.c.z.m.a.0 n                                               ",
"                              = @ g #X        F.r.c.z.B.A.i.    % k.c.z.b.y.$ #X                                                ",
"                            f D.H.a.y t -       p z.z.b.M.i.m N f.m.c.z.i #                                                     ",
"                        *Xq h.qX0XC.G.C.u w = $XD a.c.z.c.g.# u.v.m.d.8 D                                                       ",
"                      %X% y.n.XXXXoX0XqX,XV.r.s = 0 m.z.c.h.u.z.f.9 j -                                                         ",
"                        L j t 9 y Z.7X0X0XC.v.c.u.g.m.z.s.t.u @ + b =X                                                          ",
"                              L L j k F D.u.y.p.i.y e r & 3 R Y Y ( { , M                                                       ",
"                                      . # G K N + ; Y E %.0.>.>.>.@.;.9. .c                                                     ",
"                                            J [ o.#.,.:.3.6.5.7.7.6.<.$.,.^ A                                                   ",
"                                          4 T @.3.5.I.Y.W.W.W.W.W.W.Y.8.>.+.c                                                   ",
"                                        B T 3.I.E.W.(.W.W.W.W.W.W.W.W.E.<.>.1                                                   ",
"                                        *X*.W.W.W.W.W.W.W.W.W.W.W.W.W.W.I.;.(                                                   ",
"                                        }.=.(.W.W.W.W.W.W.W.W.W.W.W.W.(.E.,.| H                                                 ",
"                                        e.=.(.W.W.W.W.W.W.W.W.W.E.E.Q.U.4.<.X.6                                                 ",
"                                          L.(.W.E.E.W.W.W.W.W.E.Q.Q.E.Y.Q.6.#.:                                                 ",
"                                        :X`.W.!.@XOX!.W.W.W.W.W.W.W.W.W.(.Y.;.[                                                 ",
"                                          ` W.].0X0X_.E.W.W.W.E.E.W.W.W.W.E.:.~ *                                               ",
"                                          } W.!.OX+X(.W.Q.P.U.T.E.W.W.W.W.E.3.O.                                                ",
"                                          |.J.(.E.I.4.4.P.U.Q.W.W.W.W.W.W.W.5.X.M                                               ",
"                                          I K.W.2.2.P.Y.W.W.W.W.W.W.W.W.W.!.I.| e.                                              ",
"                                            ! W.U.W.W.E.W.W.W.W.W.W.E.P.P.R.6.+.5                                               ",
"                                            5 /.(.W.]..X^.W.W.W.W.W.E.E.Y.E.5.,.>                                               ",
"                                            I -.(.E.1X0XOXE.W.W.W.W.W.W.W.(.Y.,.1                                               ",
"                                              ! (.W.+X1X[.E.W.W.W.W.W.W.W.W.E.;.]                                               ",
"                                              x ~.W.E._.<XOXW.W.W.W.W.W.W.W.E.;.] 9X                                            ",
"                                              A =.(.E.{.0X0X].Y.U.E.W.W.W.W.E.:.Q ;X                                            ",
"                                              P ' (.E.].2X>X'.P.Q.W.W.W.W.W.W.3.E V                                             ",
"                                                x /.E.w. X6X<XW.W.W.W.W.W.W.W.5.~ O                                             ",
"                                                A &.W.P.@X0X8X).E.W.W.W.W.W.W.5.( o                                             ",
"                                                  ! W.W.[.wX1X!.W.W.W.W.W.W.W.I.) o                                             ",
"                                                  Z 1.(.W._.).W.W.W.W.W.W.W.W.5.O.X                                             ",
"                                                  V _ (.W.E.W.W.W.W.W.Q.P.1.8.:.O.X                                             ",
"                                                    7 P.(.W.W.W.W.E.Q.Q.Y.Y.Q.5.o.X                                             ",
"                                                    U &.(.W.W.W.W.W.W.W.W.W.!.5.~                                               ",
"                                                      W Y.W.W.W.W.W.W.W.W.W.!.5.T &X                                            ",
"                                                      S ..(.W.W.W.W.E.W.W.W.W.5.T &X                                            ",
"                                                      3X1 Y.(.Y.R.T.Q.W.W.W.W.3.Q                                               ",
"                                                        4 ..W.4.U.W.W.W.W.W.W.3.Q 4X                                            ",
"                                                          R I.W.W.W.W.W.W.W.W.3.] 5X                                            ",
"                                                          C ..W.W.W.W.W.W.W.W.3.Q 9X                                            ",
"                                                          =X2 Y.W.W.W.W.W.W.W.:.]                                               ",
"                                                            S X.W.W.W.W.W.W.E.:.W                                               ",
"                                                            =XT I.W.W.W.W.W.E.6.2                                               ",
"                                                              Z X.Y.W.W.W.W.I.9.>                                               ",
"                                                              $X< :.Y.W.W.E.6.+.c                                               ",
"                                                                z | ,.6.7.<.>.| e.                                              ",
"                                                                  v $.>.#.>.:.T                                                 ",
"                                                                  %X> +.>.;.X.c                                                 ",
"                                                                    I : ( ~ 7                                                   ",
"                                                                      P M z                                                     ",
"                                                                                                                                ",
"                                                                                                                                ",
"                                                                                                                                ",
"                                                                                                                                "
};
