/* XPM */
static char *result[] = {
/* columns rows colors chars-per-pixel */
"64 64 208 2 ",
"   c None",
".  c #060508",
"X  c #050604",
"o  c #160706",
"O  c #081706",
"+  c #10110A",
"@  c #161515",
"#  c #2E160D",
"$  c #381100",
"%  c #281B16",
"&  c #351C14",
"*  c #063405",
"=  c #14340F",
"-  c #193A0D",
";  c #1C2D1A",
":  c #3D2F13",
">  c #131721",
",  c #221925",
"<  c #2D2124",
"1  c #252829",
"2  c #362120",
"3  c #273825",
"4  c #382F30",
"5  c #3C3231",
"6  c #410900",
"7  c #481902",
"8  c #511F04",
"9  c #43200E",
"0  c #4D2715",
"q  c #532716",
"w  c #532A0A",
"e  c #642408",
"r  c #6A2A0C",
"t  c #703D0C",
"y  c #6D391F",
"u  c #7C3A1C",
"i  c #793514",
"p  c #6C3A01",
"a  c #442F2D",
"s  c #45352E",
"d  c #4D3830",
"f  c #5C3B30",
"g  c #6F3D27",
"h  c #14460B",
"j  c #145908",
"k  c #1D4A14",
"l  c #1D5C12",
"z  c #1F5316",
"x  c #084806",
"c  c #225B16",
"v  c #24491E",
"b  c #0C6308",
"n  c #146904",
"m  c #1C6D0C",
"M  c #146804",
"N  c #187707",
"B  c #1F7410",
"V  c #207A0D",
"C  c #246718",
"Z  c #257B15",
"A  c #284222",
"S  c #364B32",
"D  c #374335",
"F  c #2D5B25",
"G  c #2C7420",
"H  c #4E433F",
"J  c #5A453E",
"K  c #794B2C",
"L  c #3F3941",
"P  c #3F4249",
"I  c #434443",
"U  c #4A4749",
"Y  c #435040",
"T  c #494C54",
"R  c #4A5E50",
"E  c #5A5258",
"W  c #6F5852",
"Q  c #596458",
"!  c #6A615E",
"~  c #756A67",
"^  c #726E74",
"/  c #78767A",
"(  c #667263",
")  c #89350A",
"_  c #8B3B0F",
"`  c #9A3708",
"'  c #963B12",
"]  c #873917",
"[  c #B23D00",
"{  c #87401E",
"}  c #B5480B",
"|  c #B55A00",
" . c #B75203",
".. c #B94D12",
"X. c #BF5212",
"o. c #A5460C",
"O. c #B36908",
"+. c #A6640F",
"@. c #974820",
"#. c #A35228",
"$. c #9B6823",
"%. c #C64C0A",
"&. c #D44D01",
"*. c #CD520E",
"=. c #D9550B",
"-. c #C34D13",
";. c #CD5211",
":. c #C65813",
">. c #DC5A13",
",. c #E65909",
"<. c #F15D0A",
"1. c #F55B05",
"2. c #E05D11",
"3. c #C87A05",
"4. c #EC6704",
"5. c #E56809",
"6. c #FF6407",
"7. c #FD6B07",
"8. c #FE640A",
"9. c #FE6A09",
"0. c #F66E06",
"q. c #EE7404",
"w. c #E9730C",
"e. c #F17503",
"r. c #FE7307",
"t. c #FD7C06",
"y. c #FD7309",
"u. c #F37D08",
"i. c #FD7B09",
"p. c #F27905",
"a. c #80664B",
"s. c #92786F",
"d. c #198107",
"f. c #1B8C05",
"g. c #168604",
"h. c #199901",
"j. c #1A9406",
"k. c #25960C",
"l. c #14A400",
"z. c #1DAC01",
"x. c #1DA704",
"c. c #1DB301",
"v. c #17B500",
"b. c #21AD03",
"n. c #20AF08",
"m. c #21B504",
"M. c #24BC04",
"N. c #2DBC0A",
"B. c #28B809",
"V. c #35B41C",
"C. c #4CB636",
"Z. c #31C20B",
"A. c #30C80A",
"S. c #28C005",
"D. c #3DC022",
"F. c #54C33D",
"G. c #60AD4E",
"H. c #6BBC57",
"J. c #7E837D",
"K. c #6FCE5C",
"L. c #7ECD6D",
"P. c #DA8606",
"I. c #F48306",
"U. c #FD8506",
"Y. c #F68B06",
"T. c #FC8D04",
"R. c #F6890B",
"E. c #F68608",
"W. c #EB9307",
"Q. c #FD9403",
"!. c #FF9B01",
"~. c #FC9408",
"^. c #FB9D0A",
"/. c #F29504",
"(. c #F99C15",
"). c #EE8619",
"_. c #FFA202",
"`. c #FDA00E",
"'. c #FBA215",
"]. c #FAA31B",
"[. c #FBA718",
"{. c #F6A82A",
"}. c #F8AF3D",
"|. c #85A47A",
" X c #F8B444",
".X c #DB9676",
"XX c #F6BA61",
"oX c #EAAE77",
"OX c #86D375",
"+X c #F9C877",
"@X c #F6C164",
"#X c #7F8085",
"$X c #8A878A",
"%X c #989499",
"&X c #9CBA95",
"*X c #94D886",
"=X c #98CA8C",
"-X c #BEE8B6",
";X c #F9DE9E",
":X c #F7DDA3",
">X c #FAE7BC",
",X c #C3BDC3",
"<X c #DDD6DF",
"1X c #EEDCD9",
"2X c #FAEBCB",
"3X c #F8F8E9",
"4X c #FDFFFE",
"5X c #F6F4F7",
/* pixels */
"                                                                                                                                ",
"                                                                                                                                ",
"                                                                                                                                ",
"                                                                                                                                ",
"                                                                                                                                ",
"                                                                                                                                ",
"                                                                                                                                ",
"                                                                                                                                ",
"                                                                                                                                ",
"                                                                            D O                                                 ",
"                                                                            Q M M A                                             ",
"                                                                              N D.G.F Q                                         ",
"                                                                            X b =X4XL.l                                         ",
"                                                                            I j H.-XF.B ,X                                      ",
"                                                                              c C.*XV.m /                                       ",
"                                                                              * =X4XOXM ^         U Y $X                        ",
"                                                                              X &X4X*Xn %X      O Z h.C $X                      ",
"                                                                              D |.3XK.m <X    X N c.c.l.l $X                    ",
"                                                                              J.m C.n.G     O N m.z.x.m.l.-                     ",
"                                                                        %       h l.c.l   @ V m.z.x.b.N.A.N /                   ",
"                                                                    % t :...$ T R g.M.c , n m.z.x.b.N.Z.A.b.v                   ",
"                                                                s $.P.!.!.i.<.#.< x n.z C m.z.x.b.N.Z.N.S.v.C                   ",
"                                                              K 3._._.!.!.!.t.8.` + N k.x.z.x.n.N.Z.N.M.h.j Q                   ",
"                                                          ! $.W._.!.!.!.!.!.!.t.8.' h x.c.x.b.N.M.z.f.j S E                     ",
"                                                        o O._.!.'.].!.!.!.!.!.!.r.8.i b z.z.m.b.d.z ;                           ",
"                                                      a.3._.!.].2X2X].Q.!.!.!.!.T.9.2.: d.b.n ; U                               ",
"                                                    w W._.I.p.[.2X2X'.Q.!.!.!.!.!.t.8.-.- j.d.k 3                               ",
"                                                P p /._.!.T.4.T.[.'.!.!.!.!.!.!.!.Q.9.8.r * m.m.h.d.l S L                       ",
"                                              U $.Q._.Q.Q.!.T.e.T.!.!.!.!.!.!.!.!.!.i.8.;.o j n.m.v.c.h.m h 3                   ",
"                                            o +._.!.!.XX+X`.!.T.p.Q.!.!.!.!.!.!.!.!.T.8.8.u > j x.c.z.b.c.z.j.A                 ",
"                                          o O._.!.Q.^.3X4X{.Q.!.Y.I.!.!.!.!.!.!.!.!.!.0.6.-.E 1 j f.b.z.z.z.v.Z                 ",
"                                        W | _.Q.!.^.{.@X+X(.!.!.!.Y.Y.!.!.Q.!.!.!.!.!.t.6.&.s.    S j k.b.z.c.f.                ",
"                                      a | _.!.4.).>X3X}.T.!.!.!.!.!.~.!.!.Q.T.!.!.!.!.t.6.,.f       . = m j.c.g.(               ",
"                                    W | !.!.!.XX.X1X4X XQ.!.!.!.!.!.!.Q.!.!.Y.~.!.!.Q.9.9.&.J           . = N g.3               ",
"                                  a  ._.!.!.+X4X5XoX}.!.!.!.!.Q.!.!.!.!.!.!.Q.u.!.!.y.8.<.u                 I k O               ",
"                                2  .!.!.!.!.:X4X;X(.e.Q.!.!.!.Q.Q.!.!.!.!.!.!.E.u.y.8.,.7                                       ",
"                              . o.Q.!.!.!.!.]. X^.!.~.T.!.!.!.!.~.Q.!.!.!.!.!.I.1.6.*.0                                         ",
"                            / ) ~.!.!.!.!.!.Q.Q.!.!.!.Q.!.!.!.!.~.Y.!.!.!.!.t.6.1.` ~                                           ",
"                          #X@.I._.!.!.!.!.!.!.!.!.!.!.!.!.!.!.!.!.I.~.!.U.y.6.;.r .                                             ",
"                          e q.!.Y.!.!.!.!.!.!.!.!.!.!.!.!.!.!.!._.T.e.i.9.<._ !                                                 ",
"                        6 w._.!.u.E.!.!.!.Q.~.!.!.!.!.!.!.!.!.!.!.U.6.<.} 0 T                                                   ",
"                      q 5.!.!.!.!.R.~.!.!.!.R.~.!.!.!.!.!.!.!.T.r.1.%.g U                                                       ",
"                    W 2.Q.!.!.!.!.!.~.!.!.!.Q.I.!.!.!.!.!.T.t.9.*.u H                                                           ",
"                  U [ U.!.!.!.!.!.!.!.!.!.!.!.I.Y._.!.T.i.9.=.e <                                                               ",
"                  ` y.Q.!.!.!.!.!.!.!.!.!.!._.~.q.U.t.9.*.i &                                                                   ",
"                y 1.t.!.!.!.!.!.!.!.!.!.!.!.Q.U.9.<.-.u %                                                                       ",
"              ^ } 6.t.!.!.!.!.!.!.!.!.!.T.t.9.>.' q 4                                                                           ",
"              9 <.6.i.!.!.!.!.!.!.Q.U.r.,...{ #                                                                                 ",
"              7 8.6.8.t.Q.Q.T.U.t.7.%.] f U                                                                                     ",
"              d =.7.8.8.7.7.8.=.o.K 5                                                                                           ",
"                7 X.,.2...) y s                                                                                                 ",
"                  & 8 8 # 1                                                                                                     ",
"                                                                                                                                ",
"                                                                                                                                ",
"                                                                                                                                ",
"                                                                                                                                ",
"                                                                                                                                ",
"                                                                                                                                ",
"                                                                                                                                ",
"                                                                                                                                ",
"                                                                                                                                ",
"                                                                                                                                ",
"                                                                                                                                ",
"                                                                                                                                "
};
