/* XPM */
static char *result[] = {
/* columns rows colors chars-per-pixel */
"64 64 247 2 ",
"   c #0A0A12",
".  c #0E0F18",
"X  c #0F101A",
"o  c #13131D",
"O  c #161722",
"+  c #171824",
"@  c #1A1B25",
"#  c #171A29",
"$  c #1C1D2A",
"%  c #141B31",
"&  c #1C1F31",
"*  c #1E202B",
"=  c #1D2233",
"-  c #1B2138",
";  c #22232D",
":  c #252631",
">  c #272833",
",  c #2A2A35",
"<  c #262639",
"1  c #272B3C",
"2  c #2D2E39",
"3  c #322A3E",
"4  c #27303E",
"5  c #2F303C",
"6  c #343437",
"7  c #31323D",
"8  c #151C43",
"9  c #1C2549",
"0  c #1F2E58",
"q  c #262D43",
"w  c #332E44",
"e  c #2D3344",
"r  c #2B354C",
"t  c #343542",
"y  c #363844",
"u  c #393A46",
"i  c #3A3549",
"p  c #333B4B",
"a  c #3B3D4A",
"s  c #273757",
"d  c #333E54",
"f  c #1A2E71",
"g  c #24396C",
"h  c #403B4E",
"j  c #453B54",
"k  c #3E414D",
"l  c #2D4056",
"z  c #3A4555",
"x  c #3B4A5C",
"c  c #2E4466",
"v  c #384C64",
"b  c #3A556A",
"n  c #2B4676",
"m  c #2F5075",
"M  c #385875",
"N  c #39657A",
"B  c #41434E",
"V  c #434552",
"C  c #464955",
"Z  c #494B56",
"A  c #4A445A",
"S  c #464B5A",
"D  c #4B4D5A",
"F  c #51475F",
"G  c #45505E",
"H  c #4E515D",
"J  c #505057",
"K  c #52535E",
"L  c #574966",
"P  c #475367",
"I  c #4D5361",
"U  c #485968",
"Y  c #535562",
"T  c #565965",
"R  c #5A5C66",
"E  c #59546C",
"W  c #555C69",
"Q  c #5B5D6A",
"!  c #635073",
"~  c #665675",
"^  c #55616D",
"/  c #5E616D",
"(  c #4C6373",
")  c #4E6973",
"_  c #48687A",
"`  c #5D6371",
"'  c #546977",
"]  c #5C6C75",
"[  c #5A737D",
"{  c #62646E",
"}  c #626573",
"|  c #656975",
" . c #696B75",
".. c #6B667F",
"X. c #656C7A",
"o. c #6B6E7B",
"O. c #64737C",
"+. c #6E717D",
"@. c #72747D",
"#. c #1D358B",
"$. c #213E8C",
"%. c #284887",
"&. c #2F558E",
"*. c #3B6C8F",
"=. c #2E5EB9",
"-. c #346DB7",
";. c #486C84",
":. c #4C7588",
">. c #587985",
",. c #56738C",
"<. c #4A7995",
"1. c #6D7482",
"2. c #667A85",
"3. c #6C7C88",
"4. c #727583",
"5. c #747986",
"6. c #797A86",
"7. c #747C8A",
"8. c #7B7E8C",
"9. c #747B93",
"0. c #437DA3",
"q. c #3069C0",
"w. c #3F98A4",
"e. c #4F828E",
"r. c #58838D",
"t. c #42899A",
"y. c #588994",
"u. c #40919E",
"i. c #56919A",
"p. c #64838C",
"a. c #6B828C",
"s. c #73818D",
"d. c #7D808D",
"f. c #658895",
"g. c #6B8B94",
"h. c #7D8291",
"j. c #748995",
"k. c #798A96",
"l. c #67939C",
"z. c #74939C",
"x. c #7C939E",
"c. c #4984A4",
"v. c #578CA9",
"b. c #4C95AF",
"n. c #559DA7",
"m. c #468EB6",
"M. c #6999A6",
"N. c #6F95AD",
"B. c #7B95A2",
"V. c #7A9AA5",
"C. c #52AAB4",
"Z. c #56A9B6",
"A. c #78A4AD",
"S. c #6AACB3",
"D. c #7AA8B8",
"F. c #358EC8",
"G. c #3B93E8",
"H. c #4BADD0",
"J. c #72ADC5",
"K. c #68B9C3",
"L. c #7CBFE2",
"P. c #58C9CF",
"I. c #6CCBD0",
"U. c #5DDDE2",
"Y. c #71DFE7",
"T. c #56E7EE",
"R. c #59F7FE",
"E. c #71E8EC",
"W. c #83848B",
"Q. c #828593",
"!. c #858994",
"~. c #898C96",
"^. c #868A9A",
"/. c #8A8D9B",
"(. c #83939C",
"). c #8D919D",
"_. c #92949C",
"`. c #8E92A1",
"'. c #8B9BA5",
"]. c #869AA9",
"[. c #9295A4",
"{. c #9599A5",
"}. c #999BA6",
"|. c #969AA9",
" X c #9A9DAC",
".X c #88A4AD",
"XX c #9DA2AC",
"oX c #86A9B6",
"OX c #9DA2B1",
"+X c #95A9B4",
"@X c #8AB3BC",
"#X c #98B2BC",
"$X c #A2A5B4",
"%X c #A7A8B1",
"&X c #A4A9B5",
"*X c #A5A8B7",
"=X c #A5AABA",
"-X c #A9ADBC",
";X c #A7B2BD",
":X c #83ABC2",
">X c #87B9C9",
",X c #96B8C7",
"<X c #8BBCD3",
"1X c #ADB2C1",
"2X c #A9BAC5",
"3X c #B2B6C5",
"4X c #B5B9C6",
"5X c #B5BBC9",
"6X c #BABECD",
"7X c #A1BBD1",
"8X c #88C2CA",
"9X c #94C5D1",
"0X c #95C5D8",
"qX c #B5C4CE",
"wX c #BCC2CD",
"eX c #A7CBD4",
"rX c #A8C8D4",
"tX c #BDC2D1",
"yX c #B9CBD6",
"uX c #BAD5DB",
"iX c #86C5E6",
"pX c #98C6E0",
"aX c #ACD4E7",
"sX c #8CE2E8",
"dX c #93EBEF",
"fX c #B5E5EF",
"gX c #C2C5D4",
"hX c #C5C9D6",
"jX c #C5CADA",
"kX c #CACDDC",
"lX c #CDD2DD",
"zX c #D1D6DE",
"xX c #CED3E2",
"cX c #D2D5E3",
"vX c #D6DAE6",
"bX c #D5D9EB",
"nX c #DADDEC",
"mX c #DBE5EC",
"MX c #C9EFF4",
"NX c #D9E7F4",
"BX c #E2E4EC",
"VX c #E6E8EB",
"CX c #E7EAF6",
"ZX c #EDF7FA",
"AX c #F3F4F7",
"SX c #F3F4FA",
"DX c #FCFDFE",
/* pixels */
"& & & I 1X8.S & & & & & & & & & & & & & & & & & & & & & & & & & & & & & & & & & & & & & & & & & & & & & & & & & & I 1X8.S & & & ",
"& & 1 $XnXo.S 1 & & & & & & & & & & & & & & & & & & & & & & & & & & & & & & & & & & & & & & & & & & & & & & & & 1 $XnXo.S 1 & & ",
"& & Q nXCXkX} S & & & & & & & & & & & & & & & & & & & & & & & & & & & & & & & & & & & & & & & & & & & & & & & & Q nXCXkX} S & & ",
"& & ^.CXDXDX8.S & & & & & & & & & & & & & & & & & & & & & & & & & & & & & & & & & & & & & & & & & & & & & & & & ^.CXDXDX8.S & & ",
"& & -XCXSXSX/.y & & & & & & & & & & & & & & & & & & & & & & & & & & & & & & & & & & & & & & & & & & & & & & & & -XCXDXDX/.y & & ",
"& & $XNXBXBXD u & & & & & & & & & & & & & & & & & & & & = = < e p e 1 < & & & & & & & & & & & & & & & & & & & & $XCXDXVXD u & & ",
"& & S 3XCX[.7 t & & & & & & & & & & & & & & & = t } `.tXcXvXvXbXcXxX3XQ.X.Q Y a & & & & & & & & & & & & & & & & S $XDX8.a j & & ",
"& & y H `.t j j & & & & & & & & & & & & < I 5.XXwXlXvXnXBXBXBXBXBXxXbXjXOX^.5.R Y V a & & & & & & & & & & & & & y D `.V L ! & & ",
"& & a k V i L j & & & & & & & & & & e T }.hXlXcXcXcXcXvXmXBXSXAXCXhX3X-X-X=X/. X!. .H B u q & & & & & & = & & & k k V L ~ L & & ",
"& & y k y j L w & & & & & & & & t R *XkXlXlXhXzXzXvXBXAXAXAXDXDXBXkXjXkX6X Xh.^.[.`.Q.8.Y a y t & & & & = = & & y k B F ! i & & ",
"& & a u y L F $ & & & & & & 1 Y !.hXhXcXcXkXcXcXvXvXvXnXBXCXSXDXSXnXgXtX=X`.Q.^.[.[.} / Y C V u u 1 & & & & & & a u t L ! < & & ",
"cXtX[.u : h i 7 u V & & & u o.3XwXhXxXjXjXkXcXvXnXVXCXBXCXCXCXSXCXxXcXbXnXnXtX*X[.h.o.1./ V u B a u a & & & cXgX|.u ; w j t u V ",
"DX). X4., 3 @ C u u & & I } -X-XwXhXgXgXhXkXmXCXcX`.s.p.z.x.B.V.V.B.k.j.g.a.6.jXbXxX`.1.R Z V a k a u T & & VX{.3X4.> * ; C u u ",
"DX/.!./.Y 6 Y R T y & } R 8.).*X*X[.=XgXkXlX/.2._ i.f.a.3.1.| R T T ` 3.a.M.S.:.X.Q.hXcX^.} H V u k k a 5.& BX6./.[.Y 6 Y R T k ",
"DX4X).}.%X%X/. X3X, S } | d.!.^.Q.[.cXBX[.) _ r.[ | / Z t 7 y u u B D K D K ^ f.l.y.) `.NX=X} Y C u a V C S DX;X{.$X$X{.Q./.}.t ",
"DXSXAXBXDXAXnXxXh.u Y R } !.Q.^.$XCX*X) ( ) ] T a 5 2 7 | ~.{. X).!.6.+.R K B k B W p.r.U |.1X/ Z D u k V t DXSXDXDXDXAXnXxXh.u ",
"gX$X!.4.h.+.o.S U ( D H h.^.`.=XgX] U U G Y u , Z @.).*X}.1.' ;._ ( ^ ` 8./.W.T B k B I 2.^ H gX+.D D a V s wX3X_.Q.}.4.4.T C a ",
"3X3X{././.!.~.` ' M C Q /.Q.$X8.b x u T Y 2 | {.;X;X(.Q ,.:.:.:.:.:.;.( C Q h.(.o.K B B Y R R a d.Q.K V B m 1X5X}.).XX4.~.5.Y t ",
"$X X X$XXXXX{.} [ b V 5.4.4.H _ z k R V B _.;XA.f.z , ; I ,.<.<.<.;.(     > r l.p.+./ a u B R R V / 4.Y B M $X}.XX XXXQ./.4.T 7 ",
"[.o.'.'.z.V.e.&.&.n V } H t U x k Y 7 H XX@Xi.y @ @ 2 , * ( N.A.l.<.U $ V 5 @ = N e.>.R k u a D / D u } T _ #Xk.] U V Y Y p 1 : ",
": ; 1 r r g s r q - t K u y P B H 2 { wX,Xm O ; V T 1.X.p ( A.:XD.v.l S 7.1.} Y 2 % M r.1.R u y C } u V } x &.&.&.&.%.%.%.n s : ",
"a u , , : : : : ; $ D k y u u D 2 !.2XA.d ; V X.Q 5.3.s.3.( D.:XoXM.c k.s.7.7.X.o.Y ; l r.+./ 7 B Y H 5 D Q g.B 2 , : : : : : o ",
"_.o.C o ; ; K t 2 . t y u u Y 7 !.2XA.p @ D | 4.7.s.j.j.B.:.D.oXA.M.M z.k.k.k.h.7.1.X.; s r.+./ 2 a / , t V z.V u @ @ @ K t 7 . ",
"_.@.H   , t 8.B M @ t k u Z 7 W.*XM.W 7 K D Q 1.1.k.x.B.V.:.oX2X@X@X*.e.V.B.x.k.7.1.} Y V ' X.| R , H Y 7 y D.P V @ ; , 8.B B @ ",
"}.@.K @ t t Q.Z <.; 7 y B a D }.V.2.| +.^.{ Y X.k.k.B.y.i.kXyXrX9XrXrXqXoXl.g.a.3.1.X.^.Q.X.X.R o.Q V T a e D.' Y , t t Q.V K ; ",
"_.@.] - u A 8.D <., 7 t B , H ).f.X.| o.d.`.8.7.a.g.l.oXBXvX9XuXeX9X8XeXzXhX.Xz.s.^. X/.1./ | Y | d.B H a t ,X[ K 2 y y 8.V K ; ",
"~.6.p.r a L o.Q N.: 7 t u , H [.3.| } 1.2.l.oXwXwXwXqXzXzXI.aXVXmXmXI.I.8X@X,X@X.XV.f.,.X.} X.| Q Q.B D V z rX>.K t A D j.B K O ",
"W.6.p.9 u L | ~ ,X; t k k 5 D ).X.Q 1.X.` ,.,XrXyXtX@X8X8XmXMXsXsXMXAX0XK.>X@XK.,X<X>Xv.<./ } ` H !.k D V k rXf.H t F E g.V K o ",
"W.6.g.8 j L Q ~ ,X5 u C B 7 C /.} T T a y p x ( B.A.D.S.fXMXsXR.R.dXfXNXI.8XS.l.r._ x q , a } } } ).7 C V t 9Xf.K 7 L E f.Z K @ ",
"W.d.g.9 L L Q E :Xy u V V 2 b 8./ T V a S W ' ( M *.S.K.sXY.R.DXMXR.E.fXI.K.0.%.m U ' X.D a H ` / W.2 k V > J.3.D 7 L E p.Z K O ",
"W.8.g.9 ~ L { E t.y u V H 2 m } B V V Y T ^ [ p.l.i.0.Z.Y.Y.R.ZXZXR.H.sXI.m.*.<.y.j.[ ` Y D V u Y T 5 a k : n.' H 2 L E p.B Y @ ",
"@.{ p.q A V { E <.2 C D T 2 m ^ V B Q k ).{.OXk.f.A.n.m.U.U.T.E.E.T.G.sXH.Z.c.i.V.J.D.{.o.Q B u , s 5 k y , c.S Z 7 L I p.V Y . ",
"J t ( r # , B D v t C D R 2 r ;.k D } u } G 7XJ.:.A.D.Z.P.Y.U.G.G.G.Y.U.P.C.<.<.<X2X3.5.6.| D u D y.7 k 7 > N 1 a 5 2 r _ S u O ",
"o $ v V.2X{.| V e 7 V D o.2 H M V T } D u S yXpXM e.D.S.m.P.Y.T.U.U.P.-.Z.b.*.*.aX2Xp 1 I ` T y >.U 7 u 7 , O O 5 4./.(.a.C : C ",
"Y ; q 1 ; ; @ @ * p C K | 2 R n D D C V 7 W jXaX_ N A.D.S.-.-.F.F.q.=.=.Z.n.i.l.yX+Xe 7 Q V Y z l.P 7 y 5 y k ; : : ; ; @ @ * R ",
"5.V V ^ ) ( U U < I / } T 2 D m I k k V 5 Q.'.].+X<XJ.A.S.0.m.m.m.m.b.n.S.,XaX0XoX'.{.D C V V z M.I 7 t 5 t 6./ |  .{ |  . .K / ",
"%X_.~.*X.X2XuXlXqXoX) Z u 2 k s R C D V y +./ (.(.p.z.i.M.<.n.n.Z.n.n.n.M.@X0XB.^.d.| D V H D V y.D 7 t 7 '.qXyXtXtX=X-X}.$X[.D ",
"}  .|  .+./ a.p.(.,Xu u 7 2 t r 4.}. XR t u } ` s.2.b c N e.y.i.i.i.y.e.y.r.,Xa.` 5.{ a C }./.S y.C 7 y p >X@XA.V.s.{ H R K , @ ",
" .o.| +.1.O.p.g.XX9Xz u 7 2 t e +.5.4.6.S t 1 C ^ ] l b _ _ r.r._ ;._ :._ ' (.X.I 2 5 t 5.| Y D l.G 7 t p >X(.l.3.3.@.{ / R t O ",
" . . .a.3.O.l.g.;X,Xx y 7 2 t n S T ] /.D H T  .H y e U q 8 s 9 v s 8 d r e G /.8.u k D o.H T a M.H 7 t p J.k.l.O.) } D R R , @ ",
"|  .+.+.O.O.l.g.V.8Xx y 7 5 7 f a R W 2.j.x.B.1.7 5 a Y = U q r ^.s.z h.5.y t C Q.%X/.| Y D } 7 l.z 7 7 t Z.a.z.2.[ R K R Q t O ",
"{ +. .| ] ] l.g..Xw.d 7 5 5 7 f 2 t R D U [ >.( p 1 C C V ` / S | h.Y D C C t a U 7./ D D T B $ y.p 7 , 1 C.g.z.2.[ Y T R Q a X ",
"|  .} / ] ] p.g..XC.5 7 5 2 t #.: @ 2 V Y H ^ >.k.D t a y V : u V a 1 y 7 D 7.oXl.I Z D V y ; $ r.e 7 , , Z.l.z.a.[ Y K Q Q a O ",
"{ { Q { ] ] p.l.oXC.5 5 5 2 d $.< 2 @ $ * a H H :.>.W , o.k , h.Q 2 8.R D >.J.W D Z u ; @ > 7 $ i.2 7 > , C.M.].a.' Y D Q Q a o ",
"{ / T / R [ 2.g.oXC.2 2 5 5 p $.1 u V t , ; * B U >.B.2 V D H R Y S D V V M.v.C a : @ $ ; t 5 = f.2 7 > : t.A./.>.K K Z Y K B o ",
"Z K K R H [ 2.2.+XC.1 2 5 2 r $.1 k V u t 5 @ , S U 1., V $ t 2 } u , 2 a f.s.C ; ; ; , > t 1 = +X5 7 : : t.M.9.2.Y K V Z V B @ ",
"K K V R K H U ` .Xu.1 2 5 2 e %.e u a a u 2 : @ V V K : V @ t Y ).u Y R C g.j.V @ ; ; : , 2 , : =X5 7 > > t.M.9.~ Y H B u k B @ ",
"D T a Y Z C I Q ].t.4 2 5 2 5 &.e 2 t t t p 1 = V V k 2 V D D V D C C C D >.3.V : ; 2 , t 2 y u |.2 7 : , u.M.9.~ I k a u u a @ ",
"Z Y u K u y G T j.N 1 , 2 2 2 >.` j.z.5X#X#X'.2.S V a , k 2 > ; : , a t C z ^ Y wX;XB.].z.'.OX/.6., 7 : : u.M.9.E F a u y u u @ ",
"V H a a a y z D ' N 1 , 2 2 2 t y p p k S S C B V P c 7 7 $ a C @ t T a 8.p c z x x l v b v p 7 2 : 7 : ; t.M...L F u u u u u $ ",
"V V u a a u u V U M 1 : 2 2 2 5 7 7 7 7 7 t t y x &.1 5 V [.4.D S } } S C a r s : : : : : : , , 2 , 7 : : *.f.~ L F u a t u a ; ",
"t a u a u u h a G l : > , 2 2 2 2 2 5 5 5 5 5 d c q , t t y 2 , , 7 5 7 7 7 , 0 9 , 7 1 , : , 1 2 : 7 : : m ;.F E L u u a u u ; ",
"2 u u u u u u u a = @ ; > 2 2 2 2 2 2 2 2 2 , $ < : , : : , , ; : : : : ; ; : : 8 % $ ; ; : : : 2 , 7 ; : 9 S A a A a u u u y @ ",
"; a u t 7 2 7 y 2 : : ; ; 2 ; * $ * ; ; : @ o @ , 5 , , , 2 , , 2 , , , : : ; ; : @ # * $ ; $ ; $ ; 7 $ @ = 1 2 , t t 5 7 u t @ ",
"2 5 t # -X1X=XOX X XOX/.8.8.`.[.`.^.[./.Q.Q.4.5.X.9.v.N.N.<X0XaXrXrXuXuXaX>X:Xc.v.v.<.;.' | } 4.} h.6.| o.Q.Q.+.8. XOX} $ 7 2 $ ",
"; * : O tX3X-X-X-X=X=XOX^.^./.^.^.^.^./.`.[. XoX:XJ.pXaXdXfXNXNXNXMXfXaXiXiX,X=XOXOX$X|.`.[. XOX$X*XOX*X[. X|.|.[./.-Xd.@ : ; @ ",
"@ o ; @ hXgX X XOXOX$X$XOX/.^././.^.|.3X-X1X3X1X3X6X5X4X5X3X0XL.iXiXL.7X5X3X3X4X4X4X3X4X3X=X-X1X-X=X|. X*X|.`.$XOX1XkX).@ @ @ @ ",
"* o @ $ 4X3X`.[.|. X XOX=X-X`. X`. X$X1X} Y } T H S a e x ( ) >.r.e.:.:.2.5./ | o.5./.3X6X1X6X$X-XOX-XOXOX$X-X$X|./.1X^.@ o @ O ",
"# o O o 4.4X3X4XtXtX6X6XtX6XtXtX5X4X6X3X* : y @ @ @ @ O O O O O O # O O O O O O @ @ @ =XtXgXgXgXgXgXjXjXtX6XtXtX-X[.*XQ.o o o o ",
"O . . . 2 , , , , , , : > 5 u 7 7 7 7 t 5 2 ; ; ; : ; : ; $ $ $ $ * : : , > > 2 7 y t a u t t t t 7 7 7 2 , , , , : > : o . O & ",
"& # X . 2 , > > > : : : ; * ; ; * ; ; : @ 8.[.`.d.8.'.+X'.;X2XqXuXxXuXyXqXwX-X X X X Xk 2 : : : : : ; ; ; $ $ @ @ $ : o o o & & ",
"& & $ o , , , 2 , 5 1 5 5 u u u u u u y $ ^.}.=X-X1X=X1X5XqXuXuXuXqX2X1X6X6X3X=X-X=X-X; ; 5 7 5 2 2 7 t u t 2 t t y t 5 o $ & & ",
"& & & & & & & & & & & & & & & & & & & & o t 7 7 k t t y u a u 7 , : ; $ : y t 7 t 7 , . . . . . . . . . X o o O O # # # $ & & & ",
"& & & & & & & & & & & & & & & & & & & & o @ $ ; ; ; ; ; ; @ o o o o o o O O O O O @ @ O O + # # $ $ $ & & & & & & & & & & & & & "
};
