/* XPM */
static char *result[] = {
/* columns rows colors chars-per-pixel */
"64 64 254 2 ",
"   c #000000",
".  c #080807",
"X  c #0C0C0A",
"o  c #0B0B13",
"O  c #0E0F18",
"+  c #0F1015",
"@  c #141413",
"#  c #13141D",
"$  c #16181C",
"%  c #1C1C1B",
"&  c #22231E",
"*  c #0F1527",
"=  c #161622",
"-  c #161925",
";  c #1B1C24",
":  c #1C1D2A",
">  c #1C1F31",
",  c #141C3A",
"<  c #1E2027",
"1  c #1E202A",
"2  c #1D2233",
"3  c #1B2138",
"4  c #242424",
"5  c #2A2B26",
"6  c #22232D",
"7  c #2C2C2C",
"8  c #32322F",
"9  c #252632",
"0  c #272933",
"q  c #2A2B35",
"w  c #262639",
"e  c #262C3C",
"r  c #2D2E39",
"t  c #27303F",
"y  c #2F303B",
"u  c #343434",
"i  c #393B33",
"p  c #31333C",
"a  c #3B3B3B",
"s  c #3F4138",
"d  c #43453B",
"f  c #141B43",
"g  c #1D2649",
"h  c #252C44",
"j  c #2B3547",
"k  c #343642",
"l  c #363944",
"z  c #393B46",
"x  c #363949",
"c  c #34384E",
"v  c #3B3D49",
"b  c #273656",
"n  c #273D61",
"m  c #403B4E",
"M  c #453B54",
"N  c #374049",
"B  c #3E414C",
"V  c #3A4754",
"C  c #314A5A",
"Z  c #3B4C5B",
"A  c #2C4464",
"S  c #39586A",
"D  c #304B70",
"F  c #3A5974",
"G  c #3D636D",
"H  c #38667A",
"J  c #424242",
"K  c #4A4B41",
"L  c #41434E",
"P  c #4F5146",
"I  c #525449",
"U  c #434552",
"Y  c #464954",
"T  c #494B56",
"R  c #48475A",
"E  c #4B4D5A",
"W  c #51475F",
"Q  c #45545C",
"!  c #4E515C",
"~  c #52535E",
"^  c #59595A",
"/  c #474C60",
"(  c #574966",
")  c #4D5361",
"_  c #485867",
"`  c #535562",
"'  c #555A65",
"]  c #5B5C67",
"[  c #58566B",
"{  c #5B5D6A",
"}  c #4A5E71",
"|  c #635073",
" . c #665675",
".. c #49636C",
"X. c #57626A",
"o. c #5D616D",
"O. c #4D6272",
"+. c #486978",
"@. c #5D6572",
"#. c #5C6C75",
"$. c #556A78",
"%. c #4E737D",
"&. c #55737A",
"*. c #5C727C",
"=. c #62646E",
"-. c #676868",
";. c #626572",
":. c #656975",
">. c #696B75",
",. c #646C7A",
"<. c #6B6D7B",
"1. c #63727B",
"2. c #6C727C",
"3. c #757575",
"4. c #74767B",
"5. c #7C7C7C",
"6. c #2C528E",
"7. c #3A6788",
"8. c #397090",
"9. c #2E5EB9",
"0. c #346DB6",
"q. c #4B6C83",
"w. c #576C82",
"e. c #4A7788",
"r. c #5A7B87",
"t. c #477894",
"y. c #637683",
"u. c #6B7481",
"i. c #6C7B84",
"p. c #687C88",
"a. c #727582",
"s. c #737A85",
"d. c #7B7D83",
"f. c #747A8A",
"g. c #7B7E8C",
"h. c #787A92",
"j. c #417DA4",
"k. c #3069C0",
"l. c #3F98A4",
"z. c #58838C",
"x. c #438998",
"c. c #4D8F98",
"v. c #568894",
"b. c #64838D",
"n. c #6B838C",
"m. c #7A8189",
"M. c #668795",
"N. c #6B8C94",
"B. c #7D8291",
"V. c #758A96",
"C. c #69939B",
"Z. c #74939B",
"A. c #7A959F",
"S. c #4787A7",
"D. c #4D96AF",
"F. c #559CA6",
"G. c #6798A7",
"H. c #6A9AA5",
"J. c #799BA5",
"K. c #6F9AB1",
"L. c #58A4AA",
"P. c #4EAEBA",
"I. c #57A7B4",
"U. c #7AA4AC",
"Y. c #66AAB1",
"T. c #77A9B7",
"R. c #3E9AE5",
"E. c #53BAC3",
"W. c #4AA9D8",
"Q. c #72B8C3",
"!. c #58C9D0",
"~. c #6ECCD2",
"^. c #5DDDE2",
"/. c #6DDDE3",
"(. c #57EBF1",
"). c #58F8FE",
"_. c #71E4E9",
"`. c #838384",
"'. c #86888C",
"]. c #8B8B8C",
"[. c #838594",
"{. c #848995",
"}. c #8B8D93",
"|. c #858A99",
" X c #8B8D9B",
".X c #8B929C",
"XX c #929393",
"oX c #92969C",
"OX c #9B9B9B",
"+X c #8D92A1",
"@X c #8899A6",
"#X c #8795AA",
"$X c #9295A4",
"%X c #9699A4",
"&X c #9A9CA4",
"*X c #949AAA",
"=X c #9A9DAB",
"-X c #88A3AC",
";X c #9BA2A5",
":X c #9DA2AC",
">X c #86AAB5",
",X c #98AAB5",
"<X c #88B1B9",
"1X c #A3A3A3",
"2X c #A3A4AD",
"3X c #ACACAC",
"4X c #A2A5B3",
"5X c #A7ABB6",
"6X c #A5ABBA",
"7X c #AAB2B6",
"8X c #B3B3B4",
"9X c #B5B8BA",
"0X c #BCBCBC",
"qX c #86BAC5",
"wX c #98B6C5",
"eX c #90B5CC",
"rX c #A9B6C3",
"tX c #B3B6C4",
"yX c #B9BBC6",
"uX c #92BDEA",
"iX c #93C5D1",
"pX c #A4C2CA",
"aX c #BCC2CA",
"sX c #A6CAD1",
"dX c #BBC7D3",
"fX c #ADD9DE",
"gX c #BBD2DB",
"hX c #8FCBE8",
"jX c #B4DAE1",
"kX c #8FE7EC",
"lX c #ACF3F6",
"zX c #C3C4C4",
"xX c #C1C6CC",
"cX c #CACACA",
"vX c #C2C6D3",
"bX c #C6CAD7",
"nX c #CACDDB",
"mX c #CAD2DA",
"MX c #D2D5DA",
"NX c #CDD4E2",
"BX c #D2D5E3",
"VX c #D6DAE7",
"CX c #D5D9EB",
"ZX c #DADDEC",
"AX c #C6E9EC",
"SX c #D8E5EA",
"DX c #D6ECF5",
"FX c #E7E7E9",
"GX c #E2E4ED",
"HX c #E7EAF6",
"JX c #EBF6F8",
"KX c #F3F5F8",
"LX c #F3F4FA",
"PX c #FCFDFE",
/* pixels */
"> > > ) rXg.E > > > > > > > > > > > > > > > > > > > > > > > > > > > > > > > > > > > > > > > > > > > > > > > > > > ) rXg.E > > > ",
"> > e 4XZX<.R e > > > > > > > > > > > > > > > > > > > > > > > > > > > > > > > > > > > > > > > > > > > > > > > > e 4XZX<.R e > > ",
"> > { ZXHXnX;.R > > > > > > > > > > > > > > > > > > > > > > > > > > > > > > > > > > > > > > > > > > > > > > > > { ZXHXnX;.R > > ",
"> > |.HXPXPXg.R > > > > > > > > > > > > > > > > > > > > > > > > > > > > > > > > > > > > > > > > > > > > > > > > |.HXPXPXg.E > > ",
"> > 6XHXLXLX Xl > > > > > > > > > > > > > > > > > > > > > > > > > > > > > > > > > > > > > > > > > > > > > > > > 6XHXPXPX Xl > > ",
"> > 4XGXGXGXE x > > > > > > > > > > > > > > > > > > > > 2 2 w j x j e w > > > > > > > > > > > > > > > > > > > > 4XHXPXHXE x > > ",
"> > R tXHX$Xp k > > > > > > > > > > > > > > > 2 k ;.+XaXBXVXZXCXBXNXtX[.,.{ ` x > > > > > > > > > > > > > > > > R 4XPXg.v M > > ",
"> > l ! +Xk M M > > > > > > > > > > > > w ) s.:XaXmXVXZXGXGXGXGXGXNXCXbX:X|.f.] ` U x > > > > > > > > > > > > > l E +XU ( | > > ",
"> > B B U x ( M > > > > > > > > > > h ' &XbXmXBXBXBXBXBXSXGXLXLXHXbXtX6X6X6X X=X{.>.! L x h > > > > > > > > > > B B U [  .( > > ",
"> > l B l M ( k > > > > > > > > k ] 5XnXmXMXbXMXMXVXGXLXLXLXPXPXGXbXnXnXyX=XB.|.$X+X[.g.` v l k > > > > > > > > l B L W | x > > ",
"> > v v l ( W : > > > > > > e ` {.vXbXBXBXnXBXBXVXVXVXZXGXHXLXPXLXZXvXaX6X+X[.|.$X$X;.o.` T U v x e > > > > > > v v k ( | w > > ",
"BXaX$Xv 9 m v p v U > > 2 x <.tXaXbXNXbXbXnXBXVXZXHXHXGXHXHXHXLXHXNXBXCXZXZXaX6X$XB.<.u.o.U z U v z v > > > BXvX*Xv 6 k M k v U ",
"PX.X=Xa.q y ; Y x x > > ) ;.6X7XaXbXvXvXvXnXSXHXBX+Xn.b.Z.A.J.J.J.J.Z.V.N.n.f.nXCXNX+Xu.{ T U v B v z ' > > FX%XtXa.0 1 6 T x x ",
"PX X{. X` u ` ] ' l > ;.] g..X4X4X$X6XvXnXmX Xy.+.c.M.n.p.i.:.] ' ' @.p.n.H.Y.e.1.[.vXBX|.;.! U v B B v f.> FXd. X$X` u ` ] ' B ",
"PXyX.X=X5X2X X=XtXq R ;.:.B.{.|.[.$XBXGX$X$.%.z.*.:.{ T k p l z z U E ~ E ~ X.M.C.v.+.+XGX6X;.` T v v U T R PX9X%X4X4X%X[. X$Xk ",
"PXLXLXGXPXJXZXNXB.v ` ' ;.{.[.|.4XHX5X$.O.O.#.' v y q XX                xX{.L B L ' b.z._ *XrXo.T E v B U k PXLXPXPXPXJXZXNXB.z ",
"vX4X{.a.B.2.<.R } } E ! B.|.+X6XvX$._ _ Q ` z q oXu.$.6X                ,XO.O.@.L L L ` y.X.! vX2.E E v U b aXtXoX[.%Xa.a.' Y v ",
"tX9X%X X X{.|.@.$.F T {  X[.4Xg.S Z v ' ` q n.` $.e.e.wX                wXq.q.O.T ] L L ` ] ] v B.[.! U L D tXyX&X.X:Xa.{.s.` k ",
"4X=X=X4X:X:X%X;.&.F U s.a.a.! %.V B ' U L j 9 : ) w.t.rX                wXq.} o o 0 j v z L ' ] U o.a.` U F 4X%X:X=X2X[. Xa.' p ",
"$X<.@X@XZ.J.v.7.6.D U ;.! k _ Z B ` p q # $ q 9 : } G.dX                pXt._ : U r ; : B z v E o.E z ;.' +.,XV.#._ U ` ` x q 9 ",
"9 6 h j b n b b h 3 k ~ z l / L ! r O ; z T ;.@.x O.K.gX                gXv.C Q f.u.{ T 6 * z l T ;.z Y ;.Z 6.6.6.6.6.6.6.D b 9 ",
"v z q q 9 9 9 9 6 : E B l z v E q $ p ~ E ;.,.u.y...T.gX                gXG.A V.V.p.u.X.] L ; p L ` ! y E { N.L r q 9 9 9 9 9 # ",
"XX<.Y # 6 6 ~ k r O k l z z ` p # l E ' @.,.u.p.Z.%.T.gX                dXG.F Z.Z.V.f.u.:.' E $ r v o.q k U Z.U z ; ; ; ~ k p O ",
"OX2.! o q k g.L F ; k v z T p 4 l k U ' { u.n.V.Z.e.>XNX                mX<X7.z.J.Z.V.i.:.' T z q q ! ` p k T._ U ; 9 q g.L L ; ",
"&X4.` = l k [.T t.6 p l L v v Y ] L N Q ,.y.n.z.v.bXgXSX                NXsXpXpX>XC.b.y.#.' ! o.' B Y ' v j T.$.` q k k [.U ~ 6 ",
"oX4.#.g x R g.E t.q p k L q v U ` :.] X.#.*.r.U.MXVXiXSX                SXiXiXsXMXxXJ.b.1.1.a.=.T z L ! v k eX$.~ r l l g.U ~ 6 ",
"}.d.b.b v ( <.{ K.9 p k z q z Y Q O.y.oX&X2X,XxXmXQ.fXLX                JXSX~.~.qX<X,XJ.N.y.O._ Y v L E L V pXr.~ k R / V.L ~ = ",
"'.d.b.g z ( :.=.wX6 p B B r U L B _ V.@X,X4XU.<XQ.SXAXAX                AXAXLXiXQ.qXU.L.J.H.M.H Z z B E U B sXM.! k W [ N.U ~ # ",
"'.d.N.f M ( {  .eXy z T L p p 0 6 q j Z r.N.H.L.jXAXkXlX                lXkXlXDX~.qXG.z.+.Z j 1 ; 6 y T U k iXM.~ p ( [ M.T ~ ; ",
"`.g.N.g ( ( { [ qXl z U U r q 6 p N Z Z A D c.I.hX_.).PX                JX)._.jX~.Y.t.D n C Z T p 6 r B U w Q.M.E p ( [ b.T ~ = ",
"`.d.N.g  .( =.[ S.l z U ! r 0 p z B Q ..*.e.8.D././.).PX                JX).W.kX~.S.8.7.%.&.Q U k r y v B 9 I.$.! r ( [ b.L ` ; ",
"2.;.b.h R U =.[ t.r T E ' r l q =.>.s.#.%.M.c.S.!.^.(.lX                lX(.R.kXW.I.8.e.b.M.r.>.Y z y v l q S.R T p ( ) b.U ` O ",
"! k O.b - q L E S k T E ] r z 6 L l Z.v.G N.H.L.E./.^.hX                uXR._.^.!.I.t.H K.@X' ~ ! B p B p q H e v y r j +.R v = ",
"$ : Z J.rX$X:.Y j p U E <.r z y 6 p @XK.C +.H.L.S.!._.lX                lX^.!.0.P.S.7.H <X|.e : p z p v p q = = y a. X.Xn.T 9 T ",
"` 6 h e 6 6 ; ; 1 v T ~ :.r q q 6 B $X-XS S C.H.L.0.0.hX                uXk.9.9.I.F.v.r.,XB.9 6 v q p l p l B 6 9 9 6 6 ; ; 1 ] ",
"s.Y Y X.O..._ ..w / X.;.' r 6 q 1 ] 2.p.V.K.T.H.Y.j.S.eX                iXD.D.F.T.wXiXqXN.s.2.p y 0 p k p k f.o.:.>.=.:.>.>.~ o.",
"2XoX}.4X-XrXgXmXaX>X$.T v r r q 6 ! Y 2.u.$.b.v.G.t.F.sX                sXL.F.F.H.>XqXM.i.;.! p q p p k p *XaXdXdXdX6X6X&X4X$XE ",
";.>.:.>.2.o.n.b..XwXv v p r ] z 6 0 Y E @.X.Z b F e.v.pX                pXc.v.v.v.r.>X*.) X.Y q r o.p l x qX<XU.J.n.=.! ] ~ q ; ",
">.<.:.2.i.1.b.N.:XpXN z p r L E y 6 6 l T ` j Z ..+.z.rX                ,Xq.+.q.%.$.B.X.U 6 6 6 ! B p k c qX|.C.i.i.4.=.o.] k = ",
">.>.>.n.i.1.C.N.7XwXZ l p r z ' p l B ~ B e e Q h f b |.                *Xb f n j h Y d.>.y y k Y y p l x Q.V.C.1.$.;.E ] ] q ; ",
":.>.2.u.1.1.C.N.J.iXZ l p r p Q ` @.*.' q 0 k Q 2 _ h .X                aXn.V B.s.k y B 2.{.>.Y p y p p k I.n.Z.p.&.' ~ ] { k - ",
"=.2.>.:.#.#.C.N.-Xl.c p y y p y N Z _ Z q 6 v U B @.X.&X                5XB.' E T Y y k Z @.Y p p p p q q I.N.Z.p.*.` ' ] { v O ",
":.>.;.X.#.#.b.N.-XP.y y y y ; q l l V ..1.B r l k U 9 oX                &Xv r l p T 2.Z.r.B l p q 6 p q q P.C.Z.n.*.` ~ { { v = ",
"=.=.{ =.#.#.b.C.>XP.y y y r # # # q z N ..O.Q 9 >.v q yX                2Xr g.] E $.I./ B z r ; @ $ p 0 0 I.H.#Xn.$.` E { { v # ",
"=.o.' o.] *.y.N.>XE.r r y r q < ; $ $ p V +.n.q B E ! 2X. . . . . . . . 2XR E U U G.v.B p ; # $ $ ; p 0 9 x.U.+Xr.~ ~ T ` ~ L # ",
"T ~ ~ ] ! $.y.p.,XP.e r r r q 6 6 6 # : z Z @.6 B ; k }.. . . . . X X X 5Xz q r v b.i.B ; ; ; ; ; 1 y 9 9 x.H.h.p.` ~ U T U B ; ",
"~ ~ U ' ~ ! _ @.-XD.q r y r 6 0 q 6 ; $ l z T 6 B ; k 2XX X + + @ @ @ @ xXv ` ] T b.p.v $ ; ; ; ; ; p 9 0 x.H.h. .` ! L v B L ; ",
"E ' v ` T Y / { @Xx.t q y r ; 6 9 q 1 - l z l 0 L E E &X@ @ $ % % % % % &XT T T E &.1.z : ; 6 ; 6 ; y 9 q x.H.h. .W B v x v v ; ",
"T ` z ~ z k / ' V.H e q r r Q s.2.s.2._ z z k 9 v r 0 '.% % % & & 4 4 4 ].q v p T N _ T :X{.*.$...X.p 6 9 x.H.h.| W v v l v v ; ",
"Y ! v v z k V E $.H e q r r 1 0 p p k p l V b r r ; v &X& 4 5 5 7 7 7 7 `.k ' v g.j A x N j h j j e p 6 6 x.H.<.( W v v z v v : ",
"Y Y z v v x x U _ S e 9 q r ; < 6 6 6 q x D w q U +Xa.&X5 7 8 8 8 i i i &X;.;.T T v h b : ; ; ; ; $ p 6 9 8.M. .( W z v k v v 6 ",
"k v v v z z m v / C 9 0 q r ; ; 1 6 6 t b 2 6 y p k q }.i i i i s d d d }.p y p p r 9 g , 1 9 ; ; $ p 9 0 D q.W [ ( v z v v z 6 ",
"r z z v v v v z v 2 ; 6 9 r ; ; ; 6 1 = : ; 6 6 6 9 q ].d d d d d K K K ].6 9 6 6 6 6 1 , = $ $ $ $ p 6 9 g R R v R v z z v l ; ",
"6 v z k p r p l r 9 9 6 6 r $ $ ; # + $ 6 0 6 9 q r q }.P P P I I I I I }.q q q 6 6 6 6 6 $ # $ # # p : ; 2 e r q k k y p z k ; ",
"q y k - 8X8X3X1X1X1X1XXX`.`.OXOXXXXXOXXX'.'.5.5.3.d.m.].'.}.}.}.].}.}.].].'.`.m.m.m.d.4.3.5.3.5.-.'.`.-.3.'.'.3.`.1X1X-.4 p r : ",
"6 1 9 = cX0X8X8X8X3X3X1XXXXXXXXXXXXX].XXXXOXOXoXXXXXXX].].'.`.`.5.5.5.5.m.m.`.'.].XXOX}.XXXXOX1X3X3X1X3XOX1XOX1XOXXX8X`.% 9 6 ; ",
"; # 6 ; cXcX1X1X1X3X3X3X3XXXXXXXXXXX1X0X8X8X0X0X0XzX0X3X8X8X9X9X9X8X8X3X3X3X8X0XaX0X0XzX0X8X8X8X8X3X1X1X3XOXOX3X3X8XMXXX% ; ; ; ",
"1 # ; : 0X0XOXOXOX1X1X3X3X8XOX1XOX1X3X8X-.^ -.^ ^ -.^ ^ ^ -.o.=.>.3.4.d.5.5.3.3.-.5.XX0XzX8XzX3X8X3X8X3X3X3X8X3XOXXX8XXX% # ; = ",
"- $ = $ 5.zX0X0XzXzXzXzXzXzXzXzXzX0XzX0X4 7 a % % % % 7 7 7 7 7 8 u u 7 7 7 7 4 4 & & 3XcXcXcXcXcXcXcXcXzXzXcXcX8XOX3X'.% # # # ",
"= O O O u 7 7 7 u 7 7 7 7 u a a u a a a u u 7 4 7 7 7 7 7 4 4 4 4 4 7 7 7 7 7 u u a a J J a a a a a a u u u 7 7 7 7 7 7 % O = > ",
"> - O O u 7 7 7 7 7 7 7 7 4 4 4 4 4 7 7 % `.OXXX`.`.oX;XoX7X9XaXxXMXbXaXzXzX8X1X1X1X1XJ u 7 7 7 7 7 7 7 4 4 4 4 4 4 7 % % # > > ",
"> > : # 7 7 7 u 7 u u u u J a a d J J a 4 ].OX3X8X8X8X8X0XaXmXmXbXaX8X8XzXzX0X3X8X8X8X4 7 u u u u u u a J a u a a a a u % : > > ",
"> > > > > > > > > > > 2 > > > > > > > > $ a a u J a a a J J a a 7 7 4 4 7 a a a a u u O O O O O O O O # # = - - - : > > > > > > ",
"> > > > > > > > > > > > > > > > > > > > # ; : 6 6 6 6 6 6 ; $ # # # # # = = = = = ; ; # # = - - - : > > > > > > > > > > > > > > "
};
