/* XPM */
static char *result[] = {
/* columns rows colors chars-per-pixel */
"64 64 244 2 ",
"   c #000000",
".  c #070807",
"X  c #080907",
"o  c #0C0C0B",
"O  c #10100E",
"+  c #090911",
"@  c #0E0F18",
"#  c #0F101B",
"$  c #151513",
"%  c #191A17",
"&  c #13131D",
"*  c #1C1D1B",
"=  c #1F201C",
"-  c #22231E",
";  c #161722",
":  c #161925",
">  c #1B1B25",
",  c #171B29",
"<  c #1C1D2A",
"1  c #0F1438",
"2  c #121934",
"3  c #1C1F31",
"4  c #1F212A",
"5  c #1C2233",
"6  c #1B2239",
"7  c #242423",
"8  c #272822",
"9  c #292A25",
"0  c #22232D",
"q  c #2C2C2C",
"w  c #2F302A",
"e  c #32332C",
"r  c #252631",
"t  c #262933",
"y  c #2A2B35",
"u  c #262639",
"i  c #262B3C",
"p  c #2D2E39",
"a  c #322A3E",
"s  c #29303B",
"d  c #2E313B",
"f  c #343434",
"g  c #363834",
"h  c #3A3B33",
"j  c #31323C",
"k  c #3B3B3B",
"l  c #3F4138",
"z  c #42443B",
"x  c #48493F",
"c  c #1D2846",
"v  c #192C50",
"b  c #1F2D54",
"n  c #262D44",
"m  c #2A3547",
"M  c #343642",
"N  c #363844",
"B  c #393B46",
"V  c #35364B",
"C  c #37384A",
"Z  c #3B3D49",
"A  c #263654",
"S  c #403B4E",
"D  c #453B54",
"F  c #2F444B",
"G  c #364149",
"H  c #3E414C",
"J  c #2B4656",
"K  c #384955",
"L  c #3C4B5B",
"P  c #38535B",
"I  c #2F4B6D",
"U  c #2D546B",
"Y  c #3A5B67",
"T  c #375873",
"R  c #3B676E",
"E  c #3A6876",
"W  c #424242",
"Q  c #4A4B41",
"!  c #41434E",
"~  c #4F5146",
"^  c #505247",
"/  c #525449",
"(  c #444552",
")  c #464954",
"_  c #494B56",
"`  c #49465A",
"'  c #4A4D5A",
"]  c #51475F",
"[  c #46555C",
"{  c #4E515C",
"}  c #52535E",
"|  c #59595A",
" . c #554A64",
".. c #584867",
"X. c #465065",
"o. c #495865",
"O. c #535562",
"+. c #555A65",
"@. c #5A5C67",
"#. c #58556B",
"$. c #5B5D6A",
"%. c #635073",
"&. c #665675",
"*. c #49646B",
"=. c #54626B",
"-. c #5D656A",
";. c #5E616D",
":. c #496975",
">. c #536B73",
",. c #586877",
"<. c #5B6C75",
"1. c #457379",
"2. c #55767C",
"3. c #5C737C",
"4. c #62646E",
"5. c #676868",
"6. c #626572",
"7. c #656975",
"8. c #6A6B75",
"9. c #676A7C",
"0. c #6C6D7B",
"q. c #64737C",
"w. c #6C727C",
"e. c #747575",
"r. c #73747B",
"t. c #76797C",
"y. c #7C7C7D",
"u. c #2B518A",
"i. c #2A579A",
"p. c #346785",
"a. c #3B7984",
"s. c #3A7A96",
"d. c #467A84",
"f. c #4A728C",
"g. c #577987",
"h. c #697984",
"j. c #727582",
"k. c #7B7D83",
"l. c #767988",
"z. c #7B7D8C",
"x. c #787A92",
"c. c #468389",
"v. c #5A838A",
"b. c #418B99",
"n. c #598893",
"m. c #44929A",
"M. c #57989C",
"N. c #64848C",
"B. c #6B838C",
"V. c #66898E",
"C. c #7E8183",
"Z. c #79828C",
"A. c #658895",
"S. c #6C8C94",
"D. c #7A8693",
"F. c #68949B",
"G. c #75939C",
"H. c #4D94A5",
"J. c #6B9AA6",
"K. c #7B9BA4",
"L. c #739BB4",
"P. c #4CAAB2",
"I. c #5AABB3",
"U. c #58ABB4",
"Y. c #49B3BB",
"T. c #78A5AC",
"R. c #72ADB6",
"E. c #388BC5",
"W. c #56B7C0",
"Q. c #76AEC7",
"!. c #4AC7CD",
"~. c #65C2C4",
"^. c #4EDEE2",
"/. c #838384",
"(. c #83858A",
"). c #878A8E",
"_. c #8B8C8C",
"`. c #838594",
"'. c #868995",
"]. c #8B8D93",
"[. c #868A99",
"{. c #8B8D9B",
"}. c #8A929C",
"|. c #929393",
" X c #93969C",
".X c #9B9B9B",
"XX c #888BA4",
"oX c #8D91A0",
"OX c #889BA6",
"+X c #9295A4",
"@X c #9699A4",
"#X c #9A9CA5",
"$X c #969AAA",
"%X c #9A9DAB",
"&X c #89A3AB",
"*X c #9CA2A9",
"=X c #89AAB3",
"-X c #99A8B4",
";X c #8AB3B8",
":X c #9BB3B9",
">X c #A3A3A3",
",X c #A2A4AE",
"<X c #ACACAC",
"1X c #A2A5B3",
"2X c #A8ACB7",
"3X c #A6ABBA",
"4X c #A8B5BB",
"5X c #B3B3B4",
"6X c #B5B7BA",
"7X c #BCBCBC",
"8X c #87B4C8",
"9X c #94B8C9",
"0X c #AAB7C3",
"qX c #B3B6C4",
"wX c #B7BCC5",
"eX c #87ADE0",
"rX c #90C9CF",
"tX c #BAC3CA",
"yX c #ACC9D0",
"uX c #BCC5D2",
"iX c #A5E5E7",
"pX c #C3C4C4",
"aX c #C2CBCE",
"sX c #CACACB",
"dX c #C2C6D3",
"fX c #C6CAD7",
"gX c #CACDDB",
"hX c #C6D4D7",
"jX c #CED2DD",
"kX c #D2D4D9",
"lX c #CED2E2",
"zX c #D2D5E3",
"xX c #D6D9E7",
"cX c #D5D9EB",
"vX c #DADDEC",
"bX c #DCE4E9",
"nX c #D8E5F0",
"mX c #E7E7E9",
"MX c #E2E4ED",
"NX c #E7EAF6",
"BX c #EFF0F6",
"VX c #F3F4FA",
"CX c #F4F5F8",
"ZX c #FCFDFE",
/* pixels */
"3 3 3 X.0Xz.' 3 3 3 3 3 3 3 3 3 3 3 3 3 3 3 3 3 3 3 3 3 3 3 3 3 3 3 3 3 3 3 3 3 3 3 3 3 3 3 3 3 3 3 3 3 3 3 3 3 3 X.0Xz.' 3 3 3 ",
"3 3 i 1XvX0._ i 3 3 3 3 3 3 3 3 3 3 3 3 3 3 3 3 3 3 3 3 3 3 3 3 3 3 3 3 3 3 3 3 3 3 3 3 3 3 3 3 3 3 3 3 3 3 3 3 i 1XvX0._ i 3 3 ",
"3 3 $.vXNXgX6._ 3 3 3 3 3 3 3 3 3 3 3 3 3 3 3 3 3 3 3 3 3 3 3 3 3 3 3 3 3 3 3 3 3 3 3 3 3 3 3 3 3 3 3 3 3 3 3 3 $.vXNXgX6.` 3 3 ",
"3 3 [.NXZXZXz.' 3 3 3 3 3 3 3 3 3 3 3 3 3 3 3 3 3 3 3 3 3 3 3 3 3 3 3 3 3 3 3 3 3 3 3 3 3 3 3 3 3 3 3 3 3 3 3 3 [.NXZXZXz.' 3 3 ",
"3 3 3XNXVXVX{.N 3 3 3 3 3 3 3 3 3 3 3 3 3 3 3 3 3 3 3 3 3 3 3 3 3 3 3 3 3 3 3 3 3 3 3 3 3 3 3 3 3 3 3 3 3 3 3 3 3XNXZXZX[.N 3 3 ",
"3 3 1XnXMXMX' C 3 3 3 3 3 3 3 3 3 3 3 3 3 3 3 3 3 3 3 3 5 5 u m V M i u 3 3 3 3 3 3 3 3 3 3 3 3 3 3 3 3 3 3 3 3 1XNXZXNX' C 3 3 ",
"3 3 ' qXNX+Xj M 3 3 3 3 3 3 3 3 3 3 3 3 3 3 3 5 M 6.oXuXzXxXxXcXzXlXqX`.9.$.+.C 3 3 3 3 3 3 3 3 3 3 3 3 3 3 3 3 ' 1XZXz.Z D 3 3 ",
"3 3 N { oXM D D 3 3 3 3 3 3 3 3 3 3 3 3 u X.l.*XuXjXxXvXMXMXMXMXMXlXcXfX*X[.l.@.O.( C 3 3 3 3 3 3 3 3 3 3 3 3 3 N ' oX( ..%.3 3 ",
"3 3 H H ( C ..D 3 3 3 3 3 3 3 3 3 3 n +.$XfXjXzXzXzXzXzXbXMXVXCXNXfXqX3X3X3X[.%X'.8.{ ! C n 3 3 3 3 3 3 3 3 3 3 H H ( #.&...3 3 ",
"3 3 N H N D ..M 3 3 3 3 3 3 3 3 M @.1XgXjXjXfXjXjXxXMXBXBXCXZXZXMXfXgXgXwX%XD.[.+XoX`.z.O.Z N M 3 3 3 3 3 3 3 3 N H ! ] %.V 3 3 ",
"3 3 Z Z N  .] < 3 3 3 3 3 3 i O.'.dXfXzXzXgXzXzXxXxXxXvXMXBXCXZXVXvXdXuX3XoX`.[.+X+X6.;.O.) ( Z C i 3 3 3 3 3 3 Z Z M ..%.u 3 3 ",
"zXuX+XZ r S Z j Z ( 3 3 5 Z 0.qXuXfXlXfXfXgXzXxXvXNXBXMXNXNXBXVXNXlXzXcXvXvXuX3X+XD.0.j.;.( B ! Z B Z 3 3 3 zXdX$XZ 0 M D M Z ( ",
"ZX X%Xj.y a > ) Z Z 3 3 X.6.2X4XuXfXdXdXdXgXbXNXzXoXB.N.G.G.K.K.K.K.G.D.S.B.l.gXcXlXoXj.@._ ( Z H Z B +.3 3 mX@XqXj.t 4 0 ) Z Z ",
"ZX{.'.{.O.f O.@.+.N 3 6.@.z.{.1X1X+X3XdXgXjX{.h.:.M.A.B.h.h.7.@.+.@.;.h.B.J.J.g.q.`.dXzX[.6.{ ( Z H H Z l.3 mXk.{.+XO.f O.@.+.H ",
"ZXwX{.#X2X,X{.%XqXy ' 6.7.z.'.[.`.+XzXMX+X>.1.v.3.7.$._ M j N B B ( ' } ' { =.A.F.n.:.oXnX3X6.O.) Z Z ( ) ' ZX6X@X1X1X@X`.{.@XM ",
"ZXVXBXMXZXBXvXlXD.Z O.+.6.'.`.[.1XNX1X>.*.>.,.+.Z d p j                     ! H ! +.N.v.o.$X0X;._ ' Z H ( M ZXVXZXZXZXBXvXlXD.B ",
"dX1X'.j.D.w.0._ o.*.' { D.[.oX3XdX<.o.o.[ O.B y                                 ! H ! O.h.=.{ dXw.' ' Z ( A uXqX X`.@Xj.j.+.) Z ",
"qXqX@X[.[.'.[.;.,.T ) $.{.`.1Xz.Y L Z +.O.y                                         ! ! O.@.@.Z Z.`.{ ( ! T qXwX$X{.*Xj.'.l.+.M ",
"1X%X%X1X*X*X@X6.3.T ( l.j.j.{ 1.K H @.( ! OX                                        -XZ Z ! +.@.( ;.j.O.! T 1X$X*X%X,X`.[.j.O.j ",
"@X0.OXOXG.K.n.p.u.I ( 6.{ M o.L H O.j L g.-X                                        4Xf.H B Z ' ;.' B 6.+.:.:XD.>.o.( O.+.B i r ",
"r 0 n m A A A A n 6 M } B N X.! { p i L n.:X                                        0Xg.m B B N ) 6.B ) 6.L u.i.i.i.u.u.u.I A r ",
"Z Z y y r r r r 0 < ' H N B Z ' y +.+.K A.:X                                        yXn.A 3.=.j ! O.{ d ' $.S.! p y r r r r r & ",
"|.0.) & 0 0 } M p @ M N B B O.j +.=.3.Y A.:X                                        0Xn.U 3.,.=.p Z ;.y M ( G.( B > > > } M j @ ",
".Xr.{ + y M z.! T > M Z B _ j o.=.>.3.Y S.qX                                        tXK.T R 3.>.=.y { O.j N R.X.( > 0 y z.! ! > ",
"#Xr.O.; N M `._ f.0 j N ! Z [ o.=.*.R *X-XtX                                        uX:X&X}.N.*.o.[ ) +.H m R.>.O.y M M `.( } 0 ",
" Xr.<.c C ` z.' f.y j M ! y ) [ *.h.<X<XT.tX                                        hX;XT.&X*X].<.o.! { Z N 9X2.} p N N z.( } 0 ",
"].k.N.A Z ..0.$.L.r j M B y r.k.Z. X*XM.;XsX                                        bXaXI.M.F.v.q.<.! ' ! K yXg.} M ` ' D.! } ; ",
"(.k.V.c B ..7.;.9X0 M H H d h.C.3.V.F.4X4XyX                                        iXyXsXT.n.N.2.E H ' ( H yXA.{ M ] #.S.( } & ",
").k.S.c D ..$.&.9Xd B ) ! j [ >.2.c.=X:XR.rX                                        iXrXrX6XM.v.1.Y d ) ( M rXA.} j  .#.V._ } > ",
"/.z.S.c  ...$.#.8XN B ( ( p n A 1.c.R.I.!.kX                                        nX^.~.;XM.c.U v p H ( u Q.h.' j  .#.N._ } ; ",
"(.k.S.c &...4.#.b.N B ( { d [ Y U a.I.P.!.jX                                        nX^.E.R.M.p.I J d Z H r U.,.{ p  .#.N.! O.> ",
"r.6.N.n ` ( 4.#.f.d ) ' +.d P *.E p.H.P.!.rX                                        iX!.E.R.s.a.U P d Z M t H.` _ j  .#.V.( O.@ ",
"' M :.b : y ! ' Y M ) ' @.p J >.2.a.m.I.Y.Q.                                        eXE.~.P.m.a.U J j H M y E i Z d p m :.' Z ; ",
"& < L K.0X+X7._ m M ( ' 0.p m P 2.d.p.H.W.rX                                        iX!.Y.i.c.E J J j Z j y ; ; d j.{.}.B.) r ) ",
"O.0 n i 0 0 > > 4 B ) } 7.p F J >.g.c.u.i.R.                                        8Xi.i.u.c.E Y Y j N j N H 0 r r 0 0 > > 4 @.",
"l.) ) =.=.*.o.o.u X.;.6.+.p -.g.g.2.c.p.p.=X                                        9Xs.s.d.v.B.S.g.j M j M l.;.7.8.4.7.8.8.} ;.",
",X X].1X&X0XuXjXtX=X>._ Z p } L *.R 1.T c.=X                                        rXm.c.d.2.g.v.o.d M j OXtXfXuXuX3X3X$X1X+X' ",
"6.8.7.8.w.-.B.N.}.9XZ Z j p _ K m n J R 1.&X                                        :Xd.1.:.*.o.h.) j N C 8X;XT.K.B.4.{ @.} y > ",
"8.0.7.w.h.q.V.S.*XrXG B j p j H i m K P :.OX                                        &XR Y Y P K @.H j M C 8X}.F.h.h.r.4.;.@.M ; ",
"8.8.8.B.h.q.F.S.4X9XL N j p p 0 4 G 5 2 n j.                                        }.A 1 m 6 5 d } j N C Q.D.F.q.>.6.' @.@.y > ",
"7.8.0.h.q.3.F.S.K.rXL M d p > > y B : H 5 l.                                        4Xq.m 7.+.t 4 y j j M I.B.G.h.2.+.} @.$.M : ",
"4.0.8.7.<.<.F.S.&XP.V j d i 4 > d j j ' ' (.                                        *Xj.) Z M j 0 0 j y i P.S.G.h.3.O.+.@.$.Z # ",
"7.8.6.;.<.<.N.S.&XP.d j d d [ d 0 y y j 4 k.                                        ].M r y 0 j [ =.j y y Y.F.G.B.3.O.} $.$.Z ; ",
"4.4.$.4.<.<.N.F.=XY.d d d d J K B > } j 0 #X                              . . .     #Xy 8.) B L d.M j t r P.J.XXB.>.O.' $.$.Z & ",
"4.;.+.;.@.3.h.S.=XW.d p d p d P =.4 j Z H ].            . . . . . . X X X X X X X X  X! ! M j :.Y y j t r b.T.XXg.} } _ O.} ! & ",
"_ } } @.{ <.h.h.-XY.i p p d y M ' > d & y y.      . . . X X X X X o o o o o o O O o #Xj 0 0 p *.} y j r r b.J.x.h.O.} ( _ ( H > ",
"} } ( +.} { o.;.&XH.i p d p y y N > j & p ].. . . X X o o o O O $ $ $ $ $ $ $ $ $ $ 6XM ) ( M *.o.y j r t b.J.x.&.O.{ ! Z H ! > ",
"' +.Z O._ ) X.$.OXb.s y d p t y y > j B H (.X X o o O $ $ $ $ % % * * * * * = = = *  XH Z B B P [ y j r y m.J.x.&. .H Z C Z Z > ",
"_ O.B } B N X.+.S.E i y p p y y y > d 0 4 e.o o O $ $ % % * * - - 8 8 8 8 8 8 8 8 8 C.0 M r M s G j j r r m.J.x.%.] Z Z N Z Z > ",
") { Z Z B M L ' ,.E i y p p y s c 0 0 & j (.O $ $ % * - - 8 9 9 q q q w e e e e e w y.d _ j $.t c t j r 0 b.J.9. .] Z Z B Z Z < ",
") ) B Z Z C C ( o.T i r p p t A < 0 j r.;.).$ % * - 8 9 q w e e e g h h h h h h h g  X+.O.B M y 5 6 j r r a.A.&. .] B Z M Z Z 0 ",
"M Z Z Z B B S Z ` J r t y p c , > 0 r y 0 r.* - 8 9 e e g h h h l z z z z z z z z l (.y t t 0 0 > 2 j r r U f.] #. .Z B Z Z B 0 ",
"p B B Z Z Z Z B Z 5 > 0 t p ; & > > > > 0 r.8 9 w e h h z x x x Q Q Q Q Q Q Q Q Q x k.0 4 > > > > & j 0 r c ` ` Z ` Z B B Z N > ",
"0 Z B M j p j N p r r 0 0 p > > > > 4 0 0 r.q e h z x Q Q ~ ~ ^ / / / / / / / ^ / ^ (.r 0 0 > > & & j < > 5 i p y M M d j B M > ",
"y d M : 5X5X<X>X>X>X>X|././..X.X|.|..X|._._.y.y.e.k.C.).).].].].].].]._.).(./.C.C.C.y.t.r.y.e.y.5././.5.e._._.e./.>X>X5.7 j p < ",
"0 4 r ; sX7X5X5X5X<X<X>X|.|.|.|.|.|._.|.|..X.X X|.|.|._._._././.C.k.y.y.C.C./._._.|..X|.|.|..X>X<X<X>X<X.X>X.X>X.X|.5X/.* r 0 > ",
"> & 0 > sXsX>X>X>X<X<X<X>X|.|.|.|.|.>X7X5X5X7X7X7XpX7X<X5X6X6X6X6X5X5X<X<X<X5X7XtX7X7XpX7X5X5X5X5X<X>X>X<X.X.X<X<X5XkX|.* > > > ",
"4 & > < 7X7X.X.X.X>X>X<X<X5X.X>X.X>X<X5X5.| 5.| | 5.| | | 5.-.5.8.e.t.k.t.y.e.e.5.y.|.7XpX5XpX<X5X<X5X<X<X<X5X<X.X|.5X|.* & > ; ",
": & ; & y.pX7X7XpXpXpXpXpXpXpXpXpX7XpX7X7 q k * * * * q q q q q q e f q q q q 7 7 = 7 <XsXsXsXsXsXsXsXkXpXpXsXsX5X.X<X_.% & & & ",
"; @ @ @ f q q q f q q q q f k k f k k k f f q 7 q q q q q 7 7 7 7 7 q q q q q f f k k W W k k k k k k f f f q q q q q q % @ ; 3 ",
"3 , # @ f q q q q q q q q 7 7 7 7 7 q q * /..X|././. X*X X<X6XtXaXkXhXtXpXpX5X>X>X>X>XW f q q q q q q q 7 7 7 7 7 7 q % % & 3 3 ",
"3 3 < & q q q f q f f f f W k k z W W k 7 _..X<X5X5X5X5X7XtXhXhXaXtX5X5XpXpX7X<X5X5X5X7 q f f f f f f k W k f k k k k f % < 3 3 ",
"3 3 3 3 3 3 3 3 3 3 3 5 3 3 3 3 3 3 3 3 $ k k f W k k k W W k k q q 7 7 q k k k k f f @ @ @ @ @ @ @ @ & & ; : : , < 3 3 3 3 3 3 ",
"3 3 3 3 3 3 3 3 3 3 3 3 3 3 3 3 3 3 3 3 & > < 0 0 0 0 0 0 > & & & & & & ; ; ; ; ; > > & & ; : : , < 3 3 3 3 3 3 3 3 3 3 3 3 3 3 "
};
