/* XPM */
static char *result[] = {
/* columns rows colors chars-per-pixel */
"64 64 232 2 ",
"   c #000000",
".  c #070806",
"X  c #080907",
"o  c #0B0C0A",
"O  c #10100E",
"+  c #090911",
"@  c #0E0F18",
"#  c #0F101B",
"$  c #151613",
"%  c #171815",
"&  c #191A16",
"*  c #12131D",
"=  c #1C1D1B",
"-  c #1F201C",
";  c #22221E",
":  c #161722",
">  c #171925",
",  c #1A1B25",
"<  c #1C1D2B",
"1  c #1C1F31",
"2  c #1E202A",
"3  c #1E2233",
"4  c #1B2138",
"5  c #242423",
"6  c #272822",
"7  c #292924",
"8  c #22232D",
"9  c #2C2C2C",
"0  c #2F302A",
"q  c #31322C",
"w  c #252632",
"e  c #272833",
"r  c #2A2B35",
"t  c #262639",
"y  c #272B3C",
"u  c #2D2E39",
"i  c #322A3E",
"p  c #27303E",
"a  c #2F303B",
"s  c #343434",
"d  c #373830",
"f  c #3A3B33",
"g  c #31323C",
"h  c #3B3B3B",
"j  c #3F4138",
"k  c #42433A",
"l  c #48493F",
"z  c #1D2648",
"x  c #262D44",
"c  c #2D3347",
"v  c #343642",
"b  c #363844",
"n  c #393A46",
"m  c #35364B",
"M  c #37384A",
"N  c #3B3D49",
"B  c #273555",
"V  c #403B4E",
"C  c #433A52",
"Z  c #493D58",
"A  c #3E414C",
"S  c #2D4153",
"D  c #3B4453",
"F  c #3B4A5C",
"G  c #334F70",
"H  c #395773",
"J  c #366779",
"K  c #424242",
"L  c #4A4B41",
"P  c #41434E",
"I  c #4F5146",
"U  c #525449",
"Y  c #434552",
"T  c #464954",
"R  c #494B56",
"E  c #454458",
"W  c #4D445B",
"Q  c #474A5A",
"!  c #4A4D5A",
"~  c #51475F",
"^  c #4E515D",
"/  c #52535E",
"(  c #59595A",
")  c #474C60",
"_  c #544463",
"`  c #554A64",
"'  c #594A67",
"]  c #5C4B6B",
"[  c #4E5261",
"{  c #475868",
"}  c #535562",
"|  c #565965",
" . c #5A5C67",
".. c #58556B",
"X. c #5B5D6A",
"o. c #415D72",
"O. c #635C6F",
"+. c #634C74",
"@. c #665675",
"#. c #4D666E",
"$. c #57626A",
"%. c #5E616D",
"&. c #496977",
"*. c #566876",
"=. c #5C6C76",
"-. c #5A737C",
";. c #626364",
":. c #62646E",
">. c #6B6B6B",
",. c #626572",
"<. c #666975",
"1. c #6A6B75",
"2. c #676A7C",
"3. c #6C6D7B",
"4. c #64737C",
"5. c #6D717C",
"6. c #757575",
"7. c #73747B",
"8. c #76797C",
"9. c #7C7C7C",
"0. c #2D5087",
"q. c #2B559B",
"w. c #3B7A8C",
"e. c #4A6A80",
"r. c #587985",
"t. c #4C7894",
"y. c #697A85",
"u. c #727582",
"i. c #7B7D82",
"p. c #767988",
"a. c #7B7D8C",
"s. c #787A92",
"d. c #3F98A4",
"f. c #418B99",
"g. c #598992",
"h. c #40919E",
"j. c #64848C",
"k. c #6B828C",
"l. c #7F8183",
"z. c #648393",
"x. c #668A95",
"c. c #6C8C94",
"v. c #7E8190",
"b. c #768B96",
"n. c #69949B",
"m. c #74939B",
"M. c #7A959F",
"N. c #4E90A6",
"B. c #6B99A5",
"V. c #6B9BA6",
"C. c #7B9BA4",
"Z. c #739BB4",
"A. c #4FABB8",
"S. c #75A7B2",
"D. c #4CB4C0",
"F. c #72B1C2",
"G. c #838384",
"H. c #86898C",
"J. c #8B8C8C",
"K. c #838594",
"L. c #868995",
"P. c #8B8E93",
"I. c #868A99",
"U. c #8B8D9B",
"Y. c #8B929C",
"T. c #929393",
"R. c #93969C",
"E. c #9B9B9B",
"W. c #888BA4",
"Q. c #8D91A0",
"!. c #879AA6",
"~. c #9295A4",
"^. c #9699A4",
"/. c #989BA7",
"(. c #9A9DAB",
"). c #88A3AC",
"_. c #9BA2A5",
"`. c #9DA1AB",
"'. c #89ABB3",
"]. c #99A6B3",
"[. c #8EB1B9",
"{. c #A3A3A3",
"}. c #A2A4AE",
"|. c #ACACAC",
" X c #A2A5B3",
".X c #A3A9B4",
"XX c #AAADB3",
"oX c #A6ABBA",
"OX c #A9ADBD",
"+X c #AAB2B6",
"@X c #B3B3B4",
"#X c #B5B8BA",
"$X c #BCBCBC",
"%X c #87B4C4",
"&X c #95B8C9",
"*X c #AAB5C2",
"=X c #B3B6C4",
"-X c #B9BBC7",
";X c #91C1CE",
":X c #BBC2C8",
">X c #BEC2CE",
",X c #AAC8D3",
"<X c #BCC2D1",
"1X c #BFCAD8",
"2X c #C3C4C4",
"3X c #C2CBCE",
"4X c #CACACA",
"5X c #C2C6D3",
"6X c #C6CAD6",
"7X c #C3C6D8",
"8X c #C6CADA",
"9X c #CACDDB",
"0X c #C7D3D6",
"qX c #CED1DE",
"wX c #D1D4D9",
"eX c #CED2E2",
"rX c #D2D5E3",
"tX c #D6D9E5",
"yX c #D6DAE8",
"uX c #D5D9EB",
"iX c #DADDEC",
"pX c #DEE1EE",
"aX c #E7E7E9",
"sX c #E2E4ED",
"dX c #E2E6F4",
"fX c #E6E9F4",
"gX c #EAECF4",
"hX c #EAEDFA",
"jX c #EFF0F6",
"kX c #F3F4FA",
"lX c #F4F5F8",
"zX c #FCFDFE",
/* pixels */
"1 1 1 [ *Xa.Q 1 1 1 1 1 1 1 1 1 1 1 1 1 1 1 1 1 1 1 1 1 1 1 1 1 1 1 1 1 1 1 1 1 1 1 1 1 1 1 1 1 1 1 1 1 1 1 1 1 1 [ *Xa.Q 1 1 1 ",
"1 1 y  XiX3.Q y 1 1 1 1 1 1 1 1 1 1 1 1 1 1 1 1 1 1 1 1 1 1 1 1 1 1 1 1 1 1 1 1 1 1 1 1 1 1 1 1 1 1 1 1 1 1 1 1 y  XiX3.Q y 1 1 ",
"1 1 X.iXhX9X,.Q 1 1 1 1 1 1 1 1 1 1 1 1 1 1 1 1 1 1 1 1 1 1 1 1 1 1 1 1 1 1 1 1 1 1 1 1 1 1 1 1 1 1 1 1 1 1 1 1 X.iXhX9X,.Q 1 1 ",
"1 1 I.dXzXzXa.Q 1 1 1 1 1 1 1 1 1 1 1 1 1 1 1 1 1 1 1 1 1 1 1 1 1 1 1 1 1 1 1 1 1 1 1 1 1 1 1 1 1 1 1 1 1 1 1 1 I.dXzXzXa.Q 1 1 ",
"1 1 OXfXkXkXU.b 1 1 1 1 1 1 1 1 1 1 1 1 1 1 1 1 1 1 1 1 1 1 1 1 1 1 1 1 1 1 1 1 1 1 1 1 1 1 1 1 1 1 1 1 1 1 1 1 OXhXzXzXU.b 1 1 ",
"1 1  XpXdXsX! M 1 1 1 1 1 1 1 1 1 1 1 1 1 1 1 1 1 1 1 1 3 3 t c m c y t 1 1 1 1 1 1 1 1 1 1 1 1 1 1 1 1 1 1 1 1  XdXzXfX! M 1 1 ",
"1 1 Q =XfX~.g v 1 1 1 1 1 1 1 1 1 1 1 1 1 1 1 3 v ,.Q.<XrXtXyXyXrXeX=XK.2.X.} M 1 1 1 1 1 1 1 1 1 1 1 1 1 1 1 1 Q  XzXa.N C 1 1 ",
"1 1 b ^ Q.v Z Z 1 1 1 1 1 1 1 1 1 1 1 1 t [ p.`.>XqXyXiXsXsXsXsXsXeXyX8X`.I.p. .} Y M 1 1 1 1 1 1 1 1 1 1 1 1 1 b ! Q.Y ] +.1 1 ",
"1 1 A A Y M ] C 1 1 1 1 1 1 1 1 1 1 c | /.6XqXrXrXrXrXtXsXsXkXlXgX8X=XOXOXoXU.(.L.1.^ P M x 1 1 1 1 1 1 1 1 1 1 A A Y ] @._ 1 1 ",
"1 1 b A b C _ c 1 1 1 1 1 1 1 1 v  ..X9XqXqX6XqXqXyXsXjXjXlXzXzXsX8X8X9X-X(.v.I.~.Q.K.a.} N b v 1 1 1 1 1 1 1 1 b A P ~ +.M 1 1 ",
"1 1 N N b _ W < 1 1 1 1 1 1 y } L.7X6XrXrX9XrXrXtXtXyXiXsXgXlXzXkXiX7X<XoXQ.K.I.~.~.,.%.} T Y N M y 1 1 1 1 1 1 N N v _ +.t 1 1 ",
"rX<X~.N w V V g N Y 1 1 3 N 3.=X>X6XeX8X8X9XtXtXiXfXgXdXgXgXgXkXhXeXrXyXiXiX<X.XQ.v.3.u.%.Y n Y N n N 1 1 1 rX7X/.N 8 v C v N Y ",
"zXY.(.u.r i , T N N 1 1 [ ,.OXOX>X8X5X5X7X9XpXfXrXQ.k.j.m.M.C.C.C.C.b.b.c.k.p.8XyXeXQ.u. .R Y N A N n | 1 1 gX^.=Xu.e 2 8 T N N ",
"zXU.L.U.} s }  .| b 1 ,. .a.Y..X.X~.oX5X9XqXY.y.&.g.x.k.y.y.<. .| | %.y.k.B.B.r.4.K.7XrXI.,.^ Y N A A N p.1 aXp.U.~.} s }  .| A ",
"zX-XY./..X}.U.(.=Xr Q ,.<.v.L.I.K.~.rXdX~.*.&.j.-.<.X.R v g b n n Y ! / ! ^ $.z.n.g.&.Q.pXoX,.} T N N Y T Q zX#X^. X.X^.K.U./.v ",
"zXkXjXsXzXhXiXeXv.N } | ,.L.K.I. XfX.X#.#.#.*.| N a r g                     P A P | j.g.{ /.*X%.R ! N A Y v zXkXzXzXzXhXiXeXv.n ",
"5X XL.u.v.5.3.Q { o.! ^ v.I.Q.oX5X=.{ { ^ } n r                                 P A P [ y.$.^ 7X5.! ! N Y B >X=XR.K./.u.u.| T N ",
"=X=X^.U.U.L.U.%.*.H T X.U.K. Xa.H F N | } r                                         P P }  . .N v.K.^ Y P G =X-X/.Y.`.u.L.p.} v ",
" X(.(..X`.`.^.,.-.H Y p.u.u.^ &.D A | Y P                                             N n P |  .Y %.u.} P H .X/.`.(.}.K.U.u.| g ",
"~.3.!.!.m.C.g.0.0.G Y ,.^ v o.F A } g                                                   A n N ! %.! n ,.| &.].b.*.{ Y } } n y w ",
"w 8 y c B B B B x 4 v / n b ) P ^ u                                                         n b T ,.n T ,.F 0.q.q.q.0.0.0.G B w ",
"N n r r w w w w 8 < ! A b n N ! r                                                             g P } ^ a ! X.c.P u r w w w w w * ",
"T.3.T * 8 8 / v u @ v n n n } g                                                                 u N %.r v Y m.Y n , , , / v g @ ",
"E.7.^ + r v a.P H , v N n R g                                                                     r ^ } g b S.{ Y , 8 r a.P P , ",
"^.7.} : b v K.R t.8 g b P N                                                                         T | N c S.*.} r v v K.Y / 8 ",
"R.7.=.z M E a.! t.r g v P r                                                                         P ^ N v &X-./ u n b a.Y / 8 ",
"P.i.j.B N ] 3.X.Z.w g v n r                                                                         P ! Y D ,Xr./ v E ) b.P / : ",
"H.i.j.z n ' <.O.&X8 v A A u                                                                         A ! Y A ,Xz.^ v W ..c.Y / * ",
"H.i.c.z C ] X.O.&Xa n T P g                                                                         g T Y v ;Xz./ g _ ..x.R / , ",
"G.a.c.z ` ] X...%Xb n Y Y u                                                                         u P Y t F.y.! g ` ..j.R / : ",
"G.i.c.z @.' :...N.b n Y ^ u                                                                         a A A w A.*.^ u ` ..j.P } , ",
"7.:.j.x W E %...t.u T ! | u                                                                         a A b e N.E R g _ [ z.Y } @ ",
"! v &.B > r P ! F v T !  .a                                                                         g A v r J y N a u c &.Q N : ",
"* < F C.*X~.<.T c g Y ! 3.a                                                                         g N g r : : a u.U.Y.k.T w T ",
"} 8 x y 8 8 , , 2 n T / <.u                                                                         g b g b A 8 w w 8 8 , , 2  .",
"p.T T $.#.#.{ o.t ) %.,.| u                                                                         g v g v p.%.<.1.:.<.1.1./ %.",
"}.R.P..X).*X1XqX:X'.#.R N u                                                                         g v g !.<X1X<X<XoXOX/. X~.! ",
",.1.<.1.5.%.k.j.Y.&XN N g u                                                                         g b M %X[.S.C.k.:.^  ./ r , ",
"1.3.<.5.y.4.j.c.`.;XD n g u                                                                         g v m %XI.n.y.y.7.:.%. .v : ",
"1.1.1.k.y.4.n.c.+X&XF b g u                                                                         g v M F.b.n.4.*.,.!  . .r , ",
"<.1.5.y.4.4.n.c.C.;XF b g a                                                                         g g v A.k.m.y.-.| /  .X.v > ",
":.5.1.<.*.=.n.c.).d.m g a a                                                                         g r y A.c.m.y.-.| |  .X.N # ",
"<.1.,.%.=.=.j.c.).A.a a a a                                                                         g r e A.n.m.k.-.} / X.X.N : ",
":.:.X.:.=.=.j.n.'.A.a a a a                                               . . . . . . . . . . . . . g e e A.B.W.k.*.} ! X.X.N * ",
":.%.| %. .-.y.c.'.D.u u a u                           . . . . . . . . X X X X o o o o o o o o o o o g e w f.S.W.r./ / R } / P * ",
"R / /  .^ =.y.y.].A.y u u u                   . . . . . o o o o o o o o o o o O O O O O O O O O O O g w w f.B.s.y.} / Y R Y A , ",
"/ / Y | / ^ { %.).h.y u a u             . . . . X o o o o o O O $ $ % % % % % % % % % % % % % % % % g w e f.B.s.@.} ^ P N A P , ",
"! | N } R T ) X.!.f.p r a u       . . . . X o o o o O $ $ % % & & = = = = = - - - - - - = = = = - - g w r h.B.s.@.` A N M N N , ",
"R } n / n v ) | c.J y r u u   . . . . o o o o O $ % % & & = = ; ; 5 5 5 5 7 7 7 7 7 7 7 7 7 7 7 7 7 g w w h.B.s.] ~ N N b N N , ",
"T ^ N N n v F ! *.J y r u u . . . o o o o O % % & = = ; ; 5 7 7 9 9 9 0 q q q q q q q q q q q q q q g w 8 f.B.2.` ~ N N n N N < ",
"T T n N N M M Y { H y w u u . o o o o O % % & = ; ; 6 7 9 0 q q q d d d d d d d d d d d d d d d d d g w w w.x.O.` W n N b N N 8 ",
"v N N N n n V N ) S w e r u o o o O % % & = ; 5 7 9 q q d f f f j k k k k k k k k k k k k k k k k k g w w G e.~ ] ` N n N N n 8 ",
"u n n N N N N n N 3 , 8 e u o O % % & = ; 5 7 9 q d d f k l l l L L L L L L L L L L L L L L L L L L g 8 w z E E N W N n n N b , ",
"8 N n v g u g b u w w 8 8 u $ % & = ; 6 7 0 q d f k l L L I I U U U U U U U U U U U U U U U U U U U g < , 3 y u r v v a g n v , ",
"r a v > @X@X|.{.{.{.{.T.G.G.E.E.T.T.E.T.J.J.9.9.6.i.l.H.H.P.P.P.P.P.P.J.J.H.G.l.l.l.i.8.6.9.6.9.>.G.G.>.6.J.J.6.G.{.{.>.5 g u < ",
"8 2 w : 4X$X@X@X@X|.|.{.T.T.T.T.T.T.J.T.T.E.E.R.T.T.T.J.J.J.G.G.9.i.9.9.l.l.G.J.J.T.E.T.T.T.E.{.|.|.{.|.E.{.E.{.E.T.@XG.= w 8 , ",
", * 8 , 4X4X{.{.{.|.|.|.{.T.T.T.T.T.{.$X@X@X$X$X$X2X$XXX@X#X#X#X#X@X+XXX|.|.@X$X:X$X$X2X$X@X@X@X@X|.{.{.|.E.E.|.|.@XwXT.= , , , ",
"2 * , < $X$XE.E.E.{.{.|.|.@XE.{.E.{.|.@X>.( >.( ( ;.( ( ( ;.%.;.>.6.8.i.8.9.6.6.;.9.T.$X2X@X2X|.@X|.@X|.|.|.@X|.E.T.@XT.= * , : ",
"> * : * 9.2X$X$X2X2X2X2X2X2X2X2X2X$X2X$X5 9 h = = = = 9 9 9 9 9 9 s s 9 9 9 9 5 5 ; 5 |.4X4X4X4X4X4X4XwX2X2X4X4X@XE.|.J.& * * * ",
": @ @ @ s 9 9 9 s 9 9 9 9 s h h s h h h s s 9 5 9 9 9 9 9 5 5 5 5 5 9 9 9 9 9 s s h h K K h h h h h h s s s 9 9 9 9 9 9 & @ : 1 ",
"1 < # @ s 9 9 9 9 9 9 9 9 5 5 5 5 5 9 9 = G.E.T.G.G.R._.R.XX#X:X3XwX0X>X2X2X@X{.{.{.{.K s 9 9 9 9 9 9 9 5 5 5 5 5 5 9 & & * 1 1 ",
"1 1 < * 9 9 9 s 9 s s s s K h h K K K h 5 J.E.|.@X@X@X@X$X:X0X0X6X:X@X@X2X2X$X|.@X@X@X5 9 s s s s s s h K h s h h h h s & < 1 1 ",
"1 1 1 1 1 1 1 1 1 1 1 3 1 1 1 1 1 1 1 1 % h h s K h h h K K h h 9 9 5 5 9 h h h h s s @ @ @ @ @ @ @ @ * * : > > < < 1 1 1 1 1 1 ",
"1 1 1 1 1 1 1 1 1 1 1 1 1 1 1 1 1 1 1 1 * , < 8 8 8 8 8 8 , * * * * * * : : : : : , , * * : > > < < 1 1 1 1 1 1 1 1 1 1 1 1 1 1 "
};
