/* XPM */
static char *result[] = {
/* columns rows colors chars-per-pixel */
"64 64 189 2 ",
"   c None",
".  c #010000",
"X  c #0D0000",
"o  c #1B0000",
"O  c #190601",
"+  c #0F1103",
"@  c #151901",
"#  c #1A1D01",
"$  c #101400",
"%  c #27070A",
"&  c #2B171A",
"*  c #1E2101",
"=  c #1A200B",
"-  c #222501",
";  c #252A01",
":  c #2A2E01",
">  c #2C3201",
",  c #2F3609",
"<  c #313602",
"1  c #343B02",
"2  c #383E03",
"3  c #34390C",
"4  c #252D13",
"5  c #2B3416",
"6  c #373F16",
"7  c #362A16",
"8  c #1D2222",
"9  c #332B2B",
"0  c #383132",
"q  c #242928",
"w  c #422729",
"e  c #4A3035",
"r  c #364202",
"t  c #3D4402",
"y  c #3C4A03",
"u  c #3F4D0B",
"i  c #394017",
"p  c #404603",
"a  c #444C02",
"s  c #484F03",
"d  c #4C4F0A",
"f  c #445203",
"g  c #4C5402",
"h  c #4F5803",
"j  c #49510C",
"k  c #505705",
"l  c #545C03",
"z  c #535B0F",
"x  c #414716",
"c  c #4A551B",
"v  c #555B1B",
"b  c #515717",
"n  c #576002",
"m  c #5B6403",
"M  c #5F6903",
"N  c #5C6509",
"B  c #5D6516",
"V  c #636C03",
"C  c #626C09",
"Z  c #677104",
"A  c #6A7503",
"S  c #6E7902",
"D  c #6F7A0A",
"F  c #737E03",
"G  c #717E08",
"H  c #616A15",
"J  c #697213",
"K  c #6D761C",
"L  c #6F7919",
"P  c #565C24",
"I  c #55582D",
"U  c #4D5134",
"Y  c #5D6F2C",
"T  c #586528",
"R  c #5E6332",
"E  c #636C24",
"W  c #666D29",
"Q  c #6C752F",
"!  c #737D22",
"~  c #636A33",
"^  c #636938",
"/  c #6A7834",
"(  c #747C38",
")  c #543D45",
"_  c #574747",
"`  c #594444",
"'  c #5B464D",
"]  c #594753",
"[  c #6C4F52",
"{  c #686B49",
"}  c #74794C",
"|  c #717545",
" . c #686A57",
".. c #6D705A",
"X. c #777A56",
"o. c #646968",
"O. c #7E6C6C",
"+. c #7E6D77",
"@. c #7C7376",
"#. c #797B70",
"$. c #787A65",
"%. c #857475",
"&. c #768103",
"*. c #798503",
"=. c #7D8904",
"-. c #768109",
";. c #79850A",
":. c #7F8A0C",
">. c #77822A",
",. c #788323",
"<. c #79843B",
"1. c #7F826A",
"2. c #818D05",
"3. c #848F16",
"4. c #8A961C",
"5. c #8A9617",
"6. c #8E9A21",
"7. c #8B982F",
"8. c #919E22",
"9. c #828D33",
"0. c #87913E",
"q. c #8C983F",
"w. c #97A52B",
"e. c #9CA92D",
"r. c #A7B63B",
"t. c #A8B737",
"y. c #808643",
"u. c #899542",
"i. c #919C46",
"p. c #848C54",
"a. c #8F9951",
"s. c #9BA84C",
"d. c #9AA751",
"f. c #A2AF4F",
"g. c #ACBB42",
"h. c #A9B656",
"j. c #ACBA53",
"k. c #A6B451",
"l. c #8C8E68",
"z. c #8A9166",
"x. c #93966C",
"c. c #8B8C7E",
"v. c #949878",
"b. c #9BA07A",
"n. c #B5C447",
"m. c #B6C64C",
"M. c #BDCC53",
"N. c #B9C85C",
"B. c #C4D55B",
"V. c #C5D662",
"C. c #CCDD64",
"Z. c #CFE067",
"A. c #D2E367",
"S. c #D3E46B",
"D. c #D7E96C",
"F. c #D8EB6E",
"G. c #927F84",
"H. c #8B8885",
"J. c #928585",
"K. c #958B8C",
"L. c #979787",
"P. c #8B8990",
"I. c #959895",
"U. c #9A9A91",
"Y. c #949498",
"T. c #9A8C94",
"R. c #A49798",
"E. c #9DA094",
"W. c #A4A59E",
"Q. c #AAAC9C",
"!. c #ACB194",
"~. c #A6A8A5",
"^. c #B6B8A8",
"/. c #B2AFB0",
"(. c #B4B3BC",
"). c #BDB4B8",
"_. c #C6BBBE",
"`. c #CBCFB7",
"'. c #B9B9C3",
"]. c #C0BFC9",
"[. c #D6D6D9",
"{. c #CAC8D6",
"}. c #E2E3DC",
"|. c #DCDCE9",
" X c #E8E7E7",
".X c #F4EEF7",
"XX c #F3F4FE",
"oX c #FEFEFF",
"OX c #F5F8F6",
/* pixels */
"                                                                                                                                ",
"                                                      -                                                                         ",
"                                                  - ^ b.z.x                                                                     ",
"                                                - x.OX).G.L.c                                                                   ",
"                                                R OX_.' 9 ) l.                                                                  ",
"                                                X.oXR.0 q & L.,                                                                 ",
"                                              + | oX X_ % T.!.*                                                                 ",
"                                              n l Q.oXoX.X}.~                                                                   ",
"                                            l F - 6 v.`.^.^                                                                     ",
"                                          - =.t       - *                                                                       ",
"                                          g =.                                                                                  ",
"                                          Z A                                                                                   ",
"                                          A A                                                                                   ",
"                                          Z &.      2 k M V V V n a ;                                                           ",
"                                          M =.2 g F =.=.=.=.2.&.A A M a #                                                       ",
"                                          t =.V F =.F F &.F g t g a s M M 1                                                     ",
"                                        * k F &.F &.*.&.=.l < V l n &.S a I I.0                                                 ",
"                                      # A =.F F &.*.A F &.A S A k S E 7 o % %.I.+                                               ",
"                                      V =.F F &.&.g 1 V =.*.=.g a p.P.e R.9 X J.^                                               ",
"                                    g =.&.F &.&.h t k n Z &.*.t ..OX/.& o.8 X +.p.a                                             ",
"                                  : F *.F &.*.M a g l l l a n z ].oX Xe . . w (./ M -                                           ",
"                                  k &.&.F &.S l g V &.M d #.1.a L.oXoX[.O.O.[.~.l M V l                                         ",
"                                ; V &.&.F &.F g M G v O o ) (.} t ~.oXoXoXoX'.v V F *.>                                         ",
"                                t A &.F F &.S t N v.] [ @.. ' E.n j ..W.~.$.j Z *.*.l                                           ",
"                                g A &.F F =.V 3 Q.XX_ _ o.. w Y.J F n g g n F *.&.g N <                                         ",
"                                l A &.F F *.M  .XXoXJ.X . X @.~.M *.*.&.&.&.=.F W Y.,.2                                         ",
"                              @ n A &.&.F N V b H.oXOXK.` J.|.X.V &.F F F &.F k P ~.y.<                                         ",
"                              # n Z &.&.F ! >.N a.[.oXoXoXoXH.k &.F F &.*.S c l &.B v >                                         ",
"                              @ l V F A M ,.d.W 0.U L./.W.{ h F &.F &.&.l 1.(.L &.&.S ;         I                               ",
"                                l V F C 0.<.H A V t a h g M &.*.*.&.V l g X.{.( S *.S         ; B i <.i                         ",
"                                a M A F ,.>.A &.*.V n *.*.=.F A V v U.} F S ~ P F =.l       2 A F D Q                           ",
"                                < V M =.V M *.F &.F l n k g ~ { g B '.x.A =.A V &.=.<     2 V A =.&.z ~                         ",
"                                  N m A F n F &.F =.M g V l c.U.A *.E T F &.&.=.=.V     > V m m A S H ~                         ",
"                                  2 V m &.M V =.F &.A l =.*.~ R F &.S V &.F &.F S >   * m M N N V l                             ",
"                                    k M V F n S &.F *.n V =.M M *.F &.&.F =.F V a     k V N N V l *                             ",
"                                    * m m Z V M &.S =.V n &.&.&.F F F &.=.S M g     a V N m V l                                 ",
"                                      ; m M V n Z S F F n F &.&.=.=.A S V k a     : V m m V a                                   ",
"                                        * l V m k A A A l A =.F V M g t p p       l M V m <                                     ",
"                                            2 N l m F V M m l a g n V V A V l < < M V g *                                       ",
"                                                < t V =.F t a Z *.=.=.&.F F &.*.V a <                                           ",
"                                                    # A A a A =.&.F S F 4.w.6.;.*.g                                             ",
"                                                        t M &.&.F S 3.m.C.A.Z.M.8.F :                                           ",
"                                                        g F &.F S 3.B.D.Z.C.C.S.C.e.M                                           ",
"                                                      < A &.&.F -.M.S.C.C.C.C.C.S.C.5.1                                         ",
"                                                      k F &.F A e.S.C.C.C.C.C.C.C.S.n.V                                         ",
"                                                    ; V F &.F &.M.S.C.C.C.C.C.C.C.A.C.5.<                                       ",
"                                                    p A &.&.F 4.C.A.Z.C.C.C.C.C.C.C.S.t.n                                       ",
"                                                    l S &.F n ! h.V.V.C.C.C.C.C.C.C.S.n.&.;                                     ",
"                                                  - V F &.L ( f.( i.j.Z.C.C.C.C.C.C.S.M.2.g                                     ",
"                                                  2 A &.C u.0.q.u.h.j.A.C.C.C.C.C.C.A.M.:.Z       5 4 5                         ",
"                                                  a F A k L A V 7.<.s.D.C.C.C.C.C.C.A.M.;.&.:   i T Y Y =                       ",
"                                                  l F M M &.F &.S l k.D.C.C.C.C.C.C.A.M.;.*.g > f y u c / 6                     ",
"                                                * M S l S &.F F F J N.S.C.C.C.C.C.C.S.m.F &.V y y a t c T                       ",
"                                                : A V l &.F F &.A K V.A.C.C.C.C.C.C.S.r.S &.S t y a f f #                       ",
"                                                2 A n V =.F F &.V 9.S.C.C.C.C.C.C.C.A.8.A &.&.g y a f r                         ",
"                                                p Z l S =.F F &.M s.D.C.C.C.C.C.C.S.M.;.F &.=.h r f f @                         ",
"                                                a V n Z Z F &.F N j.F.C.C.C.C.C.Z.S.w.A F F =.k r f ;                           ",
"                                                s m l m m F *.A g 4.C.S.C.C.C.Z.D.g.F F F F =.h y 1                             ",
"                                                < l m F A F =.M m F 6.B.S.S.S.Z.g.-.S F F =.F a r                               ",
"                                                  1 n Z A S &.l A *.S :.e.r.r.8.&.F =.*.=.F g 1 $                               ",
"                                                    g S F 2.A l =.=.=.F F F F S F F F F V f 1 @                                 ",
"                                                    > &.=.V ; # : : : : : ;         - > > > @                                   ",
"                                                      * ;                                                                       ",
"                                                                                                                                "
};
