/* XPM */
static char *result[] = {
/* columns rows colors chars-per-pixel */
"64 64 183 2 ",
"   c None",
".  c #0B0909",
"X  c #120202",
"o  c #1F0203",
"O  c #131501",
"+  c #161A01",
"@  c #191E01",
"#  c #181516",
"$  c #2A0707",
"%  c #280E11",
"&  c #311214",
"*  c #341818",
"=  c #1E2201",
"-  c #1E2108",
";  c #212501",
":  c #262A02",
">  c #2A2E02",
",  c #2C3302",
"<  c #2F340F",
"1  c #313602",
"2  c #343B02",
"3  c #393E02",
"4  c #373C0C",
"5  c #2D3616",
"6  c #363E15",
"7  c #343722",
"8  c #42262D",
"9  c #422E2C",
"0  c #4E3B36",
"q  c #543F3F",
"w  c #364202",
"e  c #3C4402",
"r  c #3C4902",
"t  c #3E4C08",
"y  c #3C4114",
"u  c #3A431D",
"i  c #3D4A1D",
"p  c #3F4526",
"a  c #444C02",
"s  c #484F02",
"d  c #464D09",
"f  c #404703",
"g  c #445302",
"h  c #4B5202",
"j  c #4A5608",
"k  c #545C02",
"l  c #545B0A",
"z  c #42471B",
"x  c #454D1B",
"c  c #4B561B",
"v  c #545B13",
"b  c #545A1B",
"n  c #585F19",
"m  c #505618",
"M  c #576003",
"N  c #5B6402",
"B  c #5E6803",
"V  c #5B640C",
"C  c #5F680E",
"Z  c #5C6413",
"A  c #5F671D",
"S  c #626C03",
"D  c #656E0B",
"F  c #667104",
"G  c #6B7503",
"H  c #6E7902",
"J  c #6F790C",
"K  c #737D03",
"L  c #737E0B",
"P  c #646D13",
"I  c #626A19",
"U  c #677015",
"Y  c #697112",
"T  c #6D751B",
"R  c #727D10",
"E  c #444A20",
"W  c #455321",
"Q  c #555B2E",
"!  c #585F2C",
"~  c #545A21",
"^  c #595D33",
"/  c #5C6626",
"(  c #5C6130",
")  c #636A22",
"_  c #636A2C",
"`  c #64772E",
"'  c #737B2B",
"]  c #707927",
"[  c #616A31",
"{  c #656C3E",
"}  c #686C3F",
"|  c #6C7535",
" . c #534247",
".. c #605857",
"X. c #5E6242",
"o. c #666B42",
"O. c #6C704F",
"+. c #71754B",
"@. c #777B53",
"#. c #767A57",
"$. c #705E60",
"%. c #69686A",
"&. c #75626A",
"*. c #7C7F63",
"=. c #7F7A6F",
"-. c #7E6F76",
";. c #85757D",
":. c #768104",
">. c #798504",
",. c #7D8904",
"<. c #7D890D",
"1. c #77821A",
"2. c #7B8428",
"3. c #7B8536",
"4. c #7E8840",
"5. c #7F8265",
"6. c #7E8178",
"7. c #818D04",
"8. c #808C0E",
"9. c #818D13",
"0. c #879319",
"q. c #89961D",
"w. c #88941B",
"e. c #8E9A2D",
"r. c #909E22",
"t. c #848F37",
"y. c #8C983E",
"u. c #95A326",
"i. c #98A52C",
"p. c #9DAB31",
"a. c #A6B53A",
"s. c #ABBA3B",
"d. c #82884E",
"f. c #95A14A",
"g. c #AEBD43",
"h. c #A8B651",
"j. c #868B67",
"k. c #8D9169",
"l. c #8B8A76",
"z. c #8D9178",
"x. c #929571",
"c. c #9DA07F",
"v. c #B7C64A",
"b. c #B6C54B",
"n. c #BACA51",
"m. c #B4C359",
"M. c #BFD057",
"N. c #C4D55B",
"B. c #C1D153",
"V. c #CCDD64",
"C. c #CFE067",
"Z. c #CFE168",
"A. c #D3E46B",
"S. c #D6E86F",
"D. c #7E7E80",
"F. c #8D8484",
"G. c #8C8A89",
"H. c #908585",
"J. c #949682",
"K. c #9E8F93",
"L. c #9B9C94",
"P. c #999798",
"I. c #A9AD8B",
"U. c #A2A39F",
"Y. c #B0B399",
"T. c #ACAAAD",
"R. c #A2A1AA",
"E. c #BAB2AB",
"W. c #BBADB3",
"Q. c #B9B8B8",
"!. c #BCB9C3",
"~. c #C0BAC4",
"^. c #C4C3CA",
"/. c #D0CBCF",
"(. c #D5D7C6",
"). c #CECDD4",
"_. c #D8D7D6",
"`. c #E0E2D9",
"'. c #DEDCE3",
"]. c #E9EBE9",
"[. c #EFEFF0",
"{. c #F7F7FD",
"}. c #FEFEFF",
/* pixels */
"                                                    > ;                                                                         ",
"                                                  { I.x.z                                                                       ",
"                                                +.E.W.{.(.x                                                                     ",
"                                              < l. .q H.}.c.a 3                                                                 ",
"                                              u =.# # ..}.Y.a H H >                                                             ",
"                                                x.;. ./.}.@.    M 7.1                                                           ",
"                                                y I._.`.k.=       S >.                                                          ",
"                                                  = x y           ; 7.k                                                         ",
"                                                                    B :.                                                        ",
"                                                              : f a k >.s 2 ;                                                   ",
"                                                          e S :.,.>.G K :.>.K M 1                                               ",
"                                                      , G 7.,.:.K :.>.:.:.:.>.,.:.k ;                                           ",
"                                                    a ,.>.H K K :.K H :.>.:.K K :.:.S 1                                         ",
"                                                  a K N s 2 N ,.H a r j S K :.K K :.K S 1                                       ",
"                                                > k a a N S F :.K k h a a N K :.K K :.G B :                                     ",
"                                                a S G S h N >.>.S k F H N a M >.K K :.K F k                                     ",
"                                              - C h v 3.T 3 k H d V s v 3.P , N >.K K :.G S 1                                   ",
"                                              6.0 & 8 G.].Q.( Z G.9 & 8 P.`.U.~ K :.K :.K S h                                   ",
"                                              K.o %.-.9 [.}.*.} K.X =.$.0 }.{.O.S >.:.:.:.S N =                                 ",
"                                            7 F.% . X 9 [.}.#.[ F.X # X  .}.{.o.S K K :.:.F B ,                                 ",
"                                            2 z.-.$ & T.}.).b N P.&.o * Q.}.Q.l G M S K :.G N 2                                 ",
"                                            e U L.!.'.}.).X.N K _ T.~.'.}.^.Q S >.S F K :.G B 3                                 ",
"                                            e S V @.z.*.b N :.>.G Z j.J.#.m S K S K H H :.G B 2                                 ",
"                                          > G H K G N N H >.K K :.K S M B K :.K M N H K :.S N >                                 ",
"                                            2 S G H >.,.>.:.:.:.:.>.,.>.K S k H K S S K :.S N                                   ",
"                                              a / @.Z S S S G H F S S I } l G K G K K :.H S a                                   ",
"                                              1 2.R.) k +.L.n h 5.l.h ) P.' :.:.K :.:.:.G N :                                   ",
"                                                l _ J K d.!.T F k.L.G >.) n :.:.K K :.K S a                                     ",
"                                                  N >.:.Y ^ K >.D b K :.K G K K K :.:.G k                                       ",
"                                                  : K ,.H S K :.K H K :.:.:.K K :.:.H N =                                       ",
"                                                    ; S 7.>.:.:.:.>.:.K K K K :.>.K k @                                         ",
"                                                        h G H G K K K S K >.,.>.S 3                                             ",
"                                                            e h h h a h F S k 2                                                 ",
"                                                                e k M M M a ;                                                   ",
"                                                              k H K K :.:.:.K M >                                               ",
"                                                        ; 1 k >.8.q.0.:.H :.>.,.G :                                             ",
"                                                      , k k :.p.N.V.V.n.q.H K :.K k s                                           ",
"                                                    1 S h S s.S.A.C.A.S.V.q.G :.K N 7.S                                         ",
"                                                  2 S k h u.A.Z.V.V.V.V.S.M.<.K H S K S                                         ",
"                                                2 S N a G B.A.V.V.V.V.V.V.S.p.K F S F G >                                       ",
"                                              1 S B k a r.A.V.V.V.V.V.V.V.A.n.>.S S K ,.3                                       ",
"                                            : N N N h M s.A.V.V.V.V.V.V.V.Z.V.0.N F H ,.a                                       ",
"                                            M K S k h H v.A.V.V.V.V.V.V.V.V.A.u.k G K ,.k                                       ",
"                                          / S ,.>.k k >.n.A.V.V.V.V.V.V.V.V.A.p.k G :.,.N                                       ",
"                                            A L S e N ,.n.A.V.V.V.V.V.V.V.V.A.p.M K :.>.S                                       ",
"                                            | z | 4 G >.b.A.V.V.V.V.V.V.V.V.A.u.N K :.>.F O                                     ",
"                                                p d >.K g.A.V.V.V.V.V.V.V.V.V.q.M K :.>.S =                                     ",
"                                                  k ,.G p.A.V.V.V.V.V.V.V.A.N.<.N Y G H T 4                                     ",
"                                                  S >.H 0.V.A.V.V.V.V.V.V.S.g.G 1.4.' ] f./                                     ",
"                                                  G >.K H g.S.V.V.V.V.V.A.V.q.G U P t.t.U c                                     ",
"                                                  K >.K H 9.N.S.V.V.V.C.S.a.H K G K D C G s                                     ",
"                                                  S ,.K K H q.N.S.A.S.A.g.K K K :.:.H K :.a                                     ",
"                                                  : K 7.>.:.K 9.a.v.v.u.:.K >.>.>.>.,.,.N +                                     ",
"                                                    ; M H K K H H K K H K :.K K K H F s +                                       ",
"                                                                                                                                ",
"                                                                                                                                ",
"                                                                                                                                ",
"                                                + + @ @ @ +                 : 3 s h h h a a ,                                   ",
"                                          u x r g g g g r e r 2 =       [ y.K ,.>.,.,.H S :.G S :                               ",
"                                        u / t g g a a a e w r r g +   Q h.1.K :.K K :.G F G G 7.k                               ",
"                                        W c r a a a r r a r r g g +   ! y.R K K K K K :.:.K >.,.1                               ",
"                                        i ` j g g g g g g g g g ,     E m.e.:.,.,.,.,.,.>.>.K a                                 ",
"                                        5 6 , 2 w w w w 2 , , =         ! 6 a h h s a e 1 >                                     ",
"                                                                                                                                "
};
