/* XPM */
static char *result[] = {
/* columns rows colors chars-per-pixel */
"64 64 159 2 ",
"   c None",
".  c #0A0000",
"X  c #141701",
"o  c #161901",
"O  c #191C01",
"+  c #170A10",
"@  c #1D2201",
"#  c #222501",
"$  c #252A02",
"%  c #2A2E02",
"&  c #2C3202",
"*  c #2D310B",
"=  c #313602",
"-  c #353C02",
";  c #393F02",
":  c #2E3718",
">  c #343910",
",  c #313B19",
"<  c #332B30",
"1  c #4C3A3A",
"2  c #3C4402",
"3  c #3E4B02",
"4  c #354202",
"5  c #394518",
"6  c #414703",
"7  c #434C02",
"8  c #484F03",
"9  c #445202",
"0  c #4C5403",
"q  c #505703",
"w  c #545C03",
"e  c #545C0C",
"r  c #495817",
"t  c #535A11",
"y  c #566003",
"u  c #5B6403",
"i  c #5F6802",
"p  c #5B620F",
"a  c #5C631D",
"s  c #636C04",
"d  c #646E0D",
"f  c #667103",
"g  c #6A7504",
"h  c #6E7903",
"j  c #67700C",
"k  c #737E03",
"l  c #727D09",
"z  c #626A16",
"x  c #6B7514",
"c  c #6F7815",
"v  c #6F781E",
"b  c #737C17",
"n  c #404D20",
"m  c #4B4F20",
"M  c #485722",
"N  c #4E5528",
"B  c #505629",
"V  c #53582A",
"C  c #5A5F2F",
"Z  c #535822",
"A  c #5C6221",
"S  c #576922",
"D  c #576829",
"F  c #5F6731",
"G  c #626927",
"H  c #6B7425",
"J  c #707824",
"K  c #656C31",
"L  c #6A6F38",
"P  c #757C30",
"I  c #747D38",
"U  c #777A59",
"Y  c #776F67",
"T  c #867777",
"R  c #877C74",
"E  c #768104",
"W  c #798504",
"Q  c #7D8904",
"!  c #778209",
"~  c #7B870C",
"^  c #7E8826",
"/  c #798328",
"(  c #7E8938",
")  c #798334",
"_  c #7D8341",
"`  c #818E04",
"'  c #859104",
"]  c #818C18",
"[  c #828E14",
"{  c #859118",
"}  c #8F9C19",
"|  c #89951A",
" . c #909D19",
".. c #8F9B23",
"X. c #8A973B",
"o. c #94A127",
"O. c #9AA827",
"+. c #99A62B",
"@. c #9CAA2D",
"#. c #9EAC31",
"$. c #A4B234",
"%. c #A7B63D",
"&. c #8A9646",
"*. c #8F9B47",
"=. c #8E994A",
"-. c #909B47",
";. c #939F4B",
":. c #9AA74C",
">. c #97A443",
",. c #9AA656",
"<. c #A1AE4D",
"1. c #AFBE41",
"2. c #A3B14E",
"3. c #B0BF45",
"4. c #A4B250",
"5. c #868A61",
"6. c #878A6C",
"7. c #8F926F",
"8. c #8E907C",
"9. c #939771",
"0. c #989E75",
"q. c #959972",
"w. c #9CA17A",
"e. c #B5C54C",
"r. c #BACA4F",
"t. c #B8C75D",
"y. c #BFCE5E",
"u. c #B4C357",
"i. c #BFD051",
"p. c #BFD05E",
"a. c #C6D65C",
"s. c #C7D85E",
"d. c #C1D253",
"f. c #C7D764",
"g. c #CCDD64",
"h. c #CCDD69",
"j. c #CFE066",
"k. c #CFE168",
"l. c #D2E367",
"z. c #D3E56B",
"x. c #D7E86E",
"c. c #D9EB6C",
"v. c #D8EA70",
"b. c #918484",
"n. c #93948C",
"m. c #9F8D93",
"M. c #A2949A",
"N. c #A79A9F",
"B. c #B2B499",
"V. c #9897A0",
"C. c #A7A6AA",
"Z. c #ADACB4",
"A. c #BDC1A5",
"S. c #D0D4BD",
"D. c #D3D8C2",
"F. c #DFE1D2",
"G. c #E4E7D9",
"H. c #FEFDFF",
"J. c #F3F0F5",
/* pixels */
"                                                        % @                                                                     ",
"                                                    > w.D.A.C                                                                   ",
"                                                    9.M.m.J.G.Z                                                                 ",
"                                                  B Y < 1 T H.7.9 2                                                             ",
"                                                  N R + . b.H.6.- h g #                                                         ",
"                                                    q.N.M.H.F.m     f W #                                                       ",
"                                                    * 0.S.B.V         E g                                                       ",
"                                                        O             2 ' -                                                     ",
"                                                                        W u                                                     ",
"                                                                  - 0 7 f g = #                                                 ",
"                                                            - i E Q Q k g k E E s ;                                             ",
"                                                          s ` ` E k E W E E E E Q W u %                                         ",
"                                                      - E E s g E E k h k W E k k E W g 2                                       ",
"                                                    & s w 0 3 2 h Q u ; 7 y h E k k E E g 2                                     ",
"                                                    0 w 0 w s g k W u 7 0 2 7 f E k k E k s =                                   ",
"                                                  ; k E W h w s Q f w f k k y 0 h E k k E g u O                                 ",
"                                                @ E W E E W k 0 s w g W E E W i w E E k E h s 7                                 ",
"                                                7 ` k k k k W s 7 s W k k k E k q g E k k E s u                                 ",
"                                                7 Q W W E E Q s 2 s Q E E E E W w s W E k E g i &                               ",
"                                                2 w s f g g g w 7 8 s g k k k k 0 s E k E E g s 2                               ",
"                                              = w 0 f s s s 7 2 g 7 y s y y i 2 7 h s i k E h s 7                               ",
"                                              % g w w f s 0 6 s Q s 0 s g f 0 2 s W s i k E h s 7                               ",
"                                              8 s g u w 0 w g E E W s 0 0 7 0 s k f k h h E g s 7                               ",
"                                              i k E W E k E E E k k W k g g E W k y s k h E g s ;                               ",
"                                                0 s s k W E E E W E E W W k f w g k s s k E f u $                               ",
"                                                2 H n.A w d d f g g s i z L e s h g k g k k s w                                 ",
"                                                  b n.J i U Z.A 0 6.8.0 a V.P E E k E E E g s ;                                 ",
"                                                  2 p k E _ C.c h 5.n.h W G a E E E k E k s w                                   ",
"                                                    y Q W j Z k W s t k E h f E k k E E g u $                                   ",
"                                                      s ` k f E E k k E E E E k k E E h s &                                     ",
"                                                        w Q W E E E W E k k k k E W k u %                                       ",
"                                                          2 s g g h k k s k W W W g 7 o                                         ",
"                                                              = 7 0 0 0 w g f y 2 @                                             ",
"                                                                O 0 u y i w 2 X                                                 ",
"                                                              & f k k k E k k s 2                                               ",
"                                                            # k Q | ..[ k k E Q W 0                                             ",
"                                                            y } e.g.k.g.%.! h E W f -                                           ",
"                                                          ;  .s.x.j.g.l.x.3.k k h i W w                                         ",
"                                                          l d.x.g.g.g.g.g.x.#.g i g Q 0                                         ",
"                                                        7 $.z.g.g.g.g.g.g.z.a.d i g f 2                                         ",
"                                                        k i.z.g.g.g.g.g.g.x.2.d g E f 0 #                                       ",
"                                                      2 } g.k.g.g.g.g.g.z.t.x g k W i i -                                       ",
"                                                      s O.l.g.g.g.g.g.l.h./ f E E g y k 0                                       ",
"                                                    & k #.z.g.g.g.g.g.z.>.s E k W y s E u                                       ",
"                                                    q E $.z.g.g.g.g.z.y.c k E E g w k E s #                                     ",
"                                                    g k #.z.g.g.g.g.c.<.s E E W y s W E g =                                     ",
"                                                  % W h o.l.g.g.g.l.u.;.H s k s w k E E g 6                                     ",
"                                                  7 Q h { g.k.g.g.j.4.:.&.H v z f W k E h 0                                     ",
"                                                  y Q k E r.z.g.g.g.l.p.-.=.,.^ h E k E k q                                     ",
"                                                  f W k g +.z.g.g.g.l.y.*.f.( s E k k E k y                                     ",
"                                                  s Q k k k e.x.g.g.g.g.v.r.g g E k k E k u O                                   ",
"                                                  7 ` E k h ~ e.x.x.x.x.e.~ k E k k k E k q                                     ",
"                                                    u ` Q W E ~ @.3.1.+.W k E E E E E Q h &                                     ",
"                                                      2 i s f f f h k h E W W W W W E s &                                       ",
"                                                                              % % % $                                           ",
"                                                                                                                                ",
"                                      # # #                           : 5 & % $ O                                               ",
"                              F ) s k k k E g s s 0 #               n D r 9 9 9 9 3 4 & @                                       ",
"                            F <.b E W E E W s s k g k %             M r 2 7 7 7 7 9 2 2 9 - X                                   ",
"                            I X.g E k k k k k h g k ` ;             D S 3 7 7 7 3 7 2 2 2 3 2                                   ",
"                            K u.] W W W W W Q Q W ` s               , 5 2 9 9 9 9 9 9 7 3 9 3                                   ",
"                            N K e i s g g g s s i 0                       @ & - 2 3 7 9 9 3 @                                   ",
"                                                                                    o @ @                                       ",
"                                                                                                                                "
};
