/* XPM */
static char *result[] = {
/* columns rows colors chars-per-pixel */
"64 64 180 2 ",
"   c None",
".  c #040101",
"X  c #150202",
"o  c #1C0000",
"O  c #130C0D",
"+  c #180A0A",
"@  c #0E1300",
"#  c #1A1E01",
"$  c #151A01",
"%  c #1D1A1A",
"&  c #270A0A",
"*  c #281C1D",
"=  c #371719",
"-  c #1D2201",
";  c #222502",
":  c #262A01",
">  c #2A2E02",
",  c #2D3102",
"<  c #2D320B",
"1  c #313602",
"2  c #383500",
"3  c #353B02",
"4  c #393F03",
"5  c #323A0C",
"6  c #30350B",
"7  c #2B3514",
"8  c #35391C",
"9  c #392223",
"0  c #3C2E32",
"q  c #432527",
"w  c #4D2F37",
"e  c #4D3535",
"r  c #3B4202",
"t  c #364301",
"y  c #3D451A",
"u  c #444C02",
"i  c #484F02",
"p  c #414A09",
"a  c #4C5403",
"s  c #4F5902",
"d  c #4D550F",
"f  c #545C03",
"g  c #555D0B",
"h  c #484F16",
"j  c #464B1C",
"k  c #495010",
"l  c #505710",
"z  c #555C17",
"x  c #566002",
"c  c #5A6302",
"v  c #5E6803",
"b  c #5D6608",
"n  c #5C6412",
"m  c #5C6319",
"M  c #53621D",
"N  c #636C03",
"B  c #667103",
"V  c #6A7503",
"C  c #6E7902",
"Z  c #677009",
"A  c #6B750A",
"S  c #737E03",
"D  c #646C15",
"F  c #6F7814",
"G  c #727D12",
"H  c #727C1A",
"J  c #484E21",
"K  c #4C5C24",
"L  c #4F5526",
"P  c #565B27",
"I  c #5C6123",
"U  c #5B622E",
"Y  c #5C6133",
"T  c #636B2F",
"R  c #606723",
"E  c #697628",
"W  c #747D23",
"Q  c #737D2C",
"!  c #696E38",
"~  c #646938",
"^  c #6C723B",
"/  c #787F31",
"(  c #737D3F",
")  c #5A434B",
"_  c #5C4C52",
"`  c #515452",
"'  c #675054",
"]  c #6D5B5C",
"[  c #767C45",
"{  c #777C4D",
"}  c #6C6E5C",
"|  c #787C57",
" . c #757A59",
".. c #786865",
"X. c #786F6E",
"o. c #7A7865",
"O. c #747674",
"+. c #857779",
"@. c #768103",
"#. c #798504",
"$. c #7D8904",
"%. c #7A850C",
"&. c #7E8A0D",
"*. c #7A841A",
"=. c #7C8711",
"-. c #77832A",
";. c #778137",
":. c #7C883C",
">. c #7B8254",
",. c #7E8070",
"<. c #828E04",
"1. c #859204",
"2. c #828E16",
"3. c #85911A",
"4. c #8B981E",
"5. c #838E29",
"6. c #929F26",
"7. c #8C9833",
"8. c #9EAC2C",
"9. c #97A429",
"0. c #A2B135",
"q. c #A7B53B",
"w. c #8D9941",
"e. c #8A9249",
"r. c #888C5E",
"t. c #ADBC43",
"y. c #B0BF45",
"u. c #A7B554",
"i. c #ACBA54",
"p. c #85886C",
"a. c #90976C",
"s. c #87887E",
"d. c #8D8F78",
"f. c #838676",
"g. c #91947B",
"h. c #939872",
"j. c #B3C246",
"k. c #B5C449",
"l. c #BFCF56",
"z. c #B4C358",
"x. c #BFD056",
"c. c #C2D259",
"v. c #C8D85D",
"b. c #C0D061",
"n. c #CCDD64",
"m. c #CEE067",
"M. c #CFE06A",
"N. c #D2E367",
"B. c #D3E46B",
"V. c #D6E86F",
"C. c #8B8683",
"Z. c #998C8D",
"A. c #9A9B88",
"S. c #9E9D9E",
"D. c #979993",
"F. c #A69B9B",
"G. c #A1A087",
"H. c #B5BA9B",
"J. c #9993A1",
"K. c #ABA3A3",
"L. c #A9A9AC",
"P. c #B1A1A4",
"I. c #B5B8A9",
"U. c #BFB0B7",
"Y. c #B3B3B7",
"T. c #C3C6AD",
"R. c #BFBDC8",
"E. c #BDBEC0",
"W. c #C5C7C7",
"Q. c #CACAC4",
"!. c #C8C6CE",
"~. c #D9DBCD",
"^. c #D6D4DD",
"/. c #E0E2D3",
"(. c #E7E8E7",
"). c #E2E2E1",
"_. c #EEEDF5",
"`. c #F7F6FC",
"'. c #F7F9F9",
"]. c #FEFEFF",
/* pixels */
"                                                      #                                                                         ",
"                                                  < a.I.h.y                                                                     ",
"                                                - h.P.U.].T.5                                                                   ",
"                                                Y X.0 e F.].{ u 3                                                               ",
"                                                ~ ..O O Z.].| u @.N                                                             ",
"                                                < G.+.+.`./.j     C S                                                           ",
"                                                  L H.~.T.Y         #.N                                                         ",
"                                                    # 6 ;           u 1.1                                                       ",
"                                                                    # #.x                                                       ",
"                                                                1 a u N C 4 >                                                   ",
"                                                          : f S #.$.S V @.@.#.V u #                                             ",
"                                                        f $.<.#.@.S #.#.@.@.@.#.$.V r                                           ",
"                                                      V $.V V @.S S C S #.#.@.S @.#.S a                                         ",
"                                                    N N a r r V $.v r i x V S S S @.@.C s                                       ",
"                                                  u f u s N B C #.V a s u i B @.S S @.S V u                                     ",
"                                                - v C C c a B $.S x x C V f u C #.S S @.V N 1                                   ",
"                                                h g 2 ! e.m 3 C f d f a E W u r @.@.S @.S N f                                   ",
"                                              ` +.& w ) !.(.D.s >.X.& = _ W.Q.} c #.S S @.V v >                                 ",
"                                              O.' + D.9 C.].).L A.) * S.9 K.].E.g @.@.S @.V N u                                 ",
"                                              o.] . . X F.].Q.k g.) . % X K.].Y.f S S S @.S N s                                 ",
"                                              R S.' = X.'.].,.s [ J.q o ] '.]. .c N c C @.S N f                                 ",
"                                              x ^ Y.^.`._.s.a @.N p.R.!.`.`.C.s @.V N C @.S N f $                               ",
"                                            > x v m |  .U f S #.@.N ^ g.d.~ f C N V S V @.S N f                                 ",
"                                            f S S @.B N V @.@.S @.@.V c c B #.@.N f C V @.C N a                                 ",
"                                              i N B S #.#.@.@.@.@.@.#.$.@.C f N @.N N V #.V N r                                 ",
"                                              : c o.[ f N N B V V N N v ! I c S V S S S @.N v ;                                 ",
"                                                x A.p.c m S.| a T D.I s s.p.C #.S S @.@.C N a                                   ",
"                                                , m D $.A L.r.V W L./ @.F P V @.S S S @.V v ;                                   ",
"                                                  r #.#.S P D #.S z Z #.@.V S @.S S @.C N 3                                     ",
"                                                    s $.#.N C @.@.C S @.@.@.@.S S @.S B r                                       ",
"                                                      u #.$.@.@.@.#.@.S S S S S #.@.N 3                                         ",
"                                                        > v C V C S @.B V #.#.#.S a ;                                           ",
"                                                            1 u a s a u N V c u :                                               ",
"                                                                , f x x x s ,                                                   ",
"                                                              u V C S S @.S S v 1                                               ",
"                                                          - u @.&.4.4.%.C S #.$.S 3                                             ",
"                                                        1 s C 9.l.n.n.c.9.S S @.@.x 3                                           ",
"                                                      , s x 8.B.V.m.m.V.B.9.C S S c $.c                                         ",
"                                                    - f i 3.n.B.n.n.n.n.B.n.3.S V N @.v                                         ",
"                                                    f s x k.V.n.n.n.n.n.n.V.t.S N N V x                                         ",
"                                                  r v u 2.n.B.n.n.n.n.n.n.B.v.=.x B @.N                                         ",
"                                                ; N s f 8.B.n.n.n.n.n.n.n.n.B.5.x C #.V #                                       ",
"                                                s v i N q.B.n.n.n.n.n.n.n.n.B.7.N S #.B 1                                       ",
"                                              : C N f S j.B.n.n.n.n.n.n.n.n.M.5.V @.#.v p                                       ",
"                                              z S N v @.k.B.n.n.n.n.n.n.n.N.b.H C @.#.x s #                                     ",
"                                            8 J n b B S t.B.n.n.n.n.n.n.n.B.z.A S S @.c v >                                     ",
"                                                ( l S C 0.B.n.n.n.n.n.n.n.B.i.V @.@.S x B 4                                     ",
"                                                  a $.V 6.B.n.n.n.n.n.n.n.B.z.W N S v f S u                                     ",
"                                                  v $.C &.c.B.n.n.n.n.n.n.m.u.;.Q E :.H V a                                     ",
"                                                  V #.S C q.V.n.n.n.n.n.N.n.-.x w.-.Q H V f                                     ",
"                                                  V #.S C %.l.V.n.n.n.n.V.t.S S n A N N S f                                     ",
"                                                  f <.S S C 2.x.V.V.V.B.y.%.S @.V S @.@.S a                                     ",
"                                                    V <.#.#.S &.0.k.j.9.@.S @.@.#.#.#.$.N -                                     ",
"                                                      s B C C V V S C V S @.@.S S S C f -                                       ",
"                                                                                                                                ",
"                                                                                                                                ",
"                                                      U w.G C V N x a 3                                                         ",
"                                                    T u.*.S #.#.#.$.@.N C x :                                                   ",
"                                                  K T w.G S S S S @.V N C V C 1                                                 ",
"                                                7 K :.u.*.@.#.@.@.@.@.S V C <.a                                                 ",
"                                                7 T M p a c V S @.#.#.#.$.<.V                                                   ",
"                                                  y 5 3 t t r u a s f f f i                                                     ",
"                                                          # - - - # # @                                                         ",
"                                                                                                                                "
};
