/* XPM */
static char *result[] = {
/* columns rows colors chars-per-pixel */
"64 64 183 2 ",
"   c None",
".  c #0F0202",
"X  c #12070B",
"o  c #141701",
"O  c #1A1D01",
"+  c #1E1500",
"@  c #221600",
"#  c #1C2001",
"$  c #232601",
"%  c #242901",
"&  c #2A2D03",
"*  c #382502",
"=  c #2C3102",
"-  c #2F3A02",
";  c #323602",
":  c #343B02",
">  c #393E02",
",  c #353409",
"<  c #212410",
"1  c #2F3818",
"2  c #353A15",
"3  c #352E32",
"4  c #422E08",
"5  c #4E3B0F",
"6  c #46330B",
"7  c #432F11",
"8  c #493813",
"9  c #503E15",
"0  c #4D3939",
"q  c #374203",
"w  c #3B4302",
"e  c #3C4A02",
"r  c #36431C",
"t  c #434B02",
"y  c #4D4903",
"u  c #435102",
"i  c #4B5302",
"p  c #485009",
"a  c #495902",
"s  c #545601",
"d  c #545C03",
"f  c #525A08",
"g  c #444D13",
"h  c #454A1B",
"j  c #534016",
"k  c #45521D",
"l  c #545A1C",
"z  c #545A19",
"x  c #5B6403",
"c  c #5F6803",
"v  c #59610C",
"b  c #5F690B",
"n  c #566004",
"m  c #5C621C",
"M  c #636C03",
"N  c #636C09",
"B  c #677103",
"V  c #6A7503",
"C  c #6E7902",
"Z  c #68710E",
"A  c #737E03",
"S  c #727C0B",
"D  c #646C19",
"F  c #636C10",
"G  c #69731B",
"H  c #6D7716",
"J  c #727C1A",
"K  c #57462B",
"L  c #4E5224",
"P  c #545B22",
"I  c #555B2C",
"U  c #575A2B",
"Y  c #585D31",
"T  c #60512E",
"R  c #6A5C34",
"E  c #5B6225",
"W  c #5C603B",
"Q  c #626826",
"!  c #656C2E",
"~  c #6A7226",
"^  c #707720",
"/  c #747C2C",
"(  c #727C23",
")  c #6D6634",
"_  c #696E37",
"`  c #71633F",
"'  c #697134",
"]  c #767D30",
"[  c #6B6F49",
"{  c #6F7448",
"}  c #767B4D",
"|  c #777448",
" . c #6B7051",
".. c #7C7956",
"X. c #777657",
"o. c #746A64",
"O. c #827670",
"+. c #768104",
"@. c #798504",
"#. c #7D8904",
"$. c #768109",
"%. c #7B860B",
"&. c #798517",
"*. c #7A8427",
"=. c #7C8639",
"-. c #7E844A",
";. c #7C8254",
":. c #7E835C",
">. c #7D8061",
",. c #818D04",
"<. c #849104",
"1. c #838F14",
"2. c #8B971A",
"3. c #929F1B",
"4. c #8D9926",
"5. c #919D23",
"6. c #869037",
"7. c #99A62C",
"8. c #9DAB2B",
"9. c #96A229",
"0. c #9EAB31",
"q. c #96A336",
"w. c #A7B537",
"e. c #8B9645",
"r. c #919D4A",
"t. c #838458",
"y. c #97A44B",
"u. c #98A548",
"i. c #A1AE4C",
"p. c #AFBE40",
"a. c #B0BF45",
"s. c #A6B454",
"d. c #AEBC5A",
"f. c #868868",
"g. c #949867",
"h. c #898B76",
"j. c #969A79",
"k. c #9B9C78",
"l. c #9EA47E",
"z. c #A4A476",
"x. c #B5C44C",
"c. c #B2C144",
"v. c #B4C35B",
"b. c #B8C75B",
"n. c #BCCC5D",
"m. c #BAC950",
"M. c #BFCF62",
"N. c #C2D254",
"B. c #C3D458",
"V. c #C5D561",
"C. c #C8D761",
"Z. c #CCDD64",
"A. c #CDDE69",
"S. c #CFE066",
"D. c #CFE169",
"F. c #D2E367",
"G. c #D3E46B",
"H. c #D7E86C",
"J. c #DBEC6E",
"K. c #DBED71",
"L. c #938383",
"P. c #93948D",
"I. c #949687",
"U. c #9C9498",
"Y. c #A4949A",
"T. c #A3A687",
"R. c #B1B486",
"E. c #B6BA8B",
"W. c #ABAD96",
"Q. c #ADB093",
"!. c #B8BC98",
"~. c #A69AA0",
"^. c #A7A7A8",
"/. c #ADACB1",
"(. c #BCC19C",
"). c #C6CB9B",
"_. c #CCD2AC",
"`. c #D5DBB3",
"'. c #D1D5BE",
"]. c #E5EBBC",
"[. c #D6D9C5",
"{. c #DCDECE",
"}. c #FEFDFE",
/* pixels */
"                                                        & O                                                                     ",
"                                                    2 T.[.!.I                                                                   ",
"                                                  % j.Y.Y.}.{.h                                                                 ",
"                                                  Y o.3 0 L.}.t.i w                                                             ",
"                                                  I O.X . U.}...w A B #                                                         ",
"                                                  $ k.Y.~.}.[.h     V +.                                                        ",
"                                                    2 l.'.Q.L         @.M                                                       ",
"                                                        O             t <.=                                                     ",
"                                                                      $ #.d                                                     ",
"                                                                  > i t B V ; $                                                 ",
"                                                            > M +.#.#.A V A +.+.c >                                             ",
"                                                        % M ,.,.+.A +.@.+.+.+.+.#.@.x &                                         ",
"                                                      > @.+.M V +.+.A V A @.+.A A +.@.B >                                       ",
"                                                    ; B d u w e A @.n q t x C +.A A +.+.B w                                     ",
"                                                  o i i i d M V A @.c i i t i V +.A A +.A M ;                                   ",
"                                                  > C +.A M i B #.V d M A V d i A +.A A +.B x                                   ",
"                                                < G s y ] 6.D t V i b M x &.S t i @.A A +.C M w                                 ",
"                                                 .) 8 R R !.).} t -.) 6 j | R.g.P V +.A +.A M d                                 ",
"                                                 .5 k ;.6 z.].k.g g.5 Y t.9 E.].:.x @.+.A +.B c &                               ",
"                                              O [ K @ + 8 R.`.;.p ..7 & , 6 R.`.} c +.A A +.V N >                               ",
"                                              = ~ f.` T k.`.T.l c { X.4 * .._.W.P B c c A +.V N t                               ",
"                                              = M ! j.!.(.j.I c @.b :.T.E._.W.W x @.c M A +.V N t                               ",
"                                              i M M v E l f M +.+.A x _ ;.{ l x A B A C C +.V N t                               ",
"                                              M A +.@.C C A +.A A +.+.V c M A @.A d x A C +.B c :                               ",
"                                                s N M A @.+.+.@.@.+.+.#.@.A B d C C c N A +.M x $                               ",
"                                                t ~ P.m d F Z M B B M M D _ d B C V A V A A M d                                 ",
"                                                  J P.^ x >./.z i h.h.i Q U./ +.+.A +.+.+.V N :                                 ",
"                                                  t v A A -.^.H C f.I.C @.Q m +.+.+.A +.A M d                                   ",
"                                                    x #.@.N l A @.N f +.+.C B +.A A +.+.V x $                                   ",
"                                                      M ,.A B +.A A A +.A +.+.A A +.+.C c =                                     ",
"                                                        x #.@.+.+.@.@.+.A A A A +.@.A x %                                       ",
"                                                          w M V V C A A M +.@.#.@.B t                                           ",
"                                                              > t i i t d V M d w O                                             ",
"                                                                O t x x x d w o                                                 ",
"                                                              ; B A A A +.+.A M w                                               ",
"                                                            $ A #.2.5.1.A A +.@.@.i                                             ",
"                                                            x 3.x.A.S.C.w.$.C +.+.c w                                           ",
"                                                          w 3.C.H.S.A.F.H.a.@.C M B ,.w                                         ",
"                                                          $.N.H.A.A.Z.Z.A.K.q.d M C +.;                                         ",
"                                                        t w.G.A.A.A.A.A.H.M.*.M V B x w                                         ",
"                                                        A N.G.A.A.A.A.H.b.H B C +.V d N #                                       ",
"                                                      w 3.Z.S.A.A.A.H.b.G V A A +.d V C :                                       ",
"                                                      M 8.F.A.A.A.G.n.H V +.A @.x x @.A i                                       ",
"                                                    = A 0.G.A.Z.F.D.*.B +.A @.M d A +.A x                                       ",
"                                                    d +.0.G.Z.S.V.s.( C +.@.V v S +.+.A M $                                     ",
"                                                    V A 0.G.A.F.i.r.=.M A B D q.@.A +.+.V ;                                     ",
"                                                  = @.C 9.F.A.A.Z.b.y./ G G v.p.C A A +.V w                                     ",
"                                                  t #.C 2.Z.S.Z.H.s.e.y.e.d.K.5.V A A +.C i                                     ",
"                                                  x #.A +.m.G.A.S.b.n.n.e.A.B.%.A A A +.A d                                     ",
"                                                  B @.A V 7.G.A.Z.F.F.C.V.H.7.V A A A +.A d                                     ",
"                                                  B #.A A A x.H.A.A.Z.S.K.x.A A A A A +.A x                                     ",
"                                                  i ,.+.A C %.x.G.H.H.G.x.%.C A A A A +.A d                                     ",
"                                                    x ,.#.@.+.%.8.c.a.7.+.A +.+.+.+.+.#.C =                                     ",
"                                                      w x M B B B C C A +.@.@.@.@.@.+.N =                                       ",
"                                                                            = = & & %                                           ",
"                                                          1 r % #                                                               ",
"                                                        1 k g e e e w : %                                                       ",
"                                                P i x M V M x d d i w t e w - o                                                 ",
"                                            1 y.4.@.#.@.@.@.B N A M x w : w t w O                                               ",
"                                            e.u.M +.A A A A C V V V @.i q e w u w                                               ",
"                                            E i.&.+.+.+.+.+.@.@.A #.A t u u u a =                                               ",
"                                            ' r.H A @.@.@.@.+.+.A M = # - q w %                                                 ",
"                                                  $ = : : ; = $                                                                 ",
"                                                                                                                                "
};
