/* XPM */
static char *result[] = {
/* columns rows colors chars-per-pixel */
"64 64 193 2 ",
"   c None",
".  c #020000",
"X  c #0C0000",
"o  c #130404",
"O  c #120A0C",
"+  c #1B0000",
"@  c #171C02",
"#  c #1B1D01",
"$  c #1C1A1A",
"%  c #2A0E0C",
"&  c #290E11",
"*  c #3C1C1B",
"=  c #231618",
"-  c #1D2101",
";  c #1E240F",
":  c #212401",
">  c #252A02",
",  c #292D01",
"<  c #2B2F0A",
"1  c #2C3201",
"2  c #323602",
"3  c #333A02",
"4  c #393F02",
"5  c #293214",
"6  c #35391A",
"7  c #3D1E22",
"8  c #372325",
"9  c #3D2F34",
"0  c #492D2F",
"q  c #4B2F37",
"w  c #513838",
"e  c #364102",
"r  c #3C4402",
"t  c #3C4A02",
"y  c #3F4418",
"u  c #414703",
"i  c #434D02",
"p  c #484E09",
"a  c #445302",
"s  c #4C5403",
"d  c #4C5802",
"f  c #4B520C",
"g  c #545C03",
"h  c #545B0A",
"j  c #505703",
"k  c #444A19",
"l  c #485718",
"z  c #535A11",
"x  c #576002",
"c  c #5B6402",
"v  c #5E6802",
"b  c #5C641B",
"n  c #576215",
"m  c #626C03",
"M  c #656E0C",
"N  c #667003",
"B  c #6A7503",
"V  c #6E7902",
"C  c #68720D",
"Z  c #737E03",
"A  c #626A14",
"S  c #62681E",
"D  c #697416",
"F  c #737C1C",
"G  c #707A11",
"H  c #4F5425",
"J  c #4D5C25",
"K  c #585D22",
"L  c #595E2E",
"P  c #5D622C",
"I  c #5A6C2D",
"U  c #63682E",
"Y  c #6F782C",
"T  c #6D7720",
"R  c #646A36",
"E  c #6A7233",
"W  c #797F37",
"Q  c #503A44",
"!  c #5C4C53",
"~  c #494B4A",
"^  c #604B55",
"/  c #6A5859",
"(  c #646742",
")  c #767B4C",
"_  c #777F41",
"`  c #6B705B",
"'  c #787C5A",
"]  c #715B61",
"[  c #6B6E6F",
"{  c #796A6A",
"}  c #777963",
"|  c #7E6F71",
" . c #787372",
".. c #837574",
"X. c #857E7A",
"o. c #768103",
"O. c #798503",
"+. c #7D8904",
"@. c #7A850C",
"#. c #7E890C",
"$. c #76811C",
"%. c #7C8724",
"&. c #7B8525",
"*. c #7F8A3A",
"=. c #7E816B",
"-. c #818E04",
";. c #859204",
":. c #838F15",
">. c #8B981C",
",. c #879317",
"<. c #919D24",
"1. c #808B3D",
"2. c #8B9730",
"3. c #95A326",
"4. c #97A52A",
"5. c #9FAE30",
"6. c #A1AF2C",
"7. c #A5B32C",
"8. c #A2B034",
"9. c #A4B239",
"0. c #A8B73E",
"q. c #ABB93B",
"w. c #8A9543",
"e. c #899447",
"r. c #929E4A",
"t. c #80845D",
"y. c #99A54C",
"u. c #98A54B",
"i. c #9CA950",
"p. c #A1AF4F",
"a. c #A9B747",
"s. c #B0BF47",
"d. c #A7B452",
"f. c #838665",
"g. c #8E926B",
"h. c #8B9365",
"j. c #868878",
"k. c #8D9076",
"l. c #90947E",
"z. c #9A9D7B",
"x. c #B2C145",
"c. c #B5C54A",
"v. c #B8C845",
"b. c #BECE55",
"n. c #B4C35A",
"m. c #BFCF5E",
"M. c #B5C459",
"N. c #C5D65B",
"B. c #C5D563",
"V. c #CCDD64",
"C. c #CBDB6A",
"Z. c #CFE066",
"A. c #CFE168",
"S. c #D1E367",
"D. c #D3E46B",
"F. c #D7E86E",
"G. c #D9EB6C",
"H. c #DBED70",
"J. c #D7E872",
"K. c #8A7A82",
"L. c #998C8D",
"P. c #8E908B",
"I. c #969A82",
"U. c #8A9090",
"Y. c #9E9596",
"T. c #9B9B98",
"R. c #8A8B84",
"E. c #9FA084",
"W. c #A1A295",
"Q. c #ACB090",
"!. c #A19BA8",
"~. c #A4A4A4",
"^. c #A7A7A9",
"/. c #B4A6AA",
"(. c #B8BDA3",
"). c #AEAFB2",
"_. c #B7B7B8",
"`. c #CFD1BD",
"'. c #C5C9B3",
"]. c #BDBBC7",
"[. c #BFC1C1",
"{. c #C1C1C6",
"}. c #CCCCC8",
"|. c #D9DCCF",
" X c #CDC8D0",
".X c #D7D5DE",
"XX c #E9EBDE",
"oX c #E9E8EA",
"OX c #ECEBF3",
"+X c #EFF0F0",
"@X c #F2F2F5",
"#X c #FEFEFF",
"$X c #F7F8FC",
/* pixels */
"                                                      -                                                                         ",
"                                                  < h.(.z.k                                                                     ",
"                                                  g././.#X`.y                                                                   ",
"                                                L ..9 w L.#Xt.u 4                                                               ",
"                                                R { O o ..#Xf.r Z N -                                                           ",
"                                                > E.K...@XXXH     B O.:                                                         ",
"                                                  k Q.|.'.R         o.B                                                         ",
"                                                      < >           4 ;.4                                                       ",
"                                                                      o.m                                                       ",
"                                                                2 d i m Z r 1                                                   ",
"                                                          > g V O.+.Z B Z o.O.B i #                                             ",
"                                                        j +.-.O.o.Z O.O.o.o.o.O.+.B r                                           ",
"                                                      B +.V V Z o.o.V Z o.O.o.Z o.O.Z s @                                       ",
"                                                    m N s t r B +.m r i g B Z Z Z o.o.V j                                       ",
"                                                  u j i d m N V O.B s d i i m o.Z Z o.Z B s                                     ",
"                                                # v V V v s m +.Z x c V B g i B O.Z Z o.V m 3                                   ",
"                                                k h 2 P e.S 3 B x f c s Y &.u 4 Z o.Z o.Z m g                                   ",
"                                              ~ X.& q Q {.oXT.s )  .% 7 ! [.}.} c O.Z Z o.B m 1                                 ",
"                                              [ / O U.8 | #XoXH I.^ = ~.8 Y.#X{.h o.o.Z o.V m u                                 ",
"                                              ` { . . X L.#X Xp k.! . $ o Y.#X_.h Z V Z o.Z m s                                 ",
"                                              b T.] * { @X#Xj.d _ !.0 + / +X#X=.x N g B o.Z m g                                 ",
"                                              x E )..X$XOXR.f Z m =.]. X$X$XP.s o.V v V o.Z m g                                 ",
"                                            > x m n ) ' L d V O.o.m R l.l.( s V N B Z B Z Z m g                                 ",
"                                            g Z Z o.B m B o.o.Z Z O.V c x N o.o.m g V V o.Z m s                                 ",
"                                              i m m Z +.O.o.o.o.o.o.O.+.o.V g v o.B m B O.V m r                                 ",
"                                              : x } ) g m N B B V N N v E K v V V Z Z Z o.N v >                                 ",
"                                                g z.j.c n ~.f.s U W.U s j.k.V O.Z Z o.o.Z m d                                   ",
"                                                > n A +.B ^.g.B F ^.W o.G P B o.Z Z Z o.B v >                                   ",
"                                                  4 o.O.Z K A O.Z z M O.Z B Z o.Z Z o.V m 4                                     ",
"                                                    s +.O.m V o.o.V Z o.Z o.o.Z Z o.Z N u                                       ",
"                                                      u O.+.o.o.o.o.o.Z Z Z Z Z O.o.m 4                                         ",
"                                                        , v V V V Z O.N B O.O.O.Z j >                                           ",
"                                                            1 i s d s i v B v i >                                               ",
"                                                                1 g g g x s 1                                                   ",
"                                                              i B Z Z Z o.o.Z v 3                                               ",
"                                                            r O.#.>.>.@.V Z O.+.Z 3                                             ",
"                                                          - V 3.b.V.V.N.5.o.B N m m 2                                           ",
"                                                          g 6.D.D.D.G.J.n.G x m B -.v                                           ",
"                                                        > >.V.D.D.C.d.%.C B B B N m d @                                         ",
"                                                        x v.H.D.M.&.m B Z V Z o.v g B r                                         ",
"                                                      : ,.N.B.p.C B o.o.Z O.V x c o.o.g                                         ",
"                                                      s 7.n.r.1.m O.Z o.o.m T $.Z o.Z N >                                       ",
"                                                      B q.F.M.*.M Z o.B v *.C.q.V Z o.V r                                       ",
"                                                    4 O.x.D.u.y.Y M v D p.F.H.0.V Z o.Z s                                       ",
"                                                    x O.x.C.i.d.r.w.u.B.G.Z.D.0.V Z o.Z v #                                     ",
"                                                    Z Z a.F.G.m.w.M.G.S.V.V.D.9.V Z o.Z N ,                                     ",
"                                                  3 O.V 8.D.Z.B.m.S.V.V.V.V.D.4.V Z Z o.B 4                                     ",
"                                                  s +.B <.D.V.V.S.V.V.V.V.A.V.,.V Z Z o.V u                                     ",
"                                                  m +.V #.N.D.V.V.V.V.V.V.F.c.Z Z Z Z o.V s                                     ",
"                                                  B O.Z V 9.F.V.V.V.V.V.Z.D.3.B Z Z Z o.Z g                                     ",
"                                                  V O.Z Z @.b.F.V.V.V.V.F.s.Z Z Z Z Z o.Z x                                     ",
"                                                  g -.Z Z V :.b.F.F.F.D.s.@.V Z Z Z Z o.Z s                                     ",
"                                                    B -.O.O.Z #.8.c.x.4.o.Z o.o.o.o.O.+.m :                                     ",
"                                                      d N V V B B V V V Z o.o.o.Z Z V g :                                       ",
"                                                                                  :                                             ",
"                                                                                                                                ",
"                                  ; J l t t e 3 1 -                                                                             ",
"                                  I l t a a a a a t e 3 @                         1 3 r r u r 2 ,                               ",
"                                  J l t i i i i t e t i t >                 6 w.F o.+.+.+.o.m Z Z c 1                           ",
"                                5 I n i a a i i t i t t a t                 i.2.Z o.o.o.o.Z m B B o.V ,                         ",
"                                    @ 1 t i a a a a a a d 1               6 w.%.Z o.Z Z Z Z o.Z Z -.m                           ",
"                                            - > 1 3 e e >                   y.a.o.+.+.+.+.+.+.+.+.V :                           ",
"                                                                              y i g x x g g i r 2                               ",
"                                                                                                                                "
};
