/* XPM */
static char *result[] = {
/* columns rows colors chars-per-pixel */
"64 64 183 2 ",
"   c None",
".  c #0B0909",
"X  c #120202",
"o  c #1F0203",
"O  c #131501",
"+  c #161A01",
"@  c #191E01",
"#  c #181516",
"$  c #2A0707",
"%  c #280E11",
"&  c #311214",
"*  c #341818",
"=  c #1E2201",
"-  c #1E2108",
";  c #212501",
":  c #262A02",
">  c #2A2E02",
",  c #2C3302",
"<  c #2F340F",
"1  c #313602",
"2  c #343B02",
"3  c #393E02",
"4  c #373C0C",
"5  c #2D3616",
"6  c #363E15",
"7  c #343722",
"8  c #42262D",
"9  c #422E2C",
"0  c #4E3B36",
"q  c #543F3F",
"w  c #364202",
"e  c #3C4402",
"r  c #3C4902",
"t  c #3E4C08",
"y  c #3C4114",
"u  c #3A431D",
"i  c #3D4A1D",
"p  c #3F4526",
"a  c #444C02",
"s  c #484F02",
"d  c #464D09",
"f  c #404703",
"g  c #445302",
"h  c #4B5202",
"j  c #4A5608",
"k  c #545C02",
"l  c #545B0A",
"z  c #42471B",
"x  c #454D1B",
"c  c #4B561B",
"v  c #545B13",
"b  c #545A1B",
"n  c #585F19",
"m  c #505618",
"M  c #576003",
"N  c #5B6402",
"B  c #5E6803",
"V  c #5B640C",
"C  c #5F680E",
"Z  c #5C6413",
"A  c #5F671D",
"S  c #626C03",
"D  c #656E0B",
"F  c #667104",
"G  c #6B7503",
"H  c #6E7902",
"J  c #6F790C",
"K  c #737D03",
"L  c #737E0B",
"P  c #646D13",
"I  c #626A19",
"U  c #677015",
"Y  c #697112",
"T  c #6D751B",
"R  c #727D10",
"E  c #444A20",
"W  c #455321",
"Q  c #555B2E",
"!  c #585F2C",
"~  c #545A21",
"^  c #595D33",
"/  c #5C6626",
"(  c #5C6130",
")  c #636A22",
"_  c #636A2C",
"`  c #64772E",
"'  c #737B2B",
"]  c #707927",
"[  c #616A31",
"{  c #656C3E",
"}  c #686C3F",
"|  c #6C7535",
" . c #534247",
".. c #605857",
"X. c #5E6242",
"o. c #666B42",
"O. c #6C704F",
"+. c #71754B",
"@. c #777B53",
"#. c #767A57",
"$. c #705E60",
"%. c #69686A",
"&. c #75626A",
"*. c #7C7F63",
"=. c #7F7A6F",
"-. c #7E6F76",
";. c #85757D",
":. c #768104",
">. c #798504",
",. c #7D8904",
"<. c #7D890D",
"1. c #77821A",
"2. c #7B8428",
"3. c #7B8536",
"4. c #7E8840",
"5. c #7F8265",
"6. c #7E8178",
"7. c #818D04",
"8. c #808C0E",
"9. c #818D13",
"0. c #879319",
"q. c #89961D",
"w. c #88941B",
"e. c #8E9A2D",
"r. c #909E22",
"t. c #848F37",
"y. c #8C983E",
"u. c #95A326",
"i. c #98A52C",
"p. c #9DAB31",
"a. c #A6B53A",
"s. c #ABBA3B",
"d. c #82884E",
"f. c #95A14A",
"g. c #AEBD43",
"h. c #A8B651",
"j. c #868B67",
"k. c #8D9169",
"l. c #8B8A76",
"z. c #8D9178",
"x. c #929571",
"c. c #9DA07F",
"v. c #B7C64A",
"b. c #B6C54B",
"n. c #BACA51",
"m. c #B4C359",
"M. c #BFD057",
"N. c #C4D55B",
"B. c #C1D153",
"V. c #CCDD64",
"C. c #CFE067",
"Z. c #CFE168",
"A. c #D3E46B",
"S. c #D6E86F",
"D. c #7E7E80",
"F. c #8D8484",
"G. c #8C8A89",
"H. c #908585",
"J. c #949682",
"K. c #9E8F93",
"L. c #9B9C94",
"P. c #999798",
"I. c #A9AD8B",
"U. c #A2A39F",
"Y. c #B0B399",
"T. c #ACAAAD",
"R. c #A2A1AA",
"E. c #BAB2AB",
"W. c #BBADB3",
"Q. c #B9B8B8",
"!. c #BCB9C3",
"~. c #C0BAC4",
"^. c #C4C3CA",
"/. c #D0CBCF",
"(. c #D5D7C6",
"). c #CECDD4",
"_. c #D8D7D6",
"`. c #E0E2D9",
"'. c #DEDCE3",
"]. c #E9EBE9",
"[. c #EFEFF0",
"{. c #F7F7FD",
"}. c #FEFEFF",
/* pixels */
"                                                                        ; >                                                     ",
"                                                                      z x.I.{                                                   ",
"                                                                    x (.}.W.E.+.                                                ",
"                                                                3 a c.}.H.q  .l.<                                               ",
"                                                            > H H a Y.}...# # =.u                                               ",
"                                                          1 7.N     @.}./. .;.x.                                                ",
"                                                          >.S       ; k.`._.I.y                                                 ",
"                                                        k 7.;           y x -                                                   ",
"                                                        :.B                                                                     ",
"                                                  ; 2 s >.k a f :                                                               ",
"                                              1 N K >.:.K G >.,.:.S e                                                           ",
"                                          ; k :.,.>.:.:.:.>.:.K :.,.7.H ,                                                       ",
"                                        1 S :.:.K K :.>.:.H K :.K K H >.,.a                                                     ",
"                                      1 S K :.K K :.K S j r a H ,.M 2 g M K a                                                   ",
"                                    : B H :.K K :.K M a a h k K :.F S M a a k >                                                 ",
"                                    k F K :.K K >.N a N H F k S >.>.N h S G S a                                                 ",
"                                  1 S G :.K K >.N , P 3.v s V d H k 3 T 3.v h V -                                               ",
"                                  h S K :.K :.K ~ U.`.P.8 & 9 G.Z ( Q.].G.8 & 0 6.                                              ",
"                                = N S :.:.:.>.S O.}.}.0 $.D.X K.} 5.}.[.9 -.%.o K.                                              ",
"                                , B F :.:.K K S o.{.}. .X # X F.[ #.}.[.9 X . % F.7                                             ",
"                                3 B F :.K S M G l Q.}.Q.* o &.P.N b ).}.T.& $ -.z.2                                             ",
"                                3 B G :.K F S >.S Q ^.}.'.~.T._ K N X.).}.'.!.L.U e                                             ",
"                                2 B F :.H H K S K S m #.J.j.Z G >.:.N b *.z.@.V S w                                             ",
"                                > B S :.K H N N K :.K B N S K :.K K :.H N N G K H G >                                           ",
"                                  M S :.K S S K H k S K >.,.:.:.:.:.:.>.,.>.H G S 3                                             ",
"                                  a S H :.K K H K G l } I S S F H G S S S Z @./ a                                               ",
"                                  : B F :.:.:.K :.:.' P.) h l.5.h n L.+.k ) R.2.1                                               ",
"                                    a S K :.K K :.:.n ) >.G L.k.F T !.d.K J _ l                                                 ",
"                                      k G :.:.K K K G K :.K b D >.K ^ Y :.>.N                                                   ",
"                                      = M H :.:.K K :.:.:.K H K :.K S H ,.K :                                                   ",
"                                        @ k K >.:.K K K K :.>.:.:.:.>.7.S ;                                                     ",
"                                            3 S >.,.>.K S K K K H H G h                                                         ",
"                                                2 k S F h a h h h e                                                             ",
"                                                  ; a M N N k w                                                                 ",
"                                              > N K :.:.:.K K H k                                                               ",
"                                            : G ,.>.:.H :.0.q.8.>.k 2 ;                                                         ",
"                                          s k K :.K H q.n.V.V.N.p.:.k k ,                                                       ",
"                                        S 7.N K :.H q.V.A.A.C.A.A.s.S h S 1                                                     ",
"                                        S K S H K <.M.A.V.V.V.V.Z.A.u.h k S 3                                                   ",
"                                      > H F S F K p.A.V.V.V.V.V.V.A.B.F a B S 3                                                 ",
"                                      3 ,.K S S >.n.A.V.V.V.V.V.V.V.A.r.a k B S 1                                               ",
"                                      a ,.H F N 0.V.Z.V.V.V.V.V.V.V.A.s.N h B N B :                                             ",
"                                      k ,.K F k u.A.V.V.V.V.V.V.V.V.A.v.H h k S K M                                             ",
"                                      N ,.:.H k p.A.V.V.V.V.V.V.V.V.A.n.>.k k >.,.S /                                           ",
"                                      S >.:.K N p.A.V.V.V.V.V.V.V.V.A.n.,.N e S L A                                             ",
"                                    O F >.:.K N u.A.V.V.V.V.V.V.V.V.A.b.>.G 4 | z |                                             ",
"                                    = S >.:.K N q.V.V.V.V.V.V.V.V.V.A.g.K :.d p                                                 ",
"                                    4 T H G Y N <.N.A.V.V.V.V.V.V.V.A.p.G ,.k                                                   ",
"                                    / f.] ' 4.1.G g.A.V.V.V.V.V.V.A.V.0.H >.S                                                   ",
"                                    c U t.t.P U G q.V.A.V.V.V.V.V.A.g.H K >.H                                                   ",
"                                    s G C D K G K H a.S.C.V.V.V.A.N.9.H K >.K                                                   ",
"                                    a :.K H :.:.K K K g.A.A.A.A.N.q.H K K ,.S                                                   ",
"                                    + B ,.,.>.>.>.>.K :.u.v.v.a.9.K :.>.7.K :                                                   ",
"                                      + s F H K K K :.K H K K H H K K H N ;                                                     ",
"                                                                                                                                ",
"                                                                                                                                ",
"                                                                                                                                ",
"                                  , a a h h h s 3 :                 + @ @ @ + +                                                 ",
"                              : S G :.S H ,.,.>.,.K y.[       = 2 r e r g g g g r x u                                           ",
"                              k 7.F H F H :.K K :.K 1.h.Q   + g r r w w a a a g g t / u                                         ",
"                              1 ,.>.K :.:.K K K K K R y.!   + g g r r a a a a r a r c W                                         ",
"                                a K >.>.,.,.,.,.,.:.e.m.E     , g g g g g g g g g j ` i                                         ",
"                                    > 1 e a s h h a 4 !         = , , 2 w w w w 2 , 6 5                                         ",
"                                                                                                                                "
};
