/* XPM */
static char *result[] = {
/* columns rows colors chars-per-pixel */
"64 64 193 2 ",
"   c None",
".  c #020000",
"X  c #0C0000",
"o  c #130404",
"O  c #120A0C",
"+  c #1B0000",
"@  c #171C02",
"#  c #1B1D01",
"$  c #1C1A1A",
"%  c #2A0E0C",
"&  c #290E11",
"*  c #3C1C1B",
"=  c #231618",
"-  c #1D2101",
";  c #1E240F",
":  c #212401",
">  c #252A02",
",  c #292D01",
"<  c #2B2F0A",
"1  c #2C3201",
"2  c #323602",
"3  c #333A02",
"4  c #393F02",
"5  c #293214",
"6  c #35391A",
"7  c #3D1E22",
"8  c #372325",
"9  c #3D2F34",
"0  c #492D2F",
"q  c #4B2F37",
"w  c #513838",
"e  c #364102",
"r  c #3C4402",
"t  c #3C4A02",
"y  c #3F4418",
"u  c #414703",
"i  c #434D02",
"p  c #484E09",
"a  c #445302",
"s  c #4C5403",
"d  c #4C5802",
"f  c #4B520C",
"g  c #545C03",
"h  c #545B0A",
"j  c #505703",
"k  c #444A19",
"l  c #485718",
"z  c #535A11",
"x  c #576002",
"c  c #5B6402",
"v  c #5E6802",
"b  c #5C641B",
"n  c #576215",
"m  c #626C03",
"M  c #656E0C",
"N  c #667003",
"B  c #6A7503",
"V  c #6E7902",
"C  c #68720D",
"Z  c #737E03",
"A  c #626A14",
"S  c #62681E",
"D  c #697416",
"F  c #737C1C",
"G  c #707A11",
"H  c #4F5425",
"J  c #4D5C25",
"K  c #585D22",
"L  c #595E2E",
"P  c #5D622C",
"I  c #5A6C2D",
"U  c #63682E",
"Y  c #6F782C",
"T  c #6D7720",
"R  c #646A36",
"E  c #6A7233",
"W  c #797F37",
"Q  c #503A44",
"!  c #5C4C53",
"~  c #494B4A",
"^  c #604B55",
"/  c #6A5859",
"(  c #646742",
")  c #767B4C",
"_  c #777F41",
"`  c #6B705B",
"'  c #787C5A",
"]  c #715B61",
"[  c #6B6E6F",
"{  c #796A6A",
"}  c #777963",
"|  c #7E6F71",
" . c #787372",
".. c #837574",
"X. c #857E7A",
"o. c #768103",
"O. c #798503",
"+. c #7D8904",
"@. c #7A850C",
"#. c #7E890C",
"$. c #76811C",
"%. c #7C8724",
"&. c #7B8525",
"*. c #7F8A3A",
"=. c #7E816B",
"-. c #818E04",
";. c #859204",
":. c #838F15",
">. c #8B981C",
",. c #879317",
"<. c #919D24",
"1. c #808B3D",
"2. c #8B9730",
"3. c #95A326",
"4. c #97A52A",
"5. c #9FAE30",
"6. c #A1AF2C",
"7. c #A5B32C",
"8. c #A2B034",
"9. c #A4B239",
"0. c #A8B73E",
"q. c #ABB93B",
"w. c #8A9543",
"e. c #899447",
"r. c #929E4A",
"t. c #80845D",
"y. c #99A54C",
"u. c #98A54B",
"i. c #9CA950",
"p. c #A1AF4F",
"a. c #A9B747",
"s. c #B0BF47",
"d. c #A7B452",
"f. c #838665",
"g. c #8E926B",
"h. c #8B9365",
"j. c #868878",
"k. c #8D9076",
"l. c #90947E",
"z. c #9A9D7B",
"x. c #B2C145",
"c. c #B5C54A",
"v. c #B8C845",
"b. c #BECE55",
"n. c #B4C35A",
"m. c #BFCF5E",
"M. c #B5C459",
"N. c #C5D65B",
"B. c #C5D563",
"V. c #CCDD64",
"C. c #CBDB6A",
"Z. c #CFE066",
"A. c #CFE168",
"S. c #D1E367",
"D. c #D3E46B",
"F. c #D7E86E",
"G. c #D9EB6C",
"H. c #DBED70",
"J. c #D7E872",
"K. c #8A7A82",
"L. c #998C8D",
"P. c #8E908B",
"I. c #969A82",
"U. c #8A9090",
"Y. c #9E9596",
"T. c #9B9B98",
"R. c #8A8B84",
"E. c #9FA084",
"W. c #A1A295",
"Q. c #ACB090",
"!. c #A19BA8",
"~. c #A4A4A4",
"^. c #A7A7A9",
"/. c #B4A6AA",
"(. c #B8BDA3",
"). c #AEAFB2",
"_. c #B7B7B8",
"`. c #CFD1BD",
"'. c #C5C9B3",
"]. c #BDBBC7",
"[. c #BFC1C1",
"{. c #C1C1C6",
"}. c #CCCCC8",
"|. c #D9DCCF",
" X c #CDC8D0",
".X c #D7D5DE",
"XX c #E9EBDE",
"oX c #E9E8EA",
"OX c #ECEBF3",
"+X c #EFF0F0",
"@X c #F2F2F5",
"#X c #FEFEFF",
"$X c #F7F8FC",
/* pixels */
"                                                                        -                                                       ",
"                                                                    k z.(.h.<                                                   ",
"                                                                  y `.#X/./.g.                                                  ",
"                                                              4 i t.#XL.w 9 ..L                                                 ",
"                                                          - N Z r f.#X..o O { R                                                 ",
"                                                        : O.N     H XX@X..K.E.>                                                 ",
"                                                        B o.        R '.|.Q.k                                                   ",
"                                                      4 ;.4           > <                                                       ",
"                                                      m o.                                                                      ",
"                                                  1 r Z m i s 2                                                                 ",
"                                            # i B O.o.Z B Z +.O.V j >                                                           ",
"                                          r B +.O.o.o.o.O.O.Z o.O.-.+.j                                                         ",
"                                      @ j Z O.o.Z o.O.o.Z V Z o.Z V V +.B                                                       ",
"                                      j V o.o.Z Z Z B g i r m +.B r t s N m                                                     ",
"                                    s B Z o.Z Z o.m i i s s B O.V N m s i j i                                                   ",
"                                  2 m V o.Z Z O.B i g B V c c Z +.m s v V V c #                                                 ",
"                                  g m Z o.Z o.Z 4 i &.Y s x f c B 2 S e.P 2 h k                                                 ",
"                                1 m B o.Z Z o.c } }.[.! 7 %  .) s T.oX{.Q q & X.~                                               ",
"                                i m V o.Z o.o.h {.#XY.8 !.= ^ I.H oX#X| 8 U.O / [                                               ",
"                                s m Z o.Z V Z h _.#XY.o $ . ! k.p  X#XL.X . . { `                                               ",
"                                g m Z o.B g N c =.#X+X/ + 0 !._ s j.#X@X{ * ] T.b                                               ",
"                                g m Z o.V v V o.s P.$X$X X].=.m Z f R.OX$X.X).E x                                               ",
"                                g m Z Z B Z B N V s ( l.l.R m o.O.V d L ' ) n m c >                                             ",
"                                s m Z o.V V g m o.o.N c c V o.Z Z o.o.B m B o.Z Z j                                             ",
"                                r m B O.B m B o.c g V o.+.O.o.o.o.o.o.O.O.Z m m i                                               ",
"                                > v m o.Z Z Z V V c K E c N N V V N M m j ) } c :                                               ",
"                                  s m Z o.o.Z Z o.V k.j.s U W.U s f.^.n c j.z.g                                                 ",
"                                  > v B o.Z Z Z o.B P G o.W ^.F B g.^.B +.A n >                                                 ",
"                                    4 m V o.Z Z o.Z B Z O.M z Z O.A K Z O.o.4                                                   ",
"                                      i N Z o.Z Z o.o.Z o.Z V o.o.V m O.+.s                                                     ",
"                                        4 m o.O.Z Z Z Z Z o.o.o.o.o.+.O.u                                                       ",
"                                          > j Z O.O.O.N N O.Z V V V v ,                                                         ",
"                                              > i v B c i s s s i 1                                                             ",
"                                                  1 s c g g j 1                                                                 ",
"                                              3 v Z o.o.Z Z Z B i                                                               ",
"                                            2 Z +.O.Z V @.>.>.#.O.r                                                             ",
"                                          2 m m N B o.5.N.V.V.b.4.V -                                                           ",
"                                          c -.B m c D n.J.G.D.D.D.6.j                                                           ",
"                                        # s m N B B B C %.d.C.D.D.V.>.>                                                         ",
"                                        r B g c o.Z V Z N m &.M.D.H.v.c                                                         ",
"                                        g o.o.x x V o.Z o.o.B C p.B.N.,.:                                                       ",
"                                      > N Z o.Z $.T m o.o.Z o.m 1.r.n.7.s                                                       ",
"                                      r V o.Z V q.C.*.v B o.Z M *.M.D.q.B                                                       ",
"                                      s Z o.Z V 0.H.D.p.D c M Y y.u.D.x.O.4                                                     ",
"                                    # v Z o.Z V 0.D.Z.G.B.u.w.r.d.i.C.c.O.c                                                     ",
"                                    , N Z o.Z V 9.D.V.V.S.G.M.w.m.G.D.s.Z Z                                                     ",
"                                    4 B o.Z Z V 4.D.V.V.V.V.S.m.B.Z.D.8.V O.2                                                   ",
"                                    i V o.Z Z V ,.V.A.V.V.V.V.S.V.V.D.<.B +.s                                                   ",
"                                    s V o.Z Z Z Z c.D.V.V.V.V.V.V.D.N.#.V +.m                                                   ",
"                                    g Z o.Z Z Z B 3.D.Z.V.V.V.V.V.D.9.V Z O.B                                                   ",
"                                    x Z o.Z Z Z Z Z s.F.V.V.V.V.F.b.@.Z Z O.V                                                   ",
"                                    s Z o.Z Z Z Z V @.s.D.D.D.D.b.:.V Z Z -.g                                                   ",
"                                    : m +.O.o.o.o.o.Z o.4.x.c.8.#.Z O.O.-.B                                                     ",
"                                      : g V Z Z o.o.o.Z V V V N B V V N s                                                       ",
"                                            :                                                                                   ",
"                                                                                                                                ",
"                                                                            - 1 2 e t t l J ;                                   ",
"                              , 2 r u r r 3 1                         @ 3 e t a a a a a t l I                                   ",
"                          1 x Z Z m o.+.+.+.o.F w.6                 > t i t e t i i i i t l J                                   ",
"                        , V o.B B m Z o.o.o.o.Z 2.i.                t a t t i i i i a a i n I 5                                 ",
"                          m -.Z Z o.Z Z Z Z o.Z %.w.6               1 d a a a a a a t t 1 @                                     ",
"                          : V +.+.+.+.+.+.+.+.o.a.y.                  > e e 2 1 > -                                             ",
"                              2 r i j g c c g i y                                                                               ",
"                                                                                                                                "
};
