/* XPM */
static char *result[] = {
/* columns rows colors chars-per-pixel */
"64 64 180 2 ",
"   c None",
".  c #040101",
"X  c #150202",
"o  c #1C0000",
"O  c #130C0D",
"+  c #180A0A",
"@  c #0E1300",
"#  c #1A1E01",
"$  c #151A01",
"%  c #1D1A1A",
"&  c #270A0A",
"*  c #281C1D",
"=  c #371719",
"-  c #1D2201",
";  c #222502",
":  c #262A01",
">  c #2A2E02",
",  c #2D3102",
"<  c #2D320B",
"1  c #313602",
"2  c #383500",
"3  c #353B02",
"4  c #393F03",
"5  c #323A0C",
"6  c #30350B",
"7  c #2B3514",
"8  c #35391C",
"9  c #392223",
"0  c #3C2E32",
"q  c #432527",
"w  c #4D2F37",
"e  c #4D3535",
"r  c #3B4202",
"t  c #364301",
"y  c #3D451A",
"u  c #444C02",
"i  c #484F02",
"p  c #414A09",
"a  c #4C5403",
"s  c #4F5902",
"d  c #4D550F",
"f  c #545C03",
"g  c #555D0B",
"h  c #484F16",
"j  c #464B1C",
"k  c #495010",
"l  c #505710",
"z  c #555C17",
"x  c #566002",
"c  c #5A6302",
"v  c #5E6803",
"b  c #5D6608",
"n  c #5C6412",
"m  c #5C6319",
"M  c #53621D",
"N  c #636C03",
"B  c #667103",
"V  c #6A7503",
"C  c #6E7902",
"Z  c #677009",
"A  c #6B750A",
"S  c #737E03",
"D  c #646C15",
"F  c #6F7814",
"G  c #727D12",
"H  c #727C1A",
"J  c #484E21",
"K  c #4C5C24",
"L  c #4F5526",
"P  c #565B27",
"I  c #5C6123",
"U  c #5B622E",
"Y  c #5C6133",
"T  c #636B2F",
"R  c #606723",
"E  c #697628",
"W  c #747D23",
"Q  c #737D2C",
"!  c #696E38",
"~  c #646938",
"^  c #6C723B",
"/  c #787F31",
"(  c #737D3F",
")  c #5A434B",
"_  c #5C4C52",
"`  c #515452",
"'  c #675054",
"]  c #6D5B5C",
"[  c #767C45",
"{  c #777C4D",
"}  c #6C6E5C",
"|  c #787C57",
" . c #757A59",
".. c #786865",
"X. c #786F6E",
"o. c #7A7865",
"O. c #747674",
"+. c #857779",
"@. c #768103",
"#. c #798504",
"$. c #7D8904",
"%. c #7A850C",
"&. c #7E8A0D",
"*. c #7A841A",
"=. c #7C8711",
"-. c #77832A",
";. c #778137",
":. c #7C883C",
">. c #7B8254",
",. c #7E8070",
"<. c #828E04",
"1. c #859204",
"2. c #828E16",
"3. c #85911A",
"4. c #8B981E",
"5. c #838E29",
"6. c #929F26",
"7. c #8C9833",
"8. c #9EAC2C",
"9. c #97A429",
"0. c #A2B135",
"q. c #A7B53B",
"w. c #8D9941",
"e. c #8A9249",
"r. c #888C5E",
"t. c #ADBC43",
"y. c #B0BF45",
"u. c #A7B554",
"i. c #ACBA54",
"p. c #85886C",
"a. c #90976C",
"s. c #87887E",
"d. c #8D8F78",
"f. c #838676",
"g. c #91947B",
"h. c #939872",
"j. c #B3C246",
"k. c #B5C449",
"l. c #BFCF56",
"z. c #B4C358",
"x. c #BFD056",
"c. c #C2D259",
"v. c #C8D85D",
"b. c #C0D061",
"n. c #CCDD64",
"m. c #CEE067",
"M. c #CFE06A",
"N. c #D2E367",
"B. c #D3E46B",
"V. c #D6E86F",
"C. c #8B8683",
"Z. c #998C8D",
"A. c #9A9B88",
"S. c #9E9D9E",
"D. c #979993",
"F. c #A69B9B",
"G. c #A1A087",
"H. c #B5BA9B",
"J. c #9993A1",
"K. c #ABA3A3",
"L. c #A9A9AC",
"P. c #B1A1A4",
"I. c #B5B8A9",
"U. c #BFB0B7",
"Y. c #B3B3B7",
"T. c #C3C6AD",
"R. c #BFBDC8",
"E. c #BDBEC0",
"W. c #C5C7C7",
"Q. c #CACAC4",
"!. c #C8C6CE",
"~. c #D9DBCD",
"^. c #D6D4DD",
"/. c #E0E2D3",
"(. c #E7E8E7",
"). c #E2E2E1",
"_. c #EEEDF5",
"`. c #F7F6FC",
"'. c #F7F9F9",
"]. c #FEFEFF",
/* pixels */
"                                                                        #                                                       ",
"                                                                    y h.I.a.<                                                   ",
"                                                                  5 T.].U.P.h.-                                                 ",
"                                                              3 u { ].F.e 0 X.Y                                                 ",
"                                                            N @.u | ].Z.O O ..~                                                 ",
"                                                          S C     j /.`.+.+.G.<                                                 ",
"                                                        N #.        Y T.~.H.L                                                   ",
"                                                      1 1.u           ; 6 #                                                     ",
"                                                      c #.#                                                                     ",
"                                                  > 4 C N u a 1                                                                 ",
"                                            # u B #.@.@.V S $.#.S f :                                                           ",
"                                          r B $.#.@.@.@.#.#.S @.#.<.$.f                                                         ",
"                                        a S #.@.S @.#.#.S C S S @.V V $.V                                                       ",
"                                      a C @.@.S S S V x i r v $.V r r a N N                                                     ",
"                                    u B S @.S S @.B i u a a B #.C B N a u f u                                                   ",
"                                  1 N V @.S S #.C u f V C c c S $.B a c C C v -                                                 ",
"                                  f N S @.S @.@.r u W E a f d f C 3 m e.! 2 g h                                                 ",
"                                > v B @.S S #.c } Q.W._ = & X.>.a D.(.!.) w & +.`                                               ",
"                                u N V @.S @.@.g E.].K.9 F.* ) A.L ).].C.9 D.+ ' O.                                              ",
"                                a N S @.S S S f Y.].K.X % . ) g.k Q.].F.X . . ] o.                                              ",
"                                f N S @.C x N c  .].'.] o q J.[ s ,.].'.X.= ' S.R                                               ",
"                              $ f N S @.C N V @.a C.`.`.!.R.p.N @.a s._.`.^.Y.^ c                                               ",
"                                f N S @.V S V N C f ~ d.g.^ N @.#.S f U  .| m v c >                                             ",
"                                a N C @.V C f N @.#.B c c V @.@.S @.@.V N B @.S S f                                             ",
"                                r N V #.B N N @.N f C @.$.#.@.@.@.@.@.#.#.S B N i                                               ",
"                                ; c N @.S S S V S c I ! c N N V V B N N f [ o.x :                                               ",
"                                  a N C @.@.S S #.C p.s.a I D.T a | S.m c p.A.c                                                 ",
"                                  ; c B @.S S S @.V P F @./ L.W V r.L.A $.D m ,                                                 ",
"                                    3 N C @.S S @.S V @.#.Z z S #.D P S #.#.r                                                   ",
"                                      r B S @.S S @.@.@.@.S C @.@.C N #.$.a                                                     ",
"                                        3 N @.#.S S S S S @.#.@.@.@.$.#.u                                                       ",
"                                          ; a S #.#.#.V B @.S C V C c >                                                         ",
"                                              : u c V N u a a a u 1                                                             ",
"                                                  , a c c c f ,                                                                 ",
"                                              1 c S S @.S S C C u                                                               ",
"                                            3 S $.#.S C %.4.4.&.@.u -                                                           ",
"                                          3 c @.@.S S 9.c.n.n.l.9.C a 1                                                         ",
"                                        c $.c S S C 9.N.B.m.m.B.N.8.c a ,                                                       ",
"                                        v @.N V S 3.n.N.n.n.n.n.N.n.3.i f -                                                     ",
"                                        c B N N S t.B.n.n.n.n.n.n.B.k.c a f                                                     ",
"                                        N @.B x =.v.N.n.n.n.n.n.n.N.n.2.u v r                                                   ",
"                                      # B #.C c 5.B.n.n.n.n.n.n.n.n.N.8.f a N ;                                                 ",
"                                      1 B #.S N 7.B.n.n.n.n.n.n.n.n.B.q.N i v a                                                 ",
"                                      p v #.@.V 5.M.n.n.n.n.n.n.n.n.B.j.S f N C :                                               ",
"                                    # a c #.@.C H b.N.n.n.n.n.n.n.n.B.k.@.v N S z                                               ",
"                                    > c c @.S S A z.B.n.n.n.n.n.n.n.B.t.S V b n J 8                                             ",
"                                    4 B c S @.@.B i.B.n.n.n.n.n.n.n.B.0.C S l (                                                 ",
"                                    u S f c S N W z.B.n.n.n.n.n.n.n.N.6.C $.a                                                   ",
"                                    a C H :.E Q ;.u.m.n.n.n.n.n.n.N.c.&.C $.v                                                   ",
"                                    f C H Q -.w.c -.n.N.n.n.n.n.n.B.q.C S #.V                                                   ",
"                                    f S N N A n S S t.V.n.n.n.n.B.l.%.C S #.V                                                   ",
"                                    a S @.@.S V @.S %.y.B.B.B.B.x.2.C S S <.f                                                   ",
"                                    - N $.#.#.#.@.@.S @.9.j.k.0.&.S #.#.<.V                                                     ",
"                                      - f C S S S @.@.S C C S V V C C V a                                                       ",
"                                                                                                                                ",
"                                                                                                                                ",
"                                                        3 a c N B C G w.U                                                       ",
"                                                  : c C N @.$.#.#.#.S *.u.T                                                     ",
"                                                1 C V C N V @.S S S S G w.T K                                                   ",
"                                                a <.C V S @.@.@.@.#.@.*.u.:.K 7                                                 ",
"                                                  V <.$.#.#.#.@.S B c a p M T 7                                                 ",
"                                                    i f f f s a u r t t 3 5 y                                                   ",
"                                                        @ # # - - - #                                                           ",
"                                                                                                                                "
};
