/* XPM */
static char *result[] = {
/* columns rows colors chars-per-pixel */
"64 64 183 2 ",
"   c None",
".  c #0F0202",
"X  c #12070B",
"o  c #141701",
"O  c #1A1D01",
"+  c #1E1500",
"@  c #221600",
"#  c #1C2001",
"$  c #232601",
"%  c #242901",
"&  c #2A2D03",
"*  c #382502",
"=  c #2C3102",
"-  c #2F3A02",
";  c #323602",
":  c #343B02",
">  c #393E02",
",  c #353409",
"<  c #212410",
"1  c #2F3818",
"2  c #353A15",
"3  c #352E32",
"4  c #422E08",
"5  c #4E3B0F",
"6  c #46330B",
"7  c #432F11",
"8  c #493813",
"9  c #503E15",
"0  c #4D3939",
"q  c #374203",
"w  c #3B4302",
"e  c #3C4A02",
"r  c #36431C",
"t  c #434B02",
"y  c #4D4903",
"u  c #435102",
"i  c #4B5302",
"p  c #485009",
"a  c #495902",
"s  c #545601",
"d  c #545C03",
"f  c #525A08",
"g  c #444D13",
"h  c #454A1B",
"j  c #534016",
"k  c #45521D",
"l  c #545A1C",
"z  c #545A19",
"x  c #5B6403",
"c  c #5F6803",
"v  c #59610C",
"b  c #5F690B",
"n  c #566004",
"m  c #5C621C",
"M  c #636C03",
"N  c #636C09",
"B  c #677103",
"V  c #6A7503",
"C  c #6E7902",
"Z  c #68710E",
"A  c #737E03",
"S  c #727C0B",
"D  c #646C19",
"F  c #636C10",
"G  c #69731B",
"H  c #6D7716",
"J  c #727C1A",
"K  c #57462B",
"L  c #4E5224",
"P  c #545B22",
"I  c #555B2C",
"U  c #575A2B",
"Y  c #585D31",
"T  c #60512E",
"R  c #6A5C34",
"E  c #5B6225",
"W  c #5C603B",
"Q  c #626826",
"!  c #656C2E",
"~  c #6A7226",
"^  c #707720",
"/  c #747C2C",
"(  c #727C23",
")  c #6D6634",
"_  c #696E37",
"`  c #71633F",
"'  c #697134",
"]  c #767D30",
"[  c #6B6F49",
"{  c #6F7448",
"}  c #767B4D",
"|  c #777448",
" . c #6B7051",
".. c #7C7956",
"X. c #777657",
"o. c #746A64",
"O. c #827670",
"+. c #768104",
"@. c #798504",
"#. c #7D8904",
"$. c #768109",
"%. c #7B860B",
"&. c #798517",
"*. c #7A8427",
"=. c #7C8639",
"-. c #7E844A",
";. c #7C8254",
":. c #7E835C",
">. c #7D8061",
",. c #818D04",
"<. c #849104",
"1. c #838F14",
"2. c #8B971A",
"3. c #929F1B",
"4. c #8D9926",
"5. c #919D23",
"6. c #869037",
"7. c #99A62C",
"8. c #9DAB2B",
"9. c #96A229",
"0. c #9EAB31",
"q. c #96A336",
"w. c #A7B537",
"e. c #8B9645",
"r. c #919D4A",
"t. c #838458",
"y. c #97A44B",
"u. c #98A548",
"i. c #A1AE4C",
"p. c #AFBE40",
"a. c #B0BF45",
"s. c #A6B454",
"d. c #AEBC5A",
"f. c #868868",
"g. c #949867",
"h. c #898B76",
"j. c #969A79",
"k. c #9B9C78",
"l. c #9EA47E",
"z. c #A4A476",
"x. c #B5C44C",
"c. c #B2C144",
"v. c #B4C35B",
"b. c #B8C75B",
"n. c #BCCC5D",
"m. c #BAC950",
"M. c #BFCF62",
"N. c #C2D254",
"B. c #C3D458",
"V. c #C5D561",
"C. c #C8D761",
"Z. c #CCDD64",
"A. c #CDDE69",
"S. c #CFE066",
"D. c #CFE169",
"F. c #D2E367",
"G. c #D3E46B",
"H. c #D7E86C",
"J. c #DBEC6E",
"K. c #DBED71",
"L. c #938383",
"P. c #93948D",
"I. c #949687",
"U. c #9C9498",
"Y. c #A4949A",
"T. c #A3A687",
"R. c #B1B486",
"E. c #B6BA8B",
"W. c #ABAD96",
"Q. c #ADB093",
"!. c #B8BC98",
"~. c #A69AA0",
"^. c #A7A7A8",
"/. c #ADACB1",
"(. c #BCC19C",
"). c #C6CB9B",
"_. c #CCD2AC",
"`. c #D5DBB3",
"'. c #D1D5BE",
"]. c #E5EBBC",
"[. c #D6D9C5",
"{. c #DCDECE",
"}. c #FEFDFE",
/* pixels */
"                                                                    O &                                                         ",
"                                                                  I !.[.T.2                                                     ",
"                                                                h {.}.Y.Y.j.%                                                   ",
"                                                            w i t.}.L.0 3 o.Y                                                   ",
"                                                        # B A w ..}.U.. X O.I                                                   ",
"                                                        +.V     h [.}.~.Y.k.$                                                   ",
"                                                      M @.        L Q.'.l.2                                                     ",
"                                                    = <.t             O                                                         ",
"                                                    d #.$                                                                       ",
"                                                $ ; V V t i >                                                                   ",
"                                            > c +.+.A V A #.#.+.M >                                                             ",
"                                        & x @.#.+.+.+.+.@.+.A +.,.,.M %                                                         ",
"                                      > B @.+.A A +.@.A V A +.+.V M +.@.>                                                       ",
"                                    w B +.+.A +.+.C x t q n @.A e w u d B ;                                                     ",
"                                  ; M A +.A A +.V i t i i c @.A V M s i i i O                                                   ",
"                                  x B +.A A +.A i s V A M d V #.B i M A +.C >                                                   ",
"                                w M C +.A A @.i t S &.x M b i C t D 6.] y s G <                                                 ",
"                                d M A +.A +.V P g.R.| j 6 ) -.u } ).!.R R 8 )  .                                                ",
"                              & c B +.A +.@.x :.].E.9 t.Y 5 g.g g.].z.6 ;.k 5  .                                                ",
"                              > M V +.A A +.c } `.R.6 , & 7 ..p ;.`.R.8 + @ K [ O                                               ",
"                              t M V +.A c c V P W._...* 4 X.{ c l T.`.k.T ` f.~ =                                               ",
"                              t M V +.A M c @.c W W._.E.T.:.b @.c I j.(.!.j.! M =                                               ",
"                              t M V +.C C A B A c l { ;._ x A +.+.M f l E v M M i                                               ",
"                              : c B +.C A c d A @.A M c V +.+.A A +.A C C @.+.A M                                               ",
"                              $ x M +.A M c C C s V A @.#.+.+.@.@.+.+.@.A M N s                                                 ",
"                                f M A A V A V C B f _ D M M B B M Z F d m P.~ t                                                 ",
"                                : M V +.+.+.A +.+./ U.Q i h.h.i z /.>.x ^ P.J                                                   ",
"                                  s M A +.A +.+.+.m Q @.C I.f.C H ^.-.A A v t                                                   ",
"                                  $ x V +.+.A A +.V C +.+.f N @.A l N @.#.x                                                     ",
"                                    = c C +.+.A A +.+.A +.A A A +.V A ,.M                                                       ",
"                                      % x A @.+.A A A A +.@.+.+.+.@.#.x                                                         ",
"                                          t B @.#.@.+.M A A C V V M w                                                           ",
"                                            O w d M V s t i i t >                                                               ",
"                                                o w s x x x t O                                                                 ",
"                                              w M A +.+.A A A V ;                                                               ",
"                                            i @.@.+.A A 1.5.2.#.A $                                                             ",
"                                          w c +.+.C $.w.C.S.Z.x.3.c                                                             ",
"                                        w ,.B M C @.a.H.F.Z.S.G.C.3.w                                                           ",
"                                        ; +.C M s q.K.Z.Z.Z.Z.Z.G.N.$.                                                          ",
"                                        w x B V M *.M.H.Z.Z.Z.Z.Z.G.w.t                                                         ",
"                                      # M d C +.C B H b.H.Z.Z.Z.Z.G.N.A                                                         ",
"                                      : C V d +.A A V G b.H.Z.Z.Z.S.Z.3.w                                                       ",
"                                      i A @.c c @.A +.V H n.G.Z.Z.Z.F.8.M                                                       ",
"                                      x A +.A d M @.A +.B *.D.F.Z.Z.G.0.A =                                                     ",
"                                    $ M A +.+.S v V +.+.C ( s.V.S.Z.G.0.+.s                                                     ",
"                                    ; V +.+.A @.q.D B A N =.r.i.F.Z.G.0.A V                                                     ",
"                                    w V +.A A C p.v.G G / y.b.Z.Z.Z.F.9.C @.=                                                   ",
"                                    i C +.A A C 5.J.d.e.y.e.s.H.Z.S.Z.2.C #.t                                                   ",
"                                    f A +.A A A %.B.A.e.n.n.b.S.Z.G.m.+.A #.x                                                   ",
"                                    d A +.A A A C 7.H.V.C.F.F.Z.Z.G.7.C A @.B                                                   ",
"                                    x A +.A A A A A x.K.S.Z.Z.Z.H.x.A A A #.B                                                   ",
"                                    s A +.A A A A C %.x.G.G.G.G.x.%.C A +.,.i                                                   ",
"                                    = C #.+.+.+.+.+.A +.7.c.c.8.%.+.@.#.,.x                                                     ",
"                                      = M +.@.@.@.@.@.+.C C C V B B M c w                                                       ",
"                                          % & & = =                                                                             ",
"                                                              # % r 1                                                           ",
"                                                      % : w e e e g k 1                                                         ",
"                                                o - w e t w i s d x M V M c i P                                                 ",
"                                              O w t w : w x M A M B @.@.@.#.+.4.y.1                                             ",
"                                              w u w e q i @.V V V C A A A A +.M u.e.                                            ",
"                                              = a u u u t A ,.A @.@.+.+.+.+.+.&.i.E                                             ",
"                                                % w q - # = M A +.+.@.@.@.@.A G r.'                                             ",
"                                                                $ = ; : : = $                                                   ",
"                                                                                                                                "
};
