/* XPM */
static char *result[] = {
/* columns rows colors chars-per-pixel */
"64 64 159 2 ",
"   c None",
".  c #0A0000",
"X  c #141701",
"o  c #161901",
"O  c #191C01",
"+  c #170A10",
"@  c #1D2201",
"#  c #222501",
"$  c #252A02",
"%  c #2A2E02",
"&  c #2C3202",
"*  c #2D310B",
"=  c #313602",
"-  c #353C02",
";  c #393F02",
":  c #2E3718",
">  c #343910",
",  c #313B19",
"<  c #332B30",
"1  c #4C3A3A",
"2  c #3C4402",
"3  c #3E4B02",
"4  c #354202",
"5  c #394518",
"6  c #414703",
"7  c #434C02",
"8  c #484F03",
"9  c #445202",
"0  c #4C5403",
"q  c #505703",
"w  c #545C03",
"e  c #545C0C",
"r  c #495817",
"t  c #535A11",
"y  c #566003",
"u  c #5B6403",
"i  c #5F6802",
"p  c #5B620F",
"a  c #5C631D",
"s  c #636C04",
"d  c #646E0D",
"f  c #667103",
"g  c #6A7504",
"h  c #6E7903",
"j  c #67700C",
"k  c #737E03",
"l  c #727D09",
"z  c #626A16",
"x  c #6B7514",
"c  c #6F7815",
"v  c #6F781E",
"b  c #737C17",
"n  c #404D20",
"m  c #4B4F20",
"M  c #485722",
"N  c #4E5528",
"B  c #505629",
"V  c #53582A",
"C  c #5A5F2F",
"Z  c #535822",
"A  c #5C6221",
"S  c #576922",
"D  c #576829",
"F  c #5F6731",
"G  c #626927",
"H  c #6B7425",
"J  c #707824",
"K  c #656C31",
"L  c #6A6F38",
"P  c #757C30",
"I  c #747D38",
"U  c #777A59",
"Y  c #776F67",
"T  c #867777",
"R  c #877C74",
"E  c #768104",
"W  c #798504",
"Q  c #7D8904",
"!  c #778209",
"~  c #7B870C",
"^  c #7E8826",
"/  c #798328",
"(  c #7E8938",
")  c #798334",
"_  c #7D8341",
"`  c #818E04",
"'  c #859104",
"]  c #818C18",
"[  c #828E14",
"{  c #859118",
"}  c #8F9C19",
"|  c #89951A",
" . c #909D19",
".. c #8F9B23",
"X. c #8A973B",
"o. c #94A127",
"O. c #9AA827",
"+. c #99A62B",
"@. c #9CAA2D",
"#. c #9EAC31",
"$. c #A4B234",
"%. c #A7B63D",
"&. c #8A9646",
"*. c #8F9B47",
"=. c #8E994A",
"-. c #909B47",
";. c #939F4B",
":. c #9AA74C",
">. c #97A443",
",. c #9AA656",
"<. c #A1AE4D",
"1. c #AFBE41",
"2. c #A3B14E",
"3. c #B0BF45",
"4. c #A4B250",
"5. c #868A61",
"6. c #878A6C",
"7. c #8F926F",
"8. c #8E907C",
"9. c #939771",
"0. c #989E75",
"q. c #959972",
"w. c #9CA17A",
"e. c #B5C54C",
"r. c #BACA4F",
"t. c #B8C75D",
"y. c #BFCE5E",
"u. c #B4C357",
"i. c #BFD051",
"p. c #BFD05E",
"a. c #C6D65C",
"s. c #C7D85E",
"d. c #C1D253",
"f. c #C7D764",
"g. c #CCDD64",
"h. c #CCDD69",
"j. c #CFE066",
"k. c #CFE168",
"l. c #D2E367",
"z. c #D3E56B",
"x. c #D7E86E",
"c. c #D9EB6C",
"v. c #D8EA70",
"b. c #918484",
"n. c #93948C",
"m. c #9F8D93",
"M. c #A2949A",
"N. c #A79A9F",
"B. c #B2B499",
"V. c #9897A0",
"C. c #A7A6AA",
"Z. c #ADACB4",
"A. c #BDC1A5",
"S. c #D0D4BD",
"D. c #D3D8C2",
"F. c #DFE1D2",
"G. c #E4E7D9",
"H. c #FEFDFF",
"J. c #F3F0F5",
/* pixels */
"                                                                    @ %                                                         ",
"                                                                  C A.D.w.>                                                     ",
"                                                                Z G.J.m.M.9.                                                    ",
"                                                            2 9 7.H.T 1 < Y B                                                   ",
"                                                        # g h ; 6.H.b.. + R N                                                   ",
"                                                      # W f     m F.H.M.N.q.                                                    ",
"                                                      f E         V B.S.0.*                                                     ",
"                                                    - ' 2             O                                                         ",
"                                                    u W                                                                         ",
"                                                # = h f 6 0 -                                                                   ",
"                                            ; s E E k g k Q Q E u ;                                                             ",
"                                        % i W Q E E E E W E k E ` ` s                                                           ",
"                                      2 g W E k k E W k h k E E f s E E -                                                       ",
"                                    2 g E E k k E h y 7 ; u Q h 2 3 0 w s &                                                     ",
"                                  = s k E k k E f 7 2 0 7 u W k g s w 0 w 0                                                     ",
"                                O u f E k k E h 0 u k k f w f Q s w h W E k ;                                                   ",
"                                6 s h E k E E w u W E E W g w s 0 k W E E W E @                                                 ",
"                                u s E E k E f q k E k k k W s 7 s W k k k k ` 7                                                 ",
"                              & i f E k E W s w W E E E E Q s 2 s Q E E W W Q 7                                                 ",
"                              2 s g E E k E s 0 k k k h g s 8 7 w h g g f s w 2                                                 ",
"                              7 s h E k i s h 6 2 u u u s u 7 g 2 7 s s s f 0 w =                                               ",
"                              7 s h E k i s W s 2 0 f g s 0 s Q s 6 0 s f w w g %                                               ",
"                              6 s g E h h k f k s 0 7 0 0 s W E E g w 0 w u g s 8                                               ",
"                              ; s g E h k s u k W E g f k W k k E E E k E W E k u                                               ",
"                              $ i f E k s s k g w f k W W E E W E E E E k s s 0                                                 ",
"                                w s k k g k g h s e L z i s f f f d d w A n.H 2                                                 ",
"                                ; s g E E E k E E P V.a 0 8.6.0 A Z.U i J n.b                                                   ",
"                                  w s k E k E E E a G W h n.5.h c C._ E k p 2                                                   ",
"                                  $ i g E E k k E f h E k t s W k Z j W Q y                                                     ",
"                                    & s h E E k k E E E E k k E E f k ` s                                                       ",
"                                      % u k W E k k k k E W E E E W Q w                                                         ",
"                                        o 7 f W W W k s k k h g g s 2                                                           ",
"                                            @ 2 u f g w 0 0 0 7 =                                                               ",
"                                                X 2 w u u i 0 O                                                                 ",
"                                              2 s k k E k k k f &                                                               ",
"                                            0 W Q E k k [ ..| Q k #                                                             ",
"                                          ; f W E h ! %.f.k.g.e.} u                                                             ",
"                                        w W u h k k 3.x.l.g.j.z.s. .;                                                           ",
"                                        0 Q g u g #.z.g.g.g.g.g.z.d.l                                                           ",
"                                        2 f f i d a.z.g.g.g.g.g.g.z.$.6                                                         ",
"                                      # 0 f E g d 2.x.g.g.g.g.g.g.z.i.k                                                         ",
"                                      ; i u W k h x t.z.g.g.g.g.g.k.f.} 2                                                       ",
"                                      0 k u g E E f / h.l.g.g.g.g.g.l.O.s                                                       ",
"                                      u E s u W k E s >.z.g.g.g.g.g.l.#.k &                                                     ",
"                                    # s E k w g E E k c y.l.g.g.g.g.l.$.E q                                                     ",
"                                    = g E W s u W E E s <.c.g.g.g.g.l.#.k g                                                     ",
"                                    6 g E E k w s k s H ;.u.l.g.g.g.l.o.h W %                                                   ",
"                                    0 h E k W f z v H &.:.4.j.g.g.k.f.{ h Q 6                                                   ",
"                                    w k E k E h ^ ,.=.-.p.l.g.g.g.z.r.E k Q u                                                   ",
"                                    y k E k k E s ( f.*.y.l.g.g.g.z.+.h k W f                                                   ",
"                                  O u k E k k E g g r.v.g.g.g.g.x.e.k k k Q s                                                   ",
"                                    w k E k k k E k ~ e.z.z.z.z.e.~ h k E ` 7                                                   ",
"                                    & h Q E E E E E k W +.1.3.@.~ E W Q ` u                                                     ",
"                                      & s E W W W W W E h k h f f f s u 2                                                       ",
"                                          $ % % %                                                                               ",
"                                                                                                                                ",
"                                              O $ % & 5 :                           # # #                                       ",
"                                      @ & 4 3 9 9 9 9 r D n               # 0 s s f E k k k s ) F                               ",
"                                  X - 9 2 2 9 7 3 3 7 2 r M             % k g k s s W E E W E b <.F                             ",
"                                  2 3 3 2 3 7 7 3 7 7 3 S D             ; ` k g h k k k k k E g X.I                             ",
"                                  3 9 3 7 9 9 9 9 9 9 3 5 ,               s ` W Q Q W W W W W ] u.K                             ",
"                                  @ 3 9 9 7 3 2 4 & @                       0 i s s f g f s u e K N                             ",
"                                      @ @ o                                                                                     ",
"                                                                                                                                "
};
