/* XPM */
static char *result[] = {
/* columns rows colors chars-per-pixel */
"64 64 237 2 ",
"   c #6E361B",
".  c #773C1E",
"X  c #5F392D",
"o  c #6A2E22",
"O  c #643425",
"+  c #6C3A25",
"@  c #653729",
"#  c #643D2B",
"$  c #6B3D2C",
"%  c #7A3725",
"&  c #733D25",
"*  c #7B3E22",
"=  c #733D2B",
"-  c #633E33",
";  c #6A3E33",
":  c #79411F",
">  c #64422B",
",  c #6D422C",
"<  c #754527",
"1  c #7C4324",
"2  c #74432B",
"3  c #7B452B",
"4  c #7E4A2C",
"5  c #7F542C",
"6  c #664637",
"7  c #6B4432",
"8  c #6B4C36",
"9  c #6A4B3B",
"0  c #744332",
"q  c #7A4532",
"w  c #7D4C33",
"e  c #734A38",
"r  c #6D563D",
"t  c #74553A",
"y  c #75613E",
"u  c #714E43",
"i  c #6D5341",
"p  c #6D5A41",
"a  c #735B45",
"s  c #6F6341",
"d  c #776648",
"f  c #7B6D4C",
"g  c #7A734C",
"h  c #7A6E50",
"j  c #7D7451",
"k  c #7D7A54",
"l  c #7E7658",
"z  c #833E24",
"x  c #883E22",
"c  c #8B461D",
"v  c #834325",
"b  c #8C4324",
"n  c #814927",
"m  c #83452A",
"M  c #8D4329",
"N  c #834A2C",
"B  c #8C4C2D",
"V  c #924525",
"C  c #944B26",
"Z  c #93452A",
"A  c #934B2B",
"S  c #994D2C",
"D  c #83512E",
"F  c #97532C",
"G  c #9B522D",
"H  c #804532",
"J  c #834C32",
"K  c #8A4E32",
"L  c #944E32",
"P  c #9B4D30",
"I  c #845233",
"U  c #8B5234",
"Y  c #885639",
"T  c #945334",
"R  c #9C5432",
"E  c #9E5A34",
"W  c #99573A",
"Q  c #A1562F",
"!  c #A25533",
"~  c #A35B35",
"^  c #A25B3A",
"/  c #A75C3A",
"(  c #9B6138",
")  c #A4623C",
"_  c #A86539",
"`  c #AB633D",
"'  c #B2683D",
"]  c #B2743F",
"[  c #945744",
"{  c #A45E41",
"}  c #88744D",
"|  c #837C55",
" . c #AB6542",
".. c #AA6A44",
"X. c #B16C44",
"o. c #B36D48",
"O. c #AE7248",
"+. c #B87447",
"@. c #B4744A",
"#. c #BB7A4C",
"$. c #BB7B53",
"%. c #C37E49",
"&. c #C37E54",
"*. c #85855A",
"=. c #898859",
"-. c #908D5E",
";. c #8C955C",
":. c #94985E",
">. c #BE8558",
",. c #8E8E61",
"<. c #8C9763",
"1. c #959661",
"2. c #939C63",
"3. c #AA9366",
"4. c #95A365",
"5. c #9AA968",
"6. c #9DB56B",
"7. c #9FBE71",
"8. c #A1B56C",
"9. c #A4BB6F",
"0. c #A3BC72",
"q. c #B0B473",
"w. c #C4814F",
"e. c #C48253",
"r. c #C4865B",
"t. c #CB8858",
"y. c #D48E5A",
"u. c #D9955C",
"i. c #E99D5D",
"p. c #EDA35F",
"a. c #F2A35F",
"s. c #CC8C62",
"d. c #D18F62",
"f. c #CB9367",
"g. c #D59463",
"h. c #D89767",
"j. c #D49C6C",
"k. c #DB9E6B",
"l. c #D79A72",
"z. c #E49D68",
"x. c #E19F73",
"c. c #DDA46E",
"v. c #DBA373",
"b. c #DCA87B",
"n. c #E6A465",
"m. c #EDA664",
"M. c #EDAA66",
"N. c #E3A56E",
"B. c #EAA76B",
"V. c #EEAB6C",
"C. c #F2A664",
"Z. c #F3AA65",
"A. c #F3A769",
"S. c #F2AC6C",
"D. c #F9AC6A",
"F. c #EAB26F",
"G. c #F3B16E",
"H. c #F9B26E",
"J. c #E2A573",
"K. c #E5A677",
"L. c #E4AA75",
"P. c #EEAE73",
"I. c #E2AB7C",
"U. c #ECAD7B",
"Y. c #F2AE71",
"T. c #F2AD79",
"R. c #EEB275",
"E. c #E9B67C",
"W. c #EDB57C",
"Q. c #F3B374",
"!. c #F9B574",
"~. c #F4B976",
"^. c #FBB876",
"/. c #F4B67A",
"(. c #F9B679",
"). c #F5BA7C",
"_. c #FABB7D",
"`. c #9EC178",
"'. c #AEC773",
"]. c #AAC574",
"[. c #A8C876",
"{. c #AACB77",
"}. c #ACD479",
"|. c #B3D679",
" X c #B5DC7B",
".X c #B4E27D",
"XX c #BBE47E",
"oX c #B3ED7A",
"OX c #BCEC7D",
"+X c #B5F27C",
"@X c #BEF17D",
"#X c #BAF87E",
"$X c #F8C07F",
"%X c #C2F57D",
"&X c #C5FA7E",
"*X c #C9FD7E",
"=X c #DFA981",
"-X c #E4B382",
";X c #ECB886",
":X c #F3B482",
">X c #FCB782",
",X c #F5BC83",
"<X c #F9BD83",
"1X c #F5BD89",
"2X c #FBBE8A",
"3X c #B2D581",
"4X c #BCE482",
"5X c #B7EC81",
"6X c #BDEC82",
"7X c #BAF481",
"8X c #BBF981",
"9X c #EBC38A",
"0X c #F6C285",
"qX c #FAC185",
"wX c #FAC887",
"eX c #F6C38B",
"rX c #FAC48B",
"tX c #F5CA8D",
"yX c #FBC98E",
"uX c #F4C492",
"iX c #FBC691",
"pX c #F6CA93",
"aX c #FBCB93",
"sX c #F7CA9A",
"dX c #FACC9A",
"fX c #FCD196",
"gX c #FBD699",
"hX c #FDD29C",
"jX c #C1ED83",
"kX c #C4F682",
"lX c #C5FB82",
"zX c #C9FE84",
"xX c #C7F788",
"cX c #CBFE8A",
"vX c #FED4A2",
"bX c #FFDAA2",
"nX c #FFE1B1",
/* pixels */
"%X%X%X%X%X%X%X%X%X%X%X%X%X%X%X%X%X%X%XkXkX%X%X%X%X%X%X&X&X*XzXjX X|.XX4X6XkXkXkXkX@X@X@X@X@X@X@X@X@X@X@X@X@X@X@X@X@X%X%X%X%X%X%X",
"%X%X%X%X%X%X%X%X%X%X%X%X%X%X%X%X%X%X%X&XlX&X&X&X%X%X%XOX|.9.2.| a a d h | *.=.2.[.kXlXkX%X@X@X@X@X@X@X@X@X@X@X@X@X@X%X%X%X%X%X%X",
"%X%X%X%X%X%X%X%X%X%X%X%X%X%X%X%X&XzXzXkX6X[.].|.%X&X}.h t 8 7 , 2 3 2 2 2 , , 7 i | 4.].6XlX%X@X@X@X@X@X@X@X@X@X%X%X%X%X%X%X%X%X",
"%X%X%X%X%X%X%X%X%X%X%X%X&X&XlXzXjX9.,.*.f u 9 i 5.zX'.w J U W W T T T W T U U J q 7 6 9 j ].6XlX%X@X@X@X@X@X@X@X%X%X%X%X%X%X%X%X",
"%X%X%X%X%X%X%X%X%X%X%X&XOXXX X4.f 9 ; 0 q J J m [ q.3.T ! ! ! R W W ^ E W ^ W W T U I J 2 9 j 8.4XlXkX%X%X@X@X@X%X%X%X%X%X%X%X%X",
"%X%X%X%X%X%X%X%X%X%X&XkX,.a a ; 0 w I I U U F G W W T ! ! ~ ~ ^ .. .) E G A A G F R T T B 3 $ 7 d 4.[. XXXlX%X%X%X%X%X%X%X%X%X%X",
"%X%X%X%X%X%X%X%X%X%XzX|.i 0 4 K U J 4 K W ^ ! ! ^ O. . .l.b.I.-X-XI.b.v.j.>.O.) E F A ! R C B m $ $ r p g [.kX%X@X@X@X%X%X%X%X%X",
"%X%X%X%X%X%X%X%X%XzX Xh 0 I D D 4 N R ^ ^ ~ o.d.=XsX=X) =XnXbXvXhXhXhXvXvXvXdX1XI.f.$. .E ! ~ E B m 3 0 $ 9 0.8X+XoXoX%X@X@X%X%X",
"%X%X%X%X%X%X%X%X&X6Xj $ I I D 3 K ^ / ~ O.j.uXhXhXhXvXf...;XaXeXeXeXeXtXrXyXaXgXhXhXdX-Xf.#.) ~ ^ E B N J 2 p }.#XoXoXoXoX@XoX@X",
"%X%X%X%X%X%X%X%XkX*.- I I N 1 T  .^ ) f.uXvXhXaXyXtXaXiX#.y.aX0X0XrX0X0X).~.Q.~.0XrXaXfXfXiXI.r.) E W T B B # k 5X+XoXoXoXoXoX@X",
"%X@X%X%X%X%X%XzX5.6 w I I 1 T  ./ @.-XvXhXfXpXeXeXtXtXfXj.l.hXdXfXhXdXhXaXrX,X/.Y.S.Q.~._.yXhXaX-X>.~ ! R B 3 > ;.7XoXoXoXoXoXoX",
"oXoXoXoX%X%XlX|.p 0 I I 4 T ` ~ e.uXvXhXpXeXtXaXpXfXfXgXj.=XvXpXpXsXsXdXdXhXhXpX2X_.Q.Q.Y.~.~.rXaXaXv.' Q R B < 6 6.8XoXoXoXoXoX",
"oXoXoXoXOX%XkX*.7 I I J U { ~ r.aXhXdXpXtXtXfXvXvXhXdXiXg.N.).~.~.(.(._.,XrXaXdXdXaXyX0X).Q.Q.R.,XaXhX;X+.! R B & r [.8X+XoXoXoX",
"oXoXoXoXoXkX[.9 w 5 J K ^ ^ r.dXgXpXtXpXhXfXhXfXeX).Q.Y.y.B.~.~.~.~.Q.G.Q.Q.Q.<XeXyXpXpXpXqX~.Q.S.(.rXhX;X..E S m , r 4.+X+XoXoX",
"oXoXoXoXoX7X=.7 I 5 D ^ ~ $.sXvXfXtXpXhXhXpXqX_.(.~.).).c.eXaXaXaXaXyXeXeX0X,X/./.:XeXpXpXpXyXqX!.V.~.aXhXv.E S M w , 6 <.5X+XoX",
"oXoXoXoX+X Xd e U B W ^ O.1XbXhXeXuXhXaXrX).Q.(.qXaXfXpX9XpXpXiXiXiXiXaXaXpXpXpXqX<X,X0XtXuXpXyXqXQ.V.,XyXiX$.G C v I q - 4.7XoX",
"oXoXoXoX8X7.e w J T / ) b.hXfX0X,XdXaXrX).Q.~.tXyXyXrXeXeX0X).).~.(.(.).<X0XqXyXwXrXrX0XeXeXtXtXyX$XG.S.0XaXj.~ P v N K 0 r }.+X",
"OXoXoXkX5Xl 0 I I ^ ! f.vXaX0XR.eXdXiX)./.<XaXaXeX<X,X<X<X<X<X<X0X,X).~.~.Q.~.).0X0X0XrXrX0X0XrXpXeXQ.C.~.aX;XX.R 1 1 B w 6 `.7X",
"kXkX7XzX9.- J I Y ^ o.uXvXrXQ.).fXhX,X/.<XaXpX<X<X,X0X0XrXiXaXaXpXpXyXyXeX0X1X).~.).).).<X_.).1XiXiX_.Z.V.0XaX$.E n < B 3 s  XkX",
"kXkXkXlXXX-.e m ^ ( v.vXyX,XR.rXhXrX/.1XaXrX~.~.,XuXsXpXpXpXpXtXrXpXyXpXpXpXuXeX<X).~././.).).).<XiX0XH.C.~.fXf.! K = J 2 } kXlX",
"kXkXkXkXzXxX2.Y ^ #.dXfXrX).).fXpXW.).yXrX/.~.0XyXaXaXrX<X_.(./.(.~._._.qXrXrXpXiXrX0X).~.~.(.).<XrX0XH.C.Q.aXv.~ L & N = =.xXlX",
"kXkXlXzXlXzXcXq.[ ..b.pXrX,XaXgX0XW.rXyXW./.rXpXaXrX_.!.S.S.S.S.S.S.S.S.Q.).<XrXpXpXrXqX).Q.Q.(.).,XeXQ.C.M.wX-X_ T & n 2 f 6XlX",
"kXkXkX4XjXjX'.3.{ W ( $.y.c.9XE.P.rXyX/.~.wXyXaXqXQ.S.S.Q.(._.<XqX<X_.~.~.~./.).,XrXrXrX0X_.Q.Q.).).0X<XA.m.0X;X' R 1 m 4 6 3XcX",
"kXzX0.a } } w L $.-Xv.&.' >.f.>.%.N.<XQ.qXyXpX<XS.Z.H.(.rXrXpXpXpXpXpXyXrX).~.Q.Q.~.qXrXtX0XQ.Y.(.~.<X2XD.p.).eX+.G 1 N 3 d 4XzX",
"kXzX8.6 q 1 b E b.bXaX>XU.uXuX:XW.u.y.W.aXaXqXS.V.~.,XrXaXsXpXuXrXrXpXpXpXpXwX~.Q.Q.~.qXtX0X).Q.S.(.).0XQ.C.H.eX&.S v n , 1.cXkX",
"kXlXjXf q N Z O.uXdX0X(.qXgXrX>XaX,XN.E.uXrXQ.Z.Q.1XpX1X<X2X(.Q.S.G.~.eXiXiXrXrX).Q.Q.~.rXtX<XQ.S.Q.~.0X/.C.D.yXt.S v 4 # 1.cXkX",
"kXlXkXj 0 N A r.hXtX0XQ.eXaX,X<XrXR.).pXiX,XV.Y.,XrXyXqXn.C.D.H.H.G.M.V.).rXeXrXqXQ.Q.~.).rX,XQ.S.S.~.,X,XC.Z.yXh.A v 4 , -.cXlX",
"kXzX4Xd 0 K R l.hXtXqXQ.tXpX).0XqXP.<XaXrXQ.S.(.rXyXrX_.i.u.qXrXrXrX_.S.V.(.rXtXrX_.Q.Q./.rXqXQ.S.S.Q.,X,XZ.C.rXj.G b n > 1.cXkX",
"kXzX].9 J M ~ I.dXtX_.R.pXiX:X0X_.Y.qXiX1XS.D.<XrXyX,XS.(.j.L.qX).).).Q.S.Y.,XtXuXqXQ.Q.Q.<XrXQ.S.V.Q.).,XM.p.rXv.R M N # 2.cX&X",
"%XzX2.7 N V  .;XdXtX~.~.pXrX<XtXQ.Y.rXiX,XS.H.rXpXrX~.S.qXU.] P.0Xn.c.:X_.Y./.tXtXwXQ.Q.Q.,XrXQ.S.V.Q.(.,XS.p.qXL.R M m , 4.zX%X",
"&XkX*., n A X.1XfXpX)./.aXrXqXwXQ.Q.rXaX~.Z.Q.tXpXqXZ.Q.rX<Xe._ t.,X<XW.0XY.Y.<XtX0XQ.S.Q.:X0X~.A.A.Q.(.<XS.a.<XI.E M v 7 8.zX%X",
"&XjXj 2 n A o.uXpXtX_.~.aXrX<XwXQ.Q.yXpX~.Z.(.rXpXqXZ.Q.rX).U.c c l.2XR.,X(.S.,XtX0XQ.S.Q.:X0X~.A.A.Q.(.<XS.a.<XK.! M v 7 9.zX%X",
"&X4Xh 2 N A @.iXpXtX_.).fXrX,XwXQ.Q.yXpX(.D.!.rXpXrXS.Q.qX).:X_ ) s.N.R.0X(.V.<XtX0XQ.S.Q.,X0X~.C.A.Q.~.<XS.a.<XK.~ M 1 7 6.zX%X",
"&X4Xd q B A @.rXrX0X_.~.aXrX).0XQ.Q.yXpX_.D.Q.qXpXrXQ.V.0XqXK.+.U.iXP.R.qXY.V.qXtX0XQ.S.Q.,X0XR.C.A.Q.Q.,XS.a.<XK./ Z v , 5.zX%X",
"&X4Xd 2 B A @.eXrX)._.R.fXrX).0X(.Q.tXaXqXD.Q.,XuXuX_.V.R.iXU.t.Q.Q./.rX0XV.Y.qXeX0XV.S.Q.<X1XF.C.S.Q.~.<XA.a.<XJ.~ Z v , 5.zX%X",
"&X6Xj 2 K A X.eXwX~.!.~.fXdX)._._.R.qXaXrXQ.S.~.eXuXrXQ.N./.P.N.0X).qXqXV.m._.qXeX~.V.S./.qX~.V.A.S.~.(._.m.C.qXJ.! M 1 7 8.zX%X",
"&XOXj 0 B C  .1X0XQ.^.~.yXfX:X^.,XQ.(.pXiX<XQ.Q.<XrXrXwXQ.S.n.V._._.).V.m.Q.qXeX0XS.C.Q.,X$XQ.A.S.Q.R.(.!.m.V.rXk.R b * 8 [.lX%X",
"&XOXk 0 B C ^ ;XyXQ._.~.rXhX1X^._.Q.!.qXiXrX).S.Q.<XrXrX0XQ.G.M.C.C.B.V.~.qXeXeXQ.m.V.).eX~.S.S.Y.Q.R.).Q.p.Q.rXg.R b   y XX&X%X",
"&XkX*.; K A E K.aXQ.(.R.0XhXeXQ.(.(.!.).rXiXrXQ.S.(.<XeXI.;XrX<X).(.~.<XqXeXeX).m.n./.<X<XQ.V.Y.Q.Q.R.).S.p.!.rXt.R b   d XX&X%X",
"%XzX5.7 K A S f.aX~.~.~.).sXpX(.Q._._.~.).rXrXqXQ.Y.(.P.j.uXuXeXuXeXqXqXeXqX(.m.m.R.0XqX(.S.G.Q.Q.G.Q.).V.m._.<X#.S z & s .X&X%X",
"%XzX9.7 J L S $.pX<X(.).~.pXdX).Q.).0X).).).<XrXqX(.Q.t.u.<X<XqXeXeXqX0X,XQ.a.C.Q.0X0X_.S.S.Q.Q.Q.S.(.).m.Z._.W.X.P z & s .X#X@X",
"%XzX9.8 N T S ) ;XyX(.^.(.rXsXtXQ.Q.<X<X<X,X/.,XrXrXU.X.z.!.Q.Q.Q.Q.H.S.m.m.S.).eX0X<XQ.V.Q.Q.S.S.R.,XQ.n.Q.2XK./ A 1 & f oXoX@X",
"%XlX[.9 q T R C f.aX<XY.H.,XdXpX,XG.Q.<X1X<X)./.).iXk.@.,X~.Q.P.V.V.m.V.Q.~.<XqX0X<X(.V.~.~.Q.S.S./.).S.V.~.rXh.! M 1 = | oXoXoX",
"oX#X Xl e J R C ` 1XaX~.S.Q.qXyXrXQ.S./.<X<X<X).W.,Xk.k.rX0X0X,X<X).,X,X0XqX0X<X_.P.B./.,XQ.V.Y.Q._./.V.P._.2X&.S v 3 $ -.7XoXoX",
"oXoX+X}.p 2 L L A s.aXrXQ.S.S.0XaXqXY.V.Q.).<X<X,X/.P./.qXeX0XqXqXqXeX0X<X<X,X/.V.V./.<X).V.S.P.).(.P.P.~.<X/.` Z * 3 $ 4.8XoXoX",
"oXoX+XoXk $ U T S / I.aX/.S.Z.S.eXiX<XS.m.S.Q.<X<X<X)./.Q.).<X,X0X0X<X<X).(.V.V.T.,X<X(.S.S.S./.:XP.P.Q.~.qXg.G b * 3 7 6.#XoXoX",
"oXoXoX#X6.8 4 K L G +.1XrX~.G.M.G.rXrX,XS.m.Z.S.(._.<X,X).Q.Q.~.~.R.Q.Y.P.P.Q._.2X<XQ.n.Z.S.Q.).R.Q.Y.).<X).X.V z 1 3 7 [.#XoXoX",
"oXoXoX+X5X| = B K T R e.rX0X~.G.Z.Y.1XrX<XQ.Z.a.m.S.Q.<XqX<X,X).(.Q.Q.(.).<XrX<X(.V.V.V.S./.).Q.Q.S.Q.,XqXh.G b . n = a .X+XoXoX",
"oXoXoXoX7X*.= N m A E G g.aX,X~.S.m.Y.<XrX<X~.S.m.n.m.V.Y./.<X<X<X2X2X<X<X>X/.V.m.B.V.Q.(.).R.Q.Q.Q.~.<X:X' A v 1 N @ *.7XoXoXoX",
"+XoXoX@XkX2.; J m v E ~ ~ k.rX).Q.S.C.S._.0X0X<X(.Q.S.m.a.a.C.C.S.S.S.S.C.C.a.p.V.S.Q.).).R.Q.Q.R.(._.2Xt.A b 1 N 1 6 [.#XoXoXoX",
"kXkX@XkXlX[.6 0 J . m ^ ! _ J.yX).Q.D.Z.V./.0XrX<X<X_.Q.S.D.C.C.p.p.p.p.p.a.C.S.(.(.)./.R.Q.R.R./.).2Xz.E M z 3 n O *.7X+XoX+X@X",
"kXkXkXkXlXxX:.X q n . B / E ) L.aX).Q.H.S.V./.<X<X<X<X<X<X,X).(./.~.~.Q././.,X,X,X/.R.Q.Q.Q.Q./.:XeXJ.~ b z m N + s XX&X@X@XkXkX",
"kXkXkXkXkXzXxX:.> < 3 & B ^ ! / v.aX,XR.Q.H.A.Y.(._.<X<X0X<X1X1X1X0X0X0X<X,X:X/.Q.Y.P.P.P.~.~.:XrXK.` Z b 1 4 & 9 ].*X%X%XkXkXkX",
"kXkXkXkXkXkXzXcX5.8 2 3 . B / ! ~ k.iX0XR.G.D.S.S.S.Q.(._./.<X<X,X,X).~./.Q.P.V.V.P.R././.).,X2Xk./ Z M z n $ 8 ].*X%XkXkXkXkXkX",
"kXkXkXkXkXkXkXlXcX0.7 1 m . n E ! ~ d.2XrX~.R.G.S.V.S.S.z.u.Y.Y.Y.Y.P.V.V.V.S.Y.R./.).,X<X2X:Xr.~ Z b : m = X 8.cX&XkXkXkXkXkXkX",
"kXkXkXkXkXkXkXkXlXcX2.# H 4 < 1 A R E &.:XrX0X~.Q.Q.S.H.u.w.Y.S.V.V.S.Y.Y.Q.Q.(.).,X<X2X:Xh.X.F A v 1 < $ - 4.cXlXkXkXkXkXkXkXkX",
"kXkXkXkXkXkXkXkXkXlXxX;.# w J v : v A A ' k.eXrX<X).Q.~.w.&.(.G.Q././.(.).).).0X2X<XU.g.X.G C Z z < + @ p 9.zXlXkXkXkXkXkXkXkXkX",
"kXkXkXkXkXkXkXkXkXkXzXxX*.# J N 4 1 z b C F @.x.1XrXrXqX] t.rX0X0XqXqXqX<X,XW.L.g.#._ G C V x % O # t :.XXzXlXkXkXkXkXkXkXkXkXkX",
"kXkXkXkXkXkXkXkXkXkXkXzX4Xa O & , $ & 1 v b b P ` #.g.h.~ e.U.J.c.k.g.y.e.+.' ~ S V b b b z + - k 6.XXzX*X%XkXkXkXkXkXkXkXkXkXkX",
"kXkXkXkX%X%XkXkXkXkX%X%XzX|.| =.5.*.p # 2 v v b c c c C V S R G S C V V V V Z Z b v v * & + # 2.lXzX&X%X%X%XkXkXkXkXkXkXkXkXkXkX",
"kXkX%X%X%X%X%XkX%X%X%X%X%XlXlXxXcXlX4X4.6 O & & 1 B v * * b b b b V V V M z % o o o @ 7 8 p 5.kX&X@X%X%XkXkXkXkXkXkXkXkXkXkXkX%X",
"%X%X%X%X%X%X%X%X%X%X%X%X%X%X&X&XkXlXzXcX].=.f g t @ t 5.} O + + + & 1 & + t f =.-.-.:.9.}. XkX@XOX@X@X@X%X%XkXkXkXkXkXkXkXkXkX%X",
"%X%X%X%X%X%X%X%X%X%X%X%X%X%X%X%XkX%X%XkXzXcXOX@X}.=.].zX X;.=.:.:.d - d 8. XOXlXlXlXlXkXkX%X@X@X@X@X@X@X@X@X@XOX%XkXkXkXkXkX%X%X",
"%X%X%X%X%X%X%X%X%X%X%X%X%X%X%X%X%X%XkXkXkXlX&X&X&XlX&X%X&X&XlXlXlX X6. XlX&X%X@X@X@X@X@X@X@X@X@X@X@X@X@X@X@X@XOX@XkXkX%X%X%X%X%X"
};
