/* XPM */
static char *result[] = {
/* columns rows colors chars-per-pixel */
"64 64 228 2 ",
"   c None",
".  c #6B361C",
"X  c #743C1D",
"o  c #7B3E1E",
"O  c #5C3A27",
"+  c #5C3B32",
"@  c #643520",
"#  c #643B24",
"$  c #6B3D23",
"%  c #633E2B",
"&  c #6B3E28",
"*  c #733E24",
"=  c #7B3D21",
"-  c #733F29",
";  c #773B28",
":  c #79411F",
">  c #5F412E",
",  c #5F4032",
"<  c #654226",
"1  c #6E4125",
"2  c #64422C",
"3  c #6B452D",
"4  c #6D492E",
"5  c #744224",
"6  c #7C4324",
"7  c #74452A",
"8  c #7C462A",
"9  c #74492C",
"0  c #7D4A2B",
"q  c #7E4827",
"w  c #7F542C",
"e  c #634533",
"r  c #6A4532",
"t  c #6B4A35",
"y  c #654B3B",
"u  c #6B4D3D",
"i  c #634934",
"p  c #744531",
"a  c #744A32",
"s  c #7C4B32",
"d  c #754937",
"f  c #6C513D",
"g  c #7E5236",
"h  c #6C5543",
"j  c #6B554A",
"k  c #6B5848",
"l  c #735442",
"z  c #72554A",
"x  c #735B4D",
"c  c #735A45",
"v  c #775D53",
"b  c #6C5146",
"n  c #766154",
"m  c #7B6155",
"M  c #7B695C",
"N  c #776459",
"B  c #7D6D66",
"V  c #833E24",
"C  c #883E22",
"Z  c #8B461D",
"A  c #834325",
"S  c #8C4324",
"D  c #824927",
"F  c #844529",
"G  c #8D4329",
"H  c #834A2C",
"J  c #8C4C2D",
"K  c #924525",
"L  c #93452A",
"P  c #934B2B",
"I  c #994D2C",
"U  c #944B26",
"Y  c #83512E",
"T  c #96522C",
"R  c #9B522D",
"E  c #9C582D",
"W  c #844D33",
"Q  c #8B4D32",
"!  c #804732",
"~  c #934E31",
"^  c #9B4D30",
"/  c #964E3E",
"(  c #845233",
")  c #8B5233",
"_  c #8A5639",
"`  c #945333",
"'  c #9C5432",
"]  c #9E5A34",
"[  c #9C5638",
"{  c #9E593B",
"}  c #935838",
"|  c #A25533",
" . c #A35B35",
".. c #A25B3A",
"X. c #AA5D3B",
"o. c #A55A39",
"O. c #A1562F",
"+. c #9B6138",
"@. c #A4623C",
"#. c #AB633D",
"$. c #A86539",
"%. c #B2683D",
"&. c #B2743F",
"*. c #815F4D",
"=. c #9D5547",
"-. c #A45E41",
";. c #89644E",
":. c #85685A",
">. c #AB6541",
",. c #AA6A44",
"<. c #B16B45",
"1. c #B36D48",
"2. c #AE7248",
"3. c #B57144",
"4. c #B4744A",
"5. c #BB7A4C",
"6. c #BA764A",
"7. c #BB7B53",
"8. c #846D62",
"9. c #876D64",
"0. c #897568",
"q. c #96786C",
"w. c #8E7D73",
"e. c #957D74",
"r. c #AC7B73",
"t. c #C37E54",
"y. c #C37E49",
"u. c #BE8558",
"i. c #99887A",
"p. c #A0877A",
"a. c #B58B74",
"s. c #C48253",
"d. c #C4865B",
"f. c #CA8A5D",
"g. c #CC8653",
"h. c #D38E5C",
"j. c #D68F52",
"k. c #D9955C",
"l. c #C4814F",
"z. c #E99D5D",
"x. c #EDA35F",
"c. c #F2A35F",
"v. c #CC8C62",
"b. c #CB9367",
"n. c #D59463",
"m. c #D49C6C",
"M. c #DB9E6B",
"N. c #D89767",
"B. c #D79A72",
"V. c #D18F62",
"C. c #E49D68",
"Z. c #E19F73",
"A. c #DDA46E",
"S. c #DBA373",
"D. c #DEAB7C",
"F. c #D8A578",
"G. c #E6A363",
"H. c #EDA664",
"J. c #EDAA66",
"K. c #E3A56E",
"L. c #EAA76B",
"P. c #EEAB6C",
"I. c #E7A96D",
"U. c #F2A664",
"Y. c #F3AA65",
"T. c #F3A769",
"R. c #F2AC6C",
"E. c #F9AE6C",
"W. c #FAAA65",
"Q. c #F3B16E",
"!. c #F9B26E",
"~. c #E2A573",
"^. c #E4AA75",
"/. c #EEAE73",
"(. c #E2AB7C",
"). c #ECAD7B",
"_. c #E5A677",
"`. c #F2AE71",
"'. c #F2AD79",
"]. c #EEB275",
"[. c #EDB57C",
"{. c #E9B67C",
"}. c #F3B374",
"|. c #F9B574",
" X c #F4B976",
".X c #F4B67A",
"XX c #F9B679",
"oX c #F5BA7C",
"OX c #FABB7D",
"+X c #FBB876",
"@X c #EAB26F",
"#X c #F8C07F",
"$X c #9D8D82",
"%X c #A79389",
"&X c #D5AC8E",
"*X c #E2AB83",
"=X c #E4B382",
"-X c #EBB483",
";X c #EDBB8B",
":X c #EDB986",
">X c #F3B482",
",X c #F5BC83",
"<X c #F9BD83",
"1X c #F5BD89",
"2X c #FBBE8A",
"3X c #FCB782",
"4X c #EEBF92",
"5X c #EBC38A",
"6X c #F6C285",
"7X c #FAC185",
"8X c #F6C38B",
"9X c #FAC48B",
"0X c #F5CA8D",
"qX c #FBC98E",
"wX c #FAC887",
"eX c #F4C492",
"rX c #FBC691",
"tX c #F6CA93",
"yX c #FBCB93",
"uX c #F7CC99",
"iX c #FACC9A",
"pX c #F7C69C",
"aX c #FCD196",
"sX c #FDD29C",
"dX c #FBD699",
"fX c #FED4A2",
"gX c #FFDAA2",
"hX c #FFE1B1",
/* pixels */
"                                                                                                                                ",
"                                                            w.m l l z x n 8.8.N                                                 ",
"                                                      z u t 3 4 9 0 9 9 7 7 4 t b 8.0.                                          ",
"                                    9.v v b u u       d W _ } } ` ` ` } ` ) ) ( s 3 t y n                                       ",
"                              w.x t p a s W W H ( &Xa.` | | | [ [ { ..[ [ ..{ [ } ) ( W 7 y v                                   ",
"                        9.z l 3 p g ( ( ) ) T R } } ) | | o.o.@.,.>.@.] R P P R R ' T ` J 8 7 r v w.                            ",
"                        u a H ) ) W 0 Q [ ..| | ..2.>.>.B.D.(.=X=X(.D.S.m.u.2.@.' T I | ' U J H 1 < f h x                       ",
"                      x 9 ( Y Y 0 H ' -... .1.V.*XpX*X@.D.hXgXfXsXsXsXfXfXfXiX4X(.b.7.>.[ | o.{ J F 8 a 3 e                     ",
"                    n 3 ( ( Y 8 Q ..X. .2.m.eXsXsXsXfXb.$.:XyX8X8X8X8X0X9XqXyXsXsXsXuX=Xb.6.@. ...[ J H W 5 f                   ",
"                  B 2 ( ( H q ` >...@.b.eXfXsXyXrX0XuXrX5.h.yX6X6X9X6X6XoX X}. X6X9XyXaXaXrX(.d.@.] [ ~ J W % 8.                ",
"                  e g ( ( q ` >.o.4.=XfXsXdXtX8X8X0X0XaXm.B.sXiXdXsXiXsXyX9X,X.X`.R.}. XOXqXsXyX-Xu. .| ' J 0 2 M               ",
"                u 9 ( ( 0 ` #. .s.eXfXsXtX8X0XuXuXdXaXsXm.*XfXtXiXuXuXuXuXsXsXrX2XOX}.}.`. X X7XyXyXS.%.O.' J 8 >               ",
"              B 3 ( ( W ) -.o.d.uXsXiXtX0X0XaXfXfXsXiXrXN.K.oX X XXXXXOX,X8XiXiXiXyXqX6XoX}.}.].,XyXsX-X3.| ' J 5 l             ",
"              y s w ( Q ....d.iXdXtX0XuXsXdXsXaX8XoX}.`.j.L. X X X X}.Q.}.}.}.<X8XqXrXrXtX7X X}.R.XX9XsX:X,.' I F 4 i           ",
"            0.3 ( w Y .. .7.pXfXdX0XtXsXsXtX7XOXXX XoXoXA.8XyXuXuXuXqX8X8X6X,XoX.X>X8XrXtXuXqX7X|.P. XrXsXS.] I G s 4 % w.      ",
"            x a ) J } ..2.;XgXsX8XrXsXyX9XoX}.XX7XyXaXtX5XtXtXrXrXrXrXyXuXuXtXrX7X<X,X6X0XeXtXqX7X}.P.,XqXrX7.R U A ( d + $X    ",
"            r W W ` o.@.D.sXaX6X,XiXyX9XoX}. X0X0XqX9X8X9X6XoXoX XXXXXoX<X6XwXqXwX9X9X6X8X8X0X0XqX#XQ.R.6XyXm. .^ A H Q 9 y     ",
"          9.p g ( o.| b.fXyX6X].8XiXrXoX.X<XyXyX8X<X,X<X<X<X<X<X7X,XoX X X}. XoX6X6X6X9X9X6X6X9XrX8X}.U. XyX:X<.' 6 6 J W e     ",
"          , W ( _ ..1.eXfX9X}.oXaXsX,X.X<XyXrX<X<X,X6X6X9XrXuXuXtXtXqXqX8X6X1XoX XoXoXoX<XOXoX1XrXrXOXY.P.6XyX7.[ H 5 J 8 c     ",
"          q.a H ..+.F.fXqX,X].9XsX9X.X1XyX9X X X,XeXuXtXrXrXrX0X0XrXqXrXrXrXeX8X<XoX X.X.XoXoXoX<XrX6X!.U. XaXb.| P - W 7 m     ",
"            i.g ..5.iXaX9XoXoXaXrX[.oXqX9X.X X6XqXyXyX9X<XOXXX.XXX XOXOX7X9X9XrXrX9X6XoX X XXXoX<X9X6X!.U.}.yXS. .~ * H 7 *.    ",
"                / <.D.rXqX,XyXsX6X[.9XqX[..X9XtXyX9XOX|.R.R.R.R.R.R.R.R.}.oX<X9XtXrX9X7XoX}.}.XXoX,X8X}.U.H.qX=X$.` * H 5 c     ",
"              r.=.{ +.7.h.A.5X{./.9XqX.X XwXqXyX7X}.R.R.}.XXOX<X7X<XOX X X X.XoX,X9X9X9X6XOX}.}.oXoX6X<XT.H.6X:X%.' 6 F H e     ",
"      h ;.;.s ` 7.=XS.t.%.u.b.u.y.K.<X}.7XqXtX<XR.Y.!.XX9X9XrXrXrXrXtXqX9XoX X}.}. X7X9X0X6X}.`.XX X<X<XE.x.oX8X6.R 6 H 0 l     ",
"      r 0 q S ] S.gXyX3X).eXeX>X[.k.h.[.yXyX7XR.P. X,X9XuXuXtXeX9X9XtXuXuXrXwX X}.}. X7X0X6XoX}.R.XXoX6X}.U.!.8Xt.I A H 1 p.    ",
"      m p H L 2.eXiX6XXX7XdX9X3XyX,XK.{.eX9X}.Y. X6XtX1X,X2XXX}.R.Q. X8XrXrX9X9XoX}.}. X9X0X<X}.R.}. X6X.XU.W.qXf.I A 0 < e.    ",
"      m p H L d.sX0X6X}.8XyX,X<X9X].oXrXrX,XP.`.,X9XqX6XG.U.Y.!.!.Q.J.P.oX9X8X9X7X}.}. XoX9X,X}.R.R. X,X,XU.Y.qXN.P A 0 3 0.    ",
"      z s J ' B.sX0X7X}.0XrX>X6X7X/.<XyX9X}.R.XX9XqX9XOXz.k.7X9X9X9XOXR.P.XX9X0X9XOX}.}..X9X7X}.Q.R.}.,X,XY.U.9Xm.R S D < e.    ",
"      u ! G  .(.iX0XOX].tXrX>X6XOX`.7XrX1XR.E.<X9XqX,XR.XXm.^.7XoXoXoX}.R.`.,X0XeX7X}.}.}.<X9X}.R.P.}.oX,XH.H.9XS.' G H < i.    ",
"    i.r H K >.:XiX0X X XtX9X<X0X}.`.9XrX,XR.!.9XrX9X XR.7X).&./.6XL.A.>XOX`..X0X0XwX}.}.}.,X9X}.R.P.}.XX,XR.x.7X^.' G F 3 w.    ",
"    M 9 D P <.1XaX0XoX.XyX9X7XwX}.}.9XuX XY.}.0XuX7XY.}.9X<Xs.$.f.,X<X[.6X`.`.<X0X6X}.R.}.>X6X XT.T.}.XX<XR.c.<X(.' G F 4       ",
"    n 9 D P 4.eXtX0XOX XyX9X<XwX}.}.qXuX XY.XX9XuX7XY.}.9XoX).Z Z B.2X].,XXXR.,X0X6X}.R.}.>X6X XT.T.}.XX<XR.c.<X^.| G A 3       ",
"    x 9 H P 4.rXrX0XOXoXaX9X,XwX}.}.qXtXXXY.|.9XuX9XR.}.7XoX>X$.@.v.K.].6XXXP.<X0X6X}.R.}.,X6X XU.T.}. X<XR.c.<X^. .G A 3       ",
"    k 9 J P 4.9X9X6XOX XyX9XoX6X}.}.qXuXOXY.}.7XuX9X}.R.6X7X_.6.).rX/.].7X`.P.7X0X6X}.R.}.,X6X].U.T.}.}.,XR.c.<X^.o.L A 3       ",
"    x 9 J P 4.9X9XoXOX].aX9XoX6XXX}.0XuX7XY.}.,XeXeXOXP.].rX).g.}.}.XX9X6XP.`.7X8X6XP.R.}.<X1X@XU.R.}. X<XT.c.<X~.o.L A 3       ",
"    x 9 Q P <.8XwX X|. XaXiXoXOXOX].7XuX9X}.R. X8XeX9X}.K..X/.K.6XoX7X7XP.H.OX7X8X XP.R..X7X XP.T.R. XXXOXH.U.7X~.| G A 3       ",
"    k a J L >.1X6X}.+X XqXdX>X+X,X}.XXrXrX<X}.}.<X9X9XwX}.R.G.P.OXOXoXP.H.}.7X8X6XR.U.}.,X#X}.T.R.}.].XX|.H.P.9XM.' S : t       ",
"    k a J L ..-XqX}.OX X9XsX1X+XOX}.|.7XrX9XoXR.}.<X9X9X6X}.Q.H.U.U.L.I. X7X8X8X}.H.P.oX8X XR.R.`.}.].oX}.x.}.9Xn.' S X l       ",
"    M 3 Q P ' _.yX}.XX].6XsX8X}.XXXX|.oX9XrX9X}.R.XX<X8X(.:X9X<XoXXX X<X7X8X8XoXH.J..X<X<X}.P.`.}.}.].oXR.x.|.9Xf.' S . c       ",
"    $X2 Q P ^ n.yX X X XoXuXuXXX}.OXOX XoX9X9X7X}.R.XX/.m.eXeX8XeX8X7X7X8X7XXXH.H.].6X7XXXR.Q.}.}.Q.}.oXP.H.OX<X5.P V X h       ",
"      r W ~ I 7.rX<XXXoX XuXuXoX}.oX6XoXoXoX<X9X7XXX}.g.k.<X<X7X8X8X7X6X,X}.c.U.}.6X6XOXR.R.}.}.}.R.XXoXH.Y.OX[.<.^ V 5 k       ",
"      r H ` I @.-XqXXX|.XX9XuX0X}.}.<X<X<X,X.X,X9X9X).<.C.|.}.}.}.}.!.R.H.H.R.oX8X6X<X}.P.}.}.R.R.].,X}.J.}.2X_.X.P 6 * v       ",
"      r 0 ` ' U b.yX<X`.!.,XiXrX,XQ.}.<X1X<XoX.XoXrXM.4.,X X}./.P.P.H.P.}. X<X7X6X<XXXP. X X}.R.R..XoXR.P. X9XN.| G 6 - v       ",
"      M a W ' L #.1XyX XR.}.7XqX9X}.R..X<X<X<XoX[.,XM.M.9X6X6X<X<XoX,X,X6X7X6X<XOX/.I.}.,X}.P.`.}.OX.XP./.OX2Xt.I A 8 & q.      ",
"        u 9 ~ ~ P v.yX9X}.R.R.6XyX7X`.P.}.oX<X<X,X.X/..X7X8X6X9X7X7X8X6X<X<X,X.XP.I..X<XoXP.R./.oXXX/./. X<X.X#.L = 0 # %X      ",
"        m < ) ` I X.(.yX.XR.Y.R.8XrX<XR.H.R.}.<X<X<XoX.X}.oX<X,X6X6X<X<XoXXXP.P.'.,X<XXXR.R.R..X>X/./.}. X7Xn.R S = 0 %         ",
"          t 0 Q ~ R 3.1X9X XQ.J.Q.9X9X,XR.H.Y.R.XXOX<X,XoX}.}. X X].}.`././.}.OX2X<X}.J.Y.R.}.oX].}.`..X<XoX3.K V 6 8 r         ",
"          9.5 J Q ` ' s.9X6X XQ.Y.`.1X9X<X}.Y.c.H.R.}.<X7X<X,XoXXX}.}.XXoX<X9X<X}.P.P.P.R..XoX}.}.R.}.,X7XN.R S o H - z         ",
"          8.7 H F P ] E n.yX,X XR.H.`.<X9X<X XR.H.G.H.P.`.XX<X<X<X2X2X<X<X3XXXP.H.L.P.}.XXoX].}.}.}. X<X>X%.P A 6 H # 9.        ",
"          e.% W F A [  . .M.9XoX}.R.U.R.OX6X6X<XXX}.R.H.c.c.U.U.R.R.R.R.U.U.c.x.P.R.}.oXoX].}.}.].XXOX2Xf.P S 6 H 8 >           ",
"            e 9 W o F ..| $.~.qXoX}.E.Y.P..X6X9X<X<XOX}.R.W.U.U.x.x.x.x.x.c.U.R.XXXXoX.X].}.].]..XoX2XC.' G V 8 0 @ 0.          ",
"            e.O 0 D X J X.' @.^.yXoX}.!.R.P..X<X<X<X<X<X<X,XoXXX.X X X}..X.X,X,X,X.X].}.}.}.}..X>X8X~. .S V F H $ c             ",
"              8.< 5 8 * J ..| X.S.yX,X].}.!.T.`.XXOX<X<X6X<X1X1X1X6X6X6X<X,X>X.X}.`./././. X X>X9X_.#.L S 6 0 * +               ",
"                i.2 7 8 X J o.|  .M.rX6X].Q.Y.R.R.R.}.XXOXXX<X<X,X,XoX X.X}./.P.P./.]..X.XoX,X2XM.X.L G V H 1 d                 ",
"                    2 6 F X D ] |  .V.2X9X X].Q.R.P.R.R.C.k.`.`.`.`./.P.P.P.R.`.]..XoX,X<X2X>Xd. .L S : F ; O                   ",
"                    0.# ! s 5 6 P ' ' t.>X9X6X X}.}.R.!.k.g.`.R.P.P.R.`.`.}.}.XXoX,X<X2X>XN.<.T P V 6 9 & + i.                  ",
"                      0.O s W A : A P P %.M.8X9X<XoX}. Xl.t.XXQ.}..X.XXXoXoXoX<X2X<X).n.3.R U L V 5 1 # h                       ",
"                        n % W H 0 6 V S U T 4.Z.1X9X9X7X&.f.9X6X6X7X7X7X<X,X[.^.n.5.$.R U K C = @ % f q.                        ",
"                          j # 1 1 7 5 6 A S S ^ #.5.n.N. .s.).~.A.M.n.h.s.6.%.o.I K S S S V * % N                               ",
"                            x q.p.n f % 7 A A S Z Z Z U K ^ ' R I U K K K G G L S A A = * $ O i.                                ",
"                                      w.r # 7 5 8 J F = = S S S K K S K G V ; $ . @ # 3 t y                                     ",
"                                          8.u f f 2 t q.*.$ & $ * 5 q 5 $ t l :.q.q.8.                                          ",
"                                                  N       h M 9.:.x e c                                                         ",
"                                                                    j                                                           "
};
